<svg width="600" height="456" viewBox="0 0 600 456" fill="none" xmlns="http://www.w3.org/2000/svg">
<g clip-path="url(#clip0)">
<path d="M290.286 402.74C161.144 392.912 7.13565 292.847 14.9764 189.815C22.8172 86.7823 171.976 -9.13246 301.118 0.695262C430.261 10.523 504.599 203.074 496.759 306.106C488.918 409.139 419.429 412.567 290.286 402.74Z" fill="#F2F2F2"/>
<path d="M301.117 419.288C450.002 419.288 570.698 411.894 570.698 402.773C570.698 393.651 450.002 386.257 301.117 386.257C152.232 386.257 31.5364 393.651 31.5364 402.773C31.5364 411.894 152.232 419.288 301.117 419.288Z" fill="#3F3D56"/>
<path opacity="0.1" d="M301.117 413.428C427.934 413.428 530.74 408.538 530.74 402.506C530.74 396.474 427.934 391.585 301.117 391.585C174.3 391.585 71.494 396.474 71.494 402.506C71.494 408.538 174.3 413.428 301.117 413.428Z" fill="black"/>
<path d="M113.05 455.517C175.486 455.517 226.1 451.104 226.1 445.66C226.1 440.217 175.486 435.804 113.05 435.804C50.6142 435.804 0 440.217 0 445.66C0 451.104 50.6142 455.517 113.05 455.517Z" fill="#3F3D56"/>
<path opacity="0.1" d="M113.05 452.019C166.231 452.019 209.343 449.101 209.343 445.502C209.343 441.902 166.231 438.984 113.05 438.984C59.8685 438.984 16.7564 441.902 16.7564 445.502C16.7564 449.101 59.8685 452.019 113.05 452.019Z" fill="black"/>
<path d="M505.167 86.3084H104.526V400.642H505.167V86.3084Z" fill="#3F3D56"/>
<path d="M300.288 129.265H201.45C201.293 129.265 201.137 129.235 200.991 129.174C200.845 129.114 200.712 129.026 200.601 128.915C200.489 128.803 200.4 128.671 200.34 128.525C200.28 128.379 200.248 128.223 200.248 128.066C200.248 127.908 200.28 127.752 200.34 127.606C200.4 127.46 200.489 127.328 200.601 127.217C200.712 127.105 200.845 127.017 200.991 126.957C201.137 126.897 201.293 126.866 201.45 126.866H300.288C300.606 126.867 300.911 126.993 301.135 127.218C301.359 127.443 301.485 127.748 301.485 128.066C301.485 128.383 301.359 128.688 301.135 128.913C300.911 129.138 300.606 129.264 300.288 129.265Z" fill="#F2F2F2"/>
<path d="M408.482 142.459H253.029C252.71 142.459 252.405 142.333 252.18 142.108C251.955 141.883 251.829 141.578 251.829 141.26C251.829 140.942 251.955 140.637 252.18 140.412C252.405 140.187 252.71 140.06 253.029 140.06H408.482C408.64 140.06 408.796 140.091 408.941 140.152C409.087 140.212 409.219 140.3 409.331 140.412C409.442 140.523 409.53 140.655 409.591 140.801C409.651 140.946 409.682 141.102 409.682 141.26C409.682 141.417 409.651 141.573 409.591 141.719C409.53 141.864 409.442 141.997 409.331 142.108C409.219 142.219 409.087 142.308 408.941 142.368C408.796 142.428 408.64 142.459 408.482 142.459Z" fill="#F2F2F2"/>
<path d="M300.768 155.654H201.93C201.612 155.654 201.307 155.527 201.082 155.302C200.857 155.078 200.731 154.772 200.731 154.454C200.731 154.136 200.857 153.831 201.082 153.606C201.307 153.381 201.612 153.255 201.93 153.255H300.768C301.086 153.255 301.391 153.381 301.616 153.606C301.841 153.831 301.968 154.136 301.968 154.454C301.968 154.772 301.841 155.078 301.616 155.302C301.391 155.527 301.086 155.654 300.768 155.654Z" fill="#F2F2F2"/>
<path d="M408.482 155.894H309.644C309.326 155.894 309.021 155.767 308.796 155.542C308.571 155.317 308.445 155.012 308.445 154.694C308.445 154.376 308.571 154.071 308.796 153.846C309.021 153.621 309.326 153.495 309.644 153.495H408.482C408.8 153.495 409.106 153.621 409.33 153.846C409.555 154.071 409.682 154.376 409.682 154.694C409.682 155.012 409.555 155.317 409.33 155.542C409.106 155.767 408.8 155.894 408.482 155.894Z" fill="#F2F2F2"/>
<path d="M301.008 168.848H202.17C201.852 168.848 201.547 168.722 201.322 168.497C201.097 168.272 200.971 167.967 200.971 167.649C200.971 167.331 201.097 167.026 201.322 166.801C201.547 166.576 201.852 166.449 202.17 166.449H301.008C301.326 166.449 301.631 166.576 301.856 166.801C302.081 167.026 302.208 167.331 302.208 167.649C302.208 167.967 302.081 168.272 301.856 168.497C301.631 168.722 301.326 168.848 301.008 168.848Z" fill="#F2F2F2"/>
<path d="M301.248 182.043H202.41C202.092 182.043 201.787 181.916 201.562 181.691C201.337 181.466 201.211 181.161 201.211 180.843C201.211 180.525 201.337 180.22 201.562 179.995C201.787 179.77 202.092 179.644 202.41 179.644H301.248C301.566 179.644 301.871 179.77 302.096 179.995C302.321 180.22 302.448 180.525 302.448 180.843C302.448 181.161 302.321 181.466 302.096 181.691C301.871 181.916 301.566 182.043 301.248 182.043Z" fill="#F2F2F2"/>
<path d="M346.109 129.505H317.801C317.483 129.505 317.178 129.379 316.953 129.154C316.728 128.929 316.601 128.624 316.601 128.305C316.601 127.987 316.728 127.682 316.953 127.457C317.178 127.232 317.483 127.106 317.801 127.106H346.109C346.427 127.106 346.732 127.232 346.957 127.457C347.182 127.682 347.308 127.987 347.308 128.305C347.308 128.624 347.182 128.929 346.957 129.154C346.732 129.379 346.427 129.505 346.109 129.505Z" fill="#F2F2F2"/>
<path d="M346.109 168.848H317.801C317.483 168.848 317.178 168.722 316.953 168.497C316.728 168.272 316.601 167.967 316.601 167.649C316.601 167.331 316.728 167.026 316.953 166.801C317.178 166.576 317.483 166.449 317.801 166.449H346.109C346.427 166.449 346.732 166.576 346.957 166.801C347.182 167.026 347.308 167.331 347.308 167.649C347.308 167.967 347.182 168.272 346.957 168.497C346.732 168.722 346.427 168.848 346.109 168.848Z" fill="#F2F2F2"/>
<path d="M346.109 181.803H317.801C317.643 181.803 317.487 181.772 317.341 181.712C317.195 181.652 317.063 181.564 316.951 181.452C316.839 181.341 316.751 181.208 316.69 181.063C316.63 180.917 316.599 180.761 316.599 180.603C316.599 180.445 316.63 180.289 316.69 180.144C316.751 179.998 316.839 179.866 316.951 179.754C317.063 179.643 317.195 179.554 317.341 179.494C317.487 179.434 317.643 179.403 317.801 179.404H346.109C346.267 179.403 346.423 179.434 346.569 179.494C346.714 179.554 346.847 179.643 346.959 179.754C347.07 179.866 347.159 179.998 347.219 180.144C347.28 180.289 347.311 180.445 347.311 180.603C347.311 180.761 347.28 180.917 347.219 181.063C347.159 181.208 347.07 181.341 346.959 181.452C346.847 181.564 346.714 181.652 346.569 181.712C346.423 181.772 346.267 181.803 346.109 181.803Z" fill="#F2F2F2"/>
<path d="M393.609 181.803H365.301C364.983 181.802 364.679 181.675 364.454 181.45C364.23 181.226 364.104 180.921 364.104 180.603C364.104 180.286 364.23 179.981 364.454 179.756C364.679 179.531 364.983 179.404 365.301 179.404H393.609C393.766 179.403 393.923 179.434 394.068 179.494C394.214 179.554 394.347 179.643 394.458 179.754C394.57 179.866 394.659 179.998 394.719 180.144C394.78 180.289 394.811 180.445 394.811 180.603C394.811 180.761 394.78 180.917 394.719 181.063C394.659 181.208 394.57 181.341 394.458 181.452C394.347 181.564 394.214 181.652 394.068 181.712C393.923 181.772 393.766 181.803 393.609 181.803Z" fill="#F2F2F2"/>
<path d="M229.519 142.459H201.211C200.892 142.459 200.587 142.333 200.362 142.108C200.137 141.883 200.011 141.578 200.011 141.26C200.011 140.942 200.137 140.637 200.362 140.412C200.587 140.187 200.892 140.06 201.211 140.06H229.519C229.837 140.06 230.142 140.187 230.367 140.412C230.592 140.637 230.718 140.942 230.718 141.26C230.718 141.578 230.592 141.883 230.367 142.108C230.142 142.333 229.837 142.459 229.519 142.459Z" fill="#F2F2F2"/>
<path d="M300.408 323.582H201.57C201.252 323.582 200.947 323.456 200.722 323.231C200.497 323.006 200.371 322.701 200.371 322.383C200.371 322.065 200.497 321.76 200.722 321.535C200.947 321.31 201.252 321.183 201.57 321.183H300.408C300.726 321.183 301.032 321.31 301.256 321.535C301.481 321.76 301.608 322.065 301.608 322.383C301.608 322.701 301.481 323.006 301.256 323.231C301.032 323.456 300.726 323.582 300.408 323.582Z" fill="#F2F2F2"/>
<path d="M299.929 349.971H201.091C200.773 349.971 200.467 349.845 200.242 349.62C200.018 349.395 199.891 349.09 199.891 348.772C199.891 348.453 200.018 348.148 200.242 347.923C200.467 347.698 200.773 347.572 201.091 347.572H299.929C300.247 347.572 300.552 347.698 300.777 347.923C301.002 348.148 301.128 348.453 301.128 348.772C301.128 349.09 301.002 349.395 300.777 349.62C300.552 349.845 300.247 349.971 299.929 349.971Z" fill="#F2F2F2"/>
<path d="M300.168 363.165H201.331C201.173 363.166 201.017 363.135 200.871 363.075C200.725 363.015 200.592 362.926 200.481 362.815C200.369 362.704 200.28 362.571 200.22 362.426C200.16 362.28 200.128 362.124 200.128 361.966C200.128 361.808 200.16 361.652 200.22 361.506C200.28 361.361 200.369 361.228 200.481 361.117C200.592 361.005 200.725 360.917 200.871 360.857C201.017 360.797 201.173 360.766 201.331 360.766H300.168C300.326 360.766 300.482 360.797 300.628 360.857C300.774 360.917 300.907 361.005 301.018 361.117C301.13 361.228 301.219 361.361 301.279 361.506C301.339 361.652 301.371 361.808 301.371 361.966C301.371 362.124 301.339 362.28 301.279 362.426C301.219 362.571 301.13 362.704 301.018 362.815C300.907 362.926 300.774 363.015 300.628 363.075C300.482 363.135 300.326 363.166 300.168 363.165Z" fill="#F2F2F2"/>
<path d="M342.39 350.211H314.083C313.764 350.211 313.459 350.085 313.234 349.86C313.009 349.635 312.883 349.33 312.883 349.012C312.883 348.693 313.009 348.388 313.234 348.163C313.459 347.938 313.764 347.812 314.083 347.812H342.39C342.709 347.812 343.014 347.938 343.239 348.163C343.464 348.388 343.59 348.693 343.59 349.012C343.59 349.33 343.464 349.635 343.239 349.86C343.014 350.085 342.709 350.211 342.39 350.211Z" fill="#F2F2F2"/>
<path d="M342.39 363.165H314.083C313.764 363.165 313.459 363.039 313.234 362.814C313.009 362.589 312.883 362.284 312.883 361.966C312.883 361.648 313.009 361.343 313.234 361.118C313.459 360.893 313.764 360.766 314.083 360.766H342.39C342.709 360.766 343.014 360.893 343.239 361.118C343.464 361.343 343.59 361.648 343.59 361.966C343.59 362.284 343.464 362.589 343.239 362.814C343.014 363.039 342.709 363.165 342.39 363.165Z" fill="#F2F2F2"/>
<path d="M389.89 350.211H361.582C361.264 350.211 360.959 350.085 360.734 349.86C360.509 349.635 360.383 349.33 360.383 349.012C360.383 348.693 360.509 348.388 360.734 348.163C360.959 347.938 361.264 347.812 361.582 347.812H389.89C390.208 347.812 390.513 347.938 390.738 348.163C390.963 348.388 391.09 348.693 391.09 349.012C391.09 349.33 390.963 349.635 390.738 349.86C390.513 350.085 390.208 350.211 389.89 350.211Z" fill="#F2F2F2"/>
<path d="M408.602 336.777H253.148C252.83 336.777 252.525 336.65 252.3 336.425C252.075 336.2 251.949 335.895 251.949 335.577C251.949 335.259 252.075 334.954 252.3 334.729C252.525 334.504 252.83 334.378 253.148 334.378H408.602C408.92 334.378 409.225 334.504 409.45 334.729C409.675 334.954 409.802 335.259 409.802 335.577C409.802 335.895 409.675 336.2 409.45 336.425C409.225 336.65 408.92 336.777 408.602 336.777Z" fill="#F2F2F2"/>
<path d="M229.638 336.777H201.331C201.012 336.777 200.707 336.65 200.482 336.425C200.257 336.2 200.131 335.895 200.131 335.577C200.131 335.259 200.257 334.954 200.482 334.729C200.707 334.504 201.012 334.378 201.331 334.378H229.638C229.957 334.378 230.262 334.504 230.487 334.729C230.712 334.954 230.838 335.259 230.838 335.577C230.838 335.895 230.712 336.2 230.487 336.425C230.262 336.65 229.957 336.777 229.638 336.777Z" fill="#F2F2F2"/>
<path d="M408.602 376.6H253.148C252.991 376.6 252.835 376.569 252.689 376.509C252.543 376.449 252.41 376.361 252.299 376.249C252.187 376.138 252.098 376.006 252.038 375.86C251.978 375.714 251.946 375.558 251.946 375.4C251.946 375.243 251.978 375.086 252.038 374.941C252.098 374.795 252.187 374.663 252.299 374.551C252.41 374.44 252.543 374.351 252.689 374.291C252.835 374.231 252.991 374.2 253.148 374.201H408.602C408.92 374.201 409.225 374.327 409.45 374.552C409.675 374.777 409.802 375.082 409.802 375.4C409.802 375.718 409.675 376.023 409.45 376.248C409.225 376.473 408.92 376.6 408.602 376.6Z" fill="#F2F2F2"/>
<path d="M229.638 376.6H201.331C201.173 376.6 201.017 376.569 200.871 376.509C200.725 376.449 200.592 376.361 200.481 376.249C200.369 376.138 200.28 376.006 200.22 375.86C200.16 375.714 200.128 375.558 200.128 375.4C200.128 375.243 200.16 375.086 200.22 374.941C200.28 374.795 200.369 374.663 200.481 374.551C200.592 374.44 200.725 374.351 200.871 374.291C201.017 374.231 201.173 374.2 201.331 374.201H229.638C229.796 374.2 229.952 374.231 230.098 374.291C230.244 374.351 230.377 374.44 230.488 374.551C230.6 374.663 230.688 374.795 230.749 374.941C230.809 375.086 230.84 375.243 230.84 375.4C230.84 375.558 230.809 375.714 230.749 375.86C230.688 376.006 230.6 376.138 230.488 376.249C230.377 376.361 230.244 376.449 230.098 376.509C229.952 376.569 229.796 376.6 229.638 376.6Z" fill="#F2F2F2"/>
<path d="M276.539 213.709L238.155 251.613L276.539 289.517L285.175 280.881L256.147 251.853L285.414 222.585L276.539 213.709Z" fill="#00D1FF"/>
<path d="M333.154 213.709L371.538 251.613L333.154 289.517L324.518 280.881L353.546 251.853L324.278 222.585L333.154 213.709Z" fill="#00D1FF"/>
<path d="M115.181 99.0949C117.829 99.0949 119.976 96.9481 119.976 94.2999C119.976 91.6518 117.829 89.505 115.181 89.505C112.533 89.505 110.386 91.6518 110.386 94.2999C110.386 96.9481 112.533 99.0949 115.181 99.0949Z" fill="#00D1FF"/>
<path d="M127.967 99.0949C130.616 99.0949 132.762 96.9481 132.762 94.2999C132.762 91.6518 130.616 89.505 127.967 89.505C125.319 89.505 123.173 91.6518 123.173 94.2999C123.173 96.9481 125.319 99.0949 127.967 99.0949Z" fill="#00D1FF"/>
<path d="M140.754 99.0949C143.402 99.0949 145.549 96.9481 145.549 94.2999C145.549 91.6518 143.402 89.505 140.754 89.505C138.106 89.505 135.959 91.6518 135.959 94.2999C135.959 96.9481 138.106 99.0949 140.754 99.0949Z" fill="#00D1FF"/>
<path opacity="0.1" d="M505.167 102.291H104.526V103.89H505.167V102.291Z" fill="black"/>
<path d="M600 323.632C600 357.607 579.802 369.47 554.887 369.47C529.972 369.47 509.774 357.607 509.774 323.632C509.774 289.657 554.887 246.435 554.887 246.435C554.887 246.435 600 289.657 600 323.632Z" fill="#F2F2F2"/>
<path d="M553.244 364.273L553.706 335.838L572.934 300.661L553.778 331.378L553.986 318.593L567.238 293.143L554.041 315.21L554.414 292.215L568.605 271.953L554.473 288.599L554.706 246.435L553.24 302.253L553.36 299.95L538.933 277.866L553.129 304.37L551.785 330.051L551.745 329.369L535.112 306.13L551.694 331.778L551.526 334.989L551.496 335.038L551.51 335.301L548.099 400.457H552.656L553.202 366.803L569.744 341.217L553.244 364.273Z" fill="#3F3D56"/>
<path d="M65.3289 400.158C63.9447 400.928 62.4846 401.553 60.9719 402.024C58.266 402.763 55.374 402.492 52.6409 403.123C51.5219 403.381 50.304 403.921 49.9481 405.013C49.6871 405.814 49.9711 406.679 50.243 407.476C53.263 416.331 55.0833 425.732 59.8995 433.753C61.9236 437.121 64.4359 440.171 67.3544 442.803C68.4493 443.79 69.6901 444.755 71.1559 444.91C71.8314 444.981 72.5138 444.873 73.1342 444.597C73.7546 444.32 74.291 443.885 74.6894 443.334C75.0877 442.784 75.3338 442.138 75.4028 441.463C75.4719 440.787 75.3615 440.105 75.0827 439.485C74.6509 438.526 73.8481 437.783 73.3304 436.867C72.769 435.7 72.4398 434.435 72.3611 433.142C71.8852 429.355 71.4268 425.397 72.739 421.813C73.6191 419.409 75.2335 417.359 76.5784 415.181C77.9233 413.003 79.0407 410.508 78.7414 407.965C78.5372 406.23 77.6908 404.643 76.7968 403.142C75.901 401.638 74.1304 397.596 72.3307 397.095C70.4624 396.574 66.9582 399.323 65.3289 400.158Z" fill="#2F2E41"/>
<path d="M114.575 430.743C114.603 431.6 114.484 432.455 114.222 433.271C113.659 434.759 112.261 435.778 111.539 437.196C110.534 439.168 110.99 441.551 111.655 443.661C112.072 444.984 112.619 446.36 113.739 447.179C114.697 447.772 115.787 448.121 116.911 448.195C126.521 449.525 136.282 448.762 145.979 449.04C147.746 449.091 149.617 449.153 151.16 448.289C152.703 447.425 153.656 445.254 152.607 443.831C151.665 442.553 149.802 442.565 148.216 442.49C144.086 442.28 140.153 440.66 137.074 437.9C136.467 437.381 135.94 436.775 135.511 436.101C135.182 435.503 134.908 434.876 134.694 434.227C133.335 430.545 131.717 426.963 129.855 423.509C129.333 422.542 128.743 421.535 127.774 421.017C127.064 420.695 126.294 420.527 125.515 420.524C123.098 420.367 116.84 419.545 114.971 421.424C113.244 423.161 114.614 428.537 114.575 430.743Z" fill="#2F2E41"/>
<path d="M129.447 216.141C137.973 216.141 144.884 209.23 144.884 200.705C144.884 192.179 137.973 185.268 129.447 185.268C120.921 185.268 114.01 192.179 114.01 200.705C114.01 209.23 120.921 216.141 129.447 216.141Z" fill="#FBBEBE"/>
<path d="M115.507 213.451C114.589 215.909 113.032 218.218 110.765 219.541L132.116 223.896C131.341 220.78 131.239 217.535 131.817 214.376C132.028 213.611 132.072 212.81 131.944 212.027C131.543 210.478 129.799 209.732 128.239 209.377C124.342 208.488 120.896 208.012 117.275 206.291C116.168 208.186 116.323 211.267 115.507 213.451Z" fill="#FBBEBE"/>
<path d="M110.587 213.761C112.884 212.722 115.386 212.216 117.906 212.282C120.427 212.348 122.899 212.983 125.139 214.141C127.876 215.584 130.142 217.761 132.369 219.909C134.422 221.889 136.611 224.157 136.757 227.005C136.827 228.385 136.397 229.734 136.179 231.099C135.788 233.92 136.285 236.794 137.601 239.321C138.916 241.847 140.985 243.902 143.521 245.201C145.217 248.026 145.567 251.449 145.593 254.745C145.692 267.231 141.752 279.87 144.565 292.036C145.225 294.892 146.249 297.659 146.819 300.534C147.558 304.259 147.522 308.089 147.908 311.866C148.328 315.957 149.242 319.981 150.632 323.851C149.703 325.329 147.77 325.895 146.028 325.776C144.287 325.656 142.658 324.9 141.104 324.105C133.58 320.255 126.688 315.177 118.895 311.905C113.739 309.74 108.246 308.391 103.244 305.891C98.2425 303.39 93.5906 299.422 92.0613 294.043C91.4 291.717 91.3593 289.267 91.3232 286.849C91.1711 276.666 91.0299 266.372 93.2464 256.432C95.2012 247.666 98.9691 239.28 99.7912 230.336C100.059 227.425 100.064 224.308 101.691 221.879C103.99 218.446 108.954 217.557 110.587 213.761Z" fill="#2F2E41"/>
<path d="M120.667 200.922C121.577 199.736 123.331 199.574 124.785 199.925C126.238 200.276 127.578 201.025 129.045 201.31C129.379 201.404 129.729 201.428 130.072 201.38C130.415 201.332 130.745 201.213 131.04 201.03C131.553 200.524 131.859 199.846 131.9 199.127C132.414 196.069 132.535 192.957 132.258 189.868C132.181 189.434 132.21 188.989 132.342 188.569C132.706 187.694 133.814 187.485 134.72 187.204C136.213 186.699 137.496 185.711 138.366 184.396C139.235 183.081 139.642 181.513 139.521 179.941C139.499 179.187 139.182 178.472 138.639 177.948C138.013 177.438 137.136 177.407 136.329 177.4C132.179 177.367 128.029 177.368 123.88 177.403C122.344 177.416 120.731 177.454 119.399 178.22C118.415 178.786 117.683 179.697 116.799 180.41C114.494 182.27 111.377 182.649 108.573 183.602C107.204 183.992 105.961 184.733 104.967 185.752C104.035 186.817 103.586 188.401 104.172 189.69C104.473 190.228 104.808 190.745 105.177 191.238C106.831 193.882 105.73 197.313 105.977 200.422C106.286 204.305 112.032 210.604 115.929 211.523C122.219 213.007 118.585 203.471 120.667 200.922Z" fill="#2F2E41"/>
<path d="M111.953 371.17C112.35 374.005 112.859 376.85 112.723 379.71C112.533 383.702 111.093 387.549 110.827 391.537C110.628 394.516 111.088 397.527 110.674 400.483C110.409 402.376 109.792 404.201 109.41 406.074C108.805 409.126 108.822 412.269 109.46 415.314C110.098 418.359 111.345 421.245 113.125 423.797C113.386 424.233 113.758 424.594 114.203 424.841C114.629 424.999 115.086 425.06 115.539 425.018C120.032 424.927 124.513 424.52 128.949 423.799C129.274 423.786 129.581 423.65 129.81 423.42C129.91 423.267 129.974 423.093 129.997 422.911C130.819 418.683 128.944 414.444 128.467 410.163C127.958 405.592 129.054 401.012 130.143 396.543C130.637 394.339 131.253 392.164 131.99 390.028C132.517 388.591 133.152 387.194 133.608 385.733C134.254 383.438 134.647 381.079 134.781 378.699C135.098 374.943 135.266 371.178 135.285 367.405C135.392 363.829 135.095 360.253 134.397 356.744C133.397 352.302 131.348 348.177 129.317 344.101C128.231 344.362 127.212 344.846 126.324 345.524C123.707 347.219 120.974 348.729 118.146 350.042C116.246 350.925 112.54 351.552 111.334 353.391C110.145 355.205 110.912 358.905 111.003 360.906C111.159 364.34 111.476 367.761 111.953 371.17Z" fill="#2F2E41"/>
<path opacity="0.1" d="M111.953 371.17C112.35 374.005 112.859 376.85 112.723 379.71C112.533 383.702 111.093 387.549 110.827 391.537C110.628 394.516 111.088 397.527 110.674 400.483C110.409 402.376 109.792 404.201 109.41 406.074C108.805 409.126 108.822 412.269 109.46 415.314C110.098 418.359 111.345 421.245 113.125 423.797C113.386 424.233 113.758 424.594 114.203 424.841C114.629 424.999 115.086 425.06 115.539 425.018C120.032 424.927 124.513 424.52 128.949 423.799C129.274 423.786 129.581 423.65 129.81 423.42C129.91 423.267 129.974 423.093 129.997 422.911C130.819 418.683 128.944 414.444 128.467 410.163C127.958 405.592 129.054 401.012 130.143 396.543C130.637 394.339 131.253 392.164 131.99 390.028C132.517 388.591 133.152 387.194 133.608 385.733C134.254 383.438 134.647 381.079 134.781 378.699C135.098 374.943 135.266 371.178 135.285 367.405C135.392 363.829 135.095 360.253 134.397 356.744C133.397 352.302 131.348 348.177 129.317 344.101C128.231 344.362 127.212 344.846 126.324 345.524C123.707 347.219 120.974 348.729 118.146 350.042C116.246 350.925 112.54 351.552 111.334 353.391C110.145 355.205 110.912 358.905 111.003 360.906C111.159 364.34 111.476 367.761 111.953 371.17Z" fill="black"/>
<path d="M91.0826 310.613C89.0327 316.133 92.046 322.097 94.6639 327.37C101.114 340.362 105.592 354.226 110.047 368.029C110.381 369.063 110.714 370.192 110.342 371.212C110.021 371.938 109.5 372.556 108.839 372.996C105.767 375.329 101.856 376.159 98.1972 377.38C94.661 378.56 91.2742 380.148 88.1051 382.111C85.4537 383.754 82.9698 385.651 80.4909 387.544L72.5995 393.571C72.0886 393.916 71.6422 394.348 71.2805 394.848C70.5194 396.042 70.8311 397.601 71.2101 398.965C72.2136 402.578 73.5057 406.104 75.0738 409.51C75.3318 410.256 75.823 410.9 76.475 411.346C77.7067 412.008 79.2132 411.13 80.1538 410.095C81.0944 409.061 81.9079 407.773 83.2338 407.329C84.5581 406.885 86.0157 407.423 87.3988 407.228C89.6357 406.914 91.1208 404.854 92.7333 403.272C99.3211 396.809 110.32 397.277 117.567 391.563C118.614 390.626 119.723 389.759 120.887 388.97C122.112 388.246 123.501 387.848 124.772 387.208C128.638 385.261 131.069 381.236 132.371 377.108C133.673 372.98 134.044 368.622 134.98 364.396C135.463 362.211 136.1 360.05 136.315 357.823C136.453 355.751 136.408 353.671 136.18 351.607L133.565 319.26C133.352 316.626 133.139 313.99 132.726 311.38C124.96 311.658 117.199 311.97 109.429 312.062C103.246 312.135 96.9493 312.567 91.0826 310.613Z" fill="#2F2E41"/>
<path d="M88.2277 318.18C89.2812 319.875 91.8453 319.84 93.611 318.911C95.3766 317.982 96.7483 316.421 98.5181 315.5C100.896 314.263 103.711 314.309 106.39 314.385C110.633 314.505 114.928 314.632 119.01 315.795C123.232 316.998 127.342 319.313 131.708 318.851C132.468 318.771 133.298 318.553 133.712 317.911C133.954 317.445 134.068 316.924 134.042 316.4L134.185 312.586C134.272 311.926 134.167 311.255 133.881 310.654C133.515 310.154 133.012 309.77 132.434 309.546C126.22 306.538 119.134 305.978 112.234 305.742C108.727 305.622 105.218 305.572 101.708 305.594C98.7293 305.612 95.1533 305.181 92.2573 305.977C88.3707 307.045 86.2559 315.009 88.2277 318.18Z" fill="#2F2E41"/>
<path d="M127.246 218.289C119.104 218.217 111.726 212.842 103.585 212.712C102.601 212.644 101.616 212.814 100.712 213.207C99.5773 213.779 98.8314 214.884 97.9697 215.817C95.5625 218.424 92.0766 219.815 89.6036 222.36C87.2848 224.746 85.9953 228.3 86.9107 231.498C87.8262 234.697 91.2813 237.15 94.5181 236.381C95.8222 232.16 98.5137 228.503 102.156 226.003C104.052 224.788 106.049 223.739 108.126 222.87C111.785 221.212 115.877 219.522 119.697 220.765C121.106 221.297 122.434 222.021 123.644 222.918L130.013 227.196C129.271 224.269 128.603 220.986 127.246 218.289Z" fill="#00D1FF"/>
<path d="M93.5803 233.552C92.4992 234.9 94.0566 236.855 93.8182 238.567C93.6599 239.704 92.7238 240.573 92.3339 241.653C91.9301 242.772 92.1443 244.012 91.9911 245.191C91.8374 246.049 91.6102 246.892 91.3118 247.711C90.6259 250.157 90.1471 252.657 89.8806 255.184L88.4555 265.826C88.2082 267.428 88.0577 269.043 88.0048 270.662C88.0766 271.873 87.9957 273.088 87.7639 274.278C87.4483 275.441 86.7496 276.459 86.2795 277.568C85.8094 278.678 85.5916 280.02 86.2266 281.044C84.1001 282.815 83.4678 286.294 84.9547 288.628C85.2377 288.992 85.4591 289.4 85.6101 289.835C85.6922 290.444 85.5918 291.063 85.3214 291.615L83.8804 295.454C83.5116 296.437 83.3949 297.933 84.4204 298.157C83.571 299.04 82.9092 300.085 82.4751 301.23C82.2645 301.805 82.2016 302.423 82.2921 303.029C82.3826 303.634 82.6237 304.208 82.9932 304.696C83.3512 305.01 83.6561 305.38 83.8959 305.791C84.0369 306.365 84.0005 306.967 83.7916 307.519C83.5761 308.358 83.5346 309.231 83.6695 310.087C83.8045 310.942 84.1131 311.76 84.5763 312.492C85.0563 313.213 85.7361 313.779 86.5327 314.121C87.3292 314.462 88.2079 314.564 89.0614 314.414C91.944 313.764 94.5342 312.738 97.4406 313.271C103.698 314.419 109.976 315.573 116.037 317.508C122.955 319.716 129.653 322.955 136.882 323.635C137.358 323.732 137.853 323.655 138.277 323.418C138.645 323.069 138.874 322.598 138.921 322.093C139.666 318.6 140.411 315.108 141.156 311.616C142.056 307.745 142.742 303.827 143.21 299.88C143.464 297.333 143.536 294.771 143.609 292.212L144.185 271.844C144.454 268.842 144.054 265.818 143.013 262.99L139.7 252.415C137.81 246.381 133.473 241.029 131.929 234.897C130.952 231.016 130.23 226.851 127.61 223.825C123.874 219.513 117.41 218.842 111.752 219.583C109.197 219.918 106.619 220.496 104.408 221.822C101.852 223.355 99.9685 225.769 98.1466 228.128C96.645 230.072 95.1167 231.635 93.5803 233.552Z" fill="#00D1FF"/>
<path d="M106.79 293.461C107.256 295.471 108.235 297.324 108.834 299.299C109.838 302.606 109.753 306.169 110.755 309.477C111.176 310.866 111.785 312.199 112.087 313.618C112.791 316.927 111.763 320.35 110.487 323.483C109.21 326.616 107.656 329.705 107.241 333.062C106.95 335.427 107.369 338.097 109.192 339.631C111.084 341.225 113.834 341.117 116.298 340.905C117.183 340.88 118.056 340.698 118.877 340.368C120.762 339.476 121.556 337.246 121.996 335.208C123.473 328.378 123.051 321.299 122.622 314.325L121.5 296.086C121.284 292.575 121.053 288.991 119.97 285.619C119.577 284.393 118.891 281.914 117.771 281.131C116.661 280.356 113.493 280.321 112.119 280.257C105.673 279.954 105.746 288.95 106.79 293.461Z" fill="#FBBEBE"/>
<path d="M113.931 226.119C112.615 225.43 110.957 225.727 109.684 226.495C108.456 227.336 107.38 228.381 106.503 229.584C103.658 233.056 100.647 237.04 101.069 241.508C101.227 243.183 101.869 244.769 102.304 246.395C104.211 253.523 102.102 261.062 102.344 268.437C102.484 272.698 103.411 276.89 104.334 281.053C104.523 281.902 104.825 282.885 105.647 283.172C106.264 283.386 106.931 283.11 107.542 282.878C109.818 282.037 112.263 281.756 114.671 282.059C117.079 282.363 119.378 283.242 121.374 284.621C122.9 283.807 122.328 281.231 121.986 279.536C120.969 274.497 122.35 269.299 124.026 264.439C125.702 259.58 127.708 254.727 127.985 249.594C128.3 243.778 126.372 238.102 124.469 232.597C124.054 231.396 123.6 230.136 122.637 229.306C121.813 228.693 120.868 228.261 119.865 228.039C117.844 227.442 115.798 227.097 113.931 226.119Z" fill="#2F2E41"/>
</g>
<defs>
<clipPath id="clip0">
<rect width="600" height="455.517" fill="white"/>
</clipPath>
</defs>
</svg>
