<svg width="500" height="339" viewBox="0 0 500 339" fill="none" xmlns="http://www.w3.org/2000/svg">
<g clip-path="url(#clip0)">
<path opacity="0.4" d="M338.808 210.441C359.435 210.441 376.157 193.719 376.157 173.092C376.157 152.464 359.435 135.742 338.808 135.742C318.181 135.742 301.459 152.464 301.459 173.092C301.459 193.719 318.181 210.441 338.808 210.441Z" fill="#00D1FF"/>
<path d="M339.661 224.771H131.387V281.219H339.661V224.771Z" fill="#3F3D56"/>
<path d="M326.321 84.9181L318.005 88.854L325.365 83.3504C324.169 81.4832 322.825 79.7148 321.346 78.0622L285.279 87.0267L317.858 74.5992C316.369 73.2857 314.788 72.0806 313.127 70.9933L258.17 79.8454C252.335 87.1422 249.154 96.2059 249.149 105.549H331.875C331.872 98.303 329.956 91.1863 326.321 84.9181Z" fill="#F2F2F2"/>
<path d="M332.908 24.4261C299.85 8.30267 263.545 -0.0520801 226.765 -2.16579e-06C151.908 -2.16579e-06 84.9826 33.9431 40.5304 87.2747C116.651 70.596 249.182 41.7243 332.908 24.4261Z" fill="#F2F2F2"/>
<path d="M496.352 337.667H0V338.64H496.352V337.667Z" fill="#2F2E41"/>
<path d="M289.96 105.549L261.802 63.7235C261.802 63.7235 304.445 78.6105 299.605 105.549H289.96Z" fill="#3F3D56"/>
<path d="M291.065 105.549L319.223 63.7235C319.223 63.7235 276.58 78.6105 281.419 105.549H291.065Z" fill="#00D1FF"/>
<path d="M339.904 338.64H131.144V27.203H339.904V338.64ZM132.117 337.667H338.931V28.1762H132.117V337.667Z" fill="#2F2E41"/>
<path d="M339.661 34.5905H131.874V35.5637H339.661V34.5905Z" fill="#2F2E41"/>
<path d="M137.227 33.0424C138.302 33.0424 139.173 32.171 139.173 31.096C139.173 30.0209 138.302 29.1495 137.227 29.1495C136.152 29.1495 135.28 30.0209 135.28 31.096C135.28 32.171 136.152 33.0424 137.227 33.0424Z" fill="#00D1FF"/>
<path d="M142.58 33.0424C143.655 33.0424 144.526 32.171 144.526 31.096C144.526 30.0209 143.655 29.1495 142.58 29.1495C141.505 29.1495 140.633 30.0209 140.633 31.096C140.633 32.171 141.505 33.0424 142.58 33.0424Z" fill="#00D1FF"/>
<path d="M147.932 33.0424C149.007 33.0424 149.879 32.171 149.879 31.096C149.879 30.0209 149.007 29.1495 147.932 29.1495C146.857 29.1495 145.986 30.0209 145.986 31.096C145.986 32.171 146.857 33.0424 147.932 33.0424Z" fill="#00D1FF"/>
<path d="M147.932 41.315H139.173V46.1812H147.932V41.315Z" fill="#00D1FF"/>
<path d="M181.996 79.7579H139.173V84.6241H181.996V79.7579Z" fill="#00D1FF"/>
<path d="M291.485 46.1812L334.308 46.1812V41.315L291.485 41.315V46.1812Z" fill="#F2F2F2"/>
<path d="M211.193 88.0305H139.173V90.9502H211.193V88.0305Z" fill="#F2F2F2"/>
<path d="M207.3 94.3566H139.173V97.2763H207.3V94.3566Z" fill="#F2F2F2"/>
<path d="M188.809 100.683H139.173V103.602H188.809V100.683Z" fill="#F2F2F2"/>
<path d="M183.942 187.301H155.718V190.221H183.942V187.301Z" fill="#F2F2F2"/>
<path d="M182.417 193.627H155.718V196.547H182.417V193.627Z" fill="#F2F2F2"/>
<path d="M175.17 199.953H155.718V202.873H175.17V199.953Z" fill="#F2F2F2"/>
<path d="M249.636 187.301H221.412V190.221H249.636V187.301Z" fill="#F2F2F2"/>
<path d="M248.11 193.627H221.412V196.547H248.11V193.627Z" fill="#F2F2F2"/>
<path d="M240.864 199.953H221.412V202.873H240.864V199.953Z" fill="#F2F2F2"/>
<path d="M317.763 187.301H289.539V190.221H317.763V187.301Z" fill="#F2F2F2"/>
<path d="M316.237 193.627H289.539V196.547H316.237V193.627Z" fill="#F2F2F2"/>
<path d="M308.991 199.953H289.539V202.873H308.991V199.953Z" fill="#F2F2F2"/>
<path d="M242.337 297.764H199.514V302.63H242.337V297.764Z" fill="#00D1FF"/>
<path d="M271.534 306.036H199.514V308.956H271.534V306.036Z" fill="#F2F2F2"/>
<path d="M267.641 312.362H199.514V315.282H267.641V312.362Z" fill="#F2F2F2"/>
<path d="M249.149 318.688H199.514V321.608H249.149V318.688Z" fill="#F2F2F2"/>
<path opacity="0.3" d="M321.412 132.313H152.069V133.286H321.412V132.313Z" fill="#00D1FF"/>
<path opacity="0.3" d="M187.835 149.345H151.825V181.462H187.835V149.345Z" fill="#00D1FF"/>
<path d="M253.529 149.345H217.519V181.462H253.529V149.345Z" fill="#3F3D56"/>
<path d="M321.656 149.345H285.646V181.462H321.656V149.345Z" fill="#3F3D56"/>
<path d="M230.832 181.326L230.357 181.317C230.368 180.791 230.664 168.392 235.546 164.965L235.819 165.354C231.134 168.642 230.835 181.2 230.832 181.326Z" fill="#00D1FF"/>
<path d="M238.057 164.808C239.369 164.808 240.433 163.745 240.433 162.433C240.433 161.121 239.369 160.057 238.057 160.057C236.746 160.057 235.682 161.121 235.682 162.433C235.682 163.745 236.746 164.808 238.057 164.808Z" fill="#00D1FF"/>
<path d="M237.577 170.82C236.342 171.208 235.026 171.265 233.761 170.985C234.564 169.963 235.646 169.194 236.875 168.773C238.104 168.351 239.43 168.294 240.691 168.608C239.865 169.605 238.791 170.368 237.577 170.82Z" fill="#00D1FF"/>
<path d="M298.959 181.326L298.484 181.317C298.494 180.791 298.791 168.392 303.673 164.965L303.945 165.354C299.261 168.642 298.962 181.2 298.959 181.326Z" fill="#00D1FF"/>
<path d="M306.184 164.808C307.496 164.808 308.56 163.745 308.56 162.433C308.56 161.121 307.496 160.057 306.184 160.057C304.872 160.057 303.809 161.121 303.809 162.433C303.809 163.745 304.872 164.808 306.184 164.808Z" fill="#00D1FF"/>
<path d="M305.704 170.82C304.468 171.208 303.153 171.265 301.888 170.985C302.691 169.963 303.772 169.194 305.002 168.773C306.231 168.351 307.556 168.294 308.818 168.608C307.991 169.605 306.918 170.368 305.704 170.82Z" fill="#00D1FF"/>
<path d="M181.996 242.776H139.173V247.642H181.996V242.776Z" fill="#00D1FF"/>
<path d="M211.193 251.048H139.173V253.968H211.193V251.048Z" fill="#F2F2F2"/>
<path d="M207.3 257.374H139.173V260.294H207.3V257.374Z" fill="#F2F2F2"/>
<path d="M188.809 263.7H139.173V266.62H188.809V263.7Z" fill="#F2F2F2"/>
<path opacity="0.4" d="M297.691 264.697C306.089 264.697 312.897 257.889 312.897 249.491C312.897 241.093 306.089 234.285 297.691 234.285C289.293 234.285 282.485 241.093 282.485 249.491C282.485 257.889 289.293 264.697 297.691 264.697Z" fill="#00D1FF"/>
<path opacity="0.4" d="M269.549 267.42C275.44 267.42 280.215 262.644 280.215 256.753C280.215 250.862 275.44 246.087 269.549 246.087C263.658 246.087 258.882 250.862 258.882 256.753C258.882 262.644 263.658 267.42 269.549 267.42Z" fill="#00D1FF"/>
<path d="M81.5088 321.851C102.74 321.851 119.952 304.64 119.952 283.408C119.952 262.177 102.74 244.965 81.5088 244.965C60.2774 244.965 43.0659 262.177 43.0659 283.408C43.0659 304.64 60.2774 321.851 81.5088 321.851Z" fill="#2F2E41"/>
<path d="M75.6694 313.579H63.9905V334.504H75.6694V313.579Z" fill="#2F2E41"/>
<path d="M99.0271 313.579H87.3483V334.504H99.0271V313.579Z" fill="#2F2E41"/>
<path d="M73.7229 338.396C79.098 338.396 83.4553 336.762 83.4553 334.747C83.4553 332.731 79.098 331.097 73.7229 331.097C68.3479 331.097 63.9905 332.731 63.9905 334.747C63.9905 336.762 68.3479 338.396 73.7229 338.396Z" fill="#2F2E41"/>
<path d="M97.0807 337.91C102.456 337.91 106.813 336.276 106.813 334.26C106.813 332.245 102.456 330.611 97.0807 330.611C91.7056 330.611 87.3483 332.245 87.3483 334.26C87.3483 336.276 91.7056 337.91 97.0807 337.91Z" fill="#2F2E41"/>
<path d="M82.4821 286.815C89.7384 286.815 95.6208 280.932 95.6208 273.676C95.6208 266.42 89.7384 260.537 82.4821 260.537C75.2257 260.537 69.3433 266.42 69.3433 273.676C69.3433 280.932 75.2257 286.815 82.4821 286.815Z" fill="white"/>
<path d="M82.4821 272.216C84.9009 272.216 86.8617 270.255 86.8617 267.837C86.8617 265.418 84.9009 263.457 82.4821 263.457C80.0633 263.457 78.1025 265.418 78.1025 267.837C78.1025 270.255 80.0633 272.216 82.4821 272.216Z" fill="#3F3D56"/>
<path d="M44.2179 247.658C41.1138 233.756 51.0363 219.709 66.3805 216.283C81.7247 212.857 96.6799 221.349 99.784 235.25C102.888 249.152 92.719 254.279 77.3748 257.705C62.0306 261.131 47.322 261.559 44.2179 247.658Z" fill="#00D1FF"/>
<path d="M116.07 243.413C120.543 233.786 121.719 224.843 118.697 223.439C115.675 222.034 109.598 228.7 105.125 238.327C100.651 247.955 99.475 256.897 102.497 258.302C105.519 259.706 111.596 253.04 116.07 243.413Z" fill="#2F2E41"/>
<path d="M49.0297 269.537C51.9751 267.978 50.3368 259.108 45.3705 249.726C40.4042 240.344 33.9904 234.002 31.045 235.561C28.0996 237.12 29.7379 245.99 34.7042 255.372C39.6705 264.754 46.0842 271.096 49.0297 269.537Z" fill="#2F2E41"/>
<path d="M405.943 272.755C409.052 271.556 408.478 262.555 404.66 252.649C400.842 242.744 395.227 235.686 392.117 236.884C389.007 238.083 389.582 247.084 393.399 256.99C397.217 266.895 402.833 273.954 405.943 272.755Z" fill="#2F2E41"/>
<path d="M434.644 322.193C455.875 322.193 473.087 304.981 473.087 283.75C473.087 262.519 455.875 245.307 434.644 245.307C413.412 245.307 396.201 262.519 396.201 283.75C396.201 304.981 413.412 322.193 434.644 322.193Z" fill="#2F2E41"/>
<path d="M440.625 334.827L452.304 334.794L452.245 313.869L440.566 313.902L440.625 334.827Z" fill="#2F2E41"/>
<path d="M417.269 334.894L428.948 334.861L428.889 313.937L417.21 313.969L417.269 334.894Z" fill="#2F2E41"/>
<path d="M442.584 338.716C447.959 338.701 452.312 337.055 452.306 335.039C452.3 333.023 447.938 331.402 442.563 331.417C437.188 331.432 432.836 333.078 432.841 335.094C432.847 337.109 437.209 338.731 442.584 338.716Z" fill="#2F2E41"/>
<path d="M419.225 338.295C424.6 338.28 428.953 336.633 428.947 334.618C428.941 332.602 424.579 330.98 419.204 330.996C413.829 331.011 409.477 332.657 409.482 334.672C409.488 336.688 413.85 338.31 419.225 338.295Z" fill="#2F2E41"/>
<path d="M433.643 287.159C440.9 287.159 446.782 281.277 446.782 274.02C446.782 266.764 440.9 260.882 433.643 260.882C426.387 260.882 420.505 266.764 420.505 274.02C420.505 281.277 426.387 287.159 433.643 287.159Z" fill="white"/>
<path d="M433.643 278.4C436.062 278.4 438.023 276.439 438.023 274.02C438.023 271.602 436.062 269.641 433.643 269.641C431.225 269.641 429.264 271.602 429.264 274.02C429.264 276.439 431.225 278.4 433.643 278.4Z" fill="#3F3D56"/>
<path d="M471.835 247.895C474.9 233.985 464.938 219.965 449.584 216.582C434.23 213.199 419.299 221.733 416.234 235.643C413.169 249.553 423.352 254.652 438.706 258.035C454.06 261.418 468.769 261.805 471.835 247.895Z" fill="#00D1FF"/>
<path d="M480.494 271.236C490.073 266.66 496.674 260.512 495.237 257.505C493.801 254.498 484.871 255.77 475.292 260.346C465.713 264.922 459.113 271.069 460.549 274.077C461.986 277.084 470.916 275.812 480.494 271.236Z" fill="#2F2E41"/>
<path d="M453.566 297.566C453.576 301.328 443.909 308.785 433.159 308.815C422.409 308.845 412.3 298.281 412.289 294.518C412.279 290.756 422.371 295.22 433.121 295.19C443.871 295.16 453.555 293.803 453.566 297.566Z" fill="white"/>
<path opacity="0.4" d="M446.351 281.728C475.981 281.728 500 257.709 500 228.08C500 198.45 475.981 174.431 446.351 174.431C416.722 174.431 392.702 198.45 392.702 228.08C392.702 257.709 416.722 281.728 446.351 281.728Z" fill="#00D1FF"/>
<path d="M92.6548 208.074C113.886 208.074 131.098 190.862 131.098 169.631C131.098 148.399 113.886 131.188 92.6548 131.188C71.4233 131.188 54.2118 148.399 54.2118 169.631C54.2118 190.862 71.4233 208.074 92.6548 208.074Z" fill="#2F2E41"/>
<path d="M81.5344 198.279L70.0423 196.198L66.3149 216.788L77.807 218.869L81.5344 198.279Z" fill="#2F2E41"/>
<path d="M104.519 202.439L93.0265 200.359L89.2991 220.949L100.791 223.029L104.519 202.439Z" fill="#2F2E41"/>
<path d="M104.476 230.867C105.779 229.329 103.51 225.266 99.4079 221.792C95.3062 218.319 90.925 216.75 89.6224 218.288C88.3197 219.826 90.5889 223.889 94.6906 227.363C98.7923 230.836 103.173 232.405 104.476 230.867Z" fill="#2F2E41"/>
<path d="M81.9708 226.793C83.2734 225.255 81.0043 221.192 76.9026 217.718C72.8008 214.244 68.4197 212.675 67.117 214.214C65.8144 215.752 68.0835 219.815 72.1852 223.288C76.287 226.762 80.6681 228.331 81.9708 226.793Z" fill="#2F2E41"/>
<path d="M95.3461 173.366C102.602 173.366 108.485 167.484 108.485 160.228C108.485 152.971 102.602 147.089 95.3461 147.089C88.0898 147.089 82.2074 152.971 82.2074 160.228C82.2074 167.484 88.0898 173.366 95.3461 173.366Z" fill="white"/>
<path d="M100.746 159.898C103.165 159.898 105.126 157.937 105.126 155.518C105.126 153.099 103.165 151.138 100.746 151.138C98.3274 151.138 96.3665 153.099 96.3665 155.518C96.3665 157.937 98.3274 159.898 100.746 159.898Z" fill="#3F3D56"/>
<path d="M62.3287 127.809C61.7506 113.577 74.0167 101.522 89.7257 100.884C105.435 100.246 118.638 111.266 119.216 125.498C119.794 139.73 108.875 142.964 93.1655 143.602C77.4565 144.24 62.9068 142.041 62.3287 127.809Z" fill="#00D1FF"/>
<path d="M129.5 168.509C139.847 166.137 147.632 161.581 146.887 158.333C146.143 155.084 137.151 154.374 126.803 156.746C116.456 159.117 108.671 163.673 109.416 166.922C110.161 170.17 119.152 170.881 129.5 168.509Z" fill="#2F2E41"/>
<path d="M54.0376 181.058C64.385 178.686 72.1696 174.13 71.425 170.882C70.6805 167.634 61.6886 166.923 51.3413 169.295C40.9939 171.667 33.2093 176.223 33.9538 179.471C34.6984 182.719 43.6902 183.43 54.0376 181.058Z" fill="#2F2E41"/>
<path d="M82.0964 184.781C81.6826 187.067 82.1938 189.423 83.5176 191.332C84.8414 193.241 86.8693 194.546 89.1552 194.96C91.4411 195.374 93.7978 194.863 95.7068 193.539C97.6158 192.215 98.9207 190.187 99.3346 187.901C100.196 183.141 96.5159 181.457 91.7557 180.595C86.9955 179.733 82.9582 180.021 82.0964 184.781Z" fill="white"/>
<path d="M183.173 138.403L148.68 128.062L139.456 158.826L173.95 169.167L183.173 138.403Z" fill="#3F3D56"/>
<path d="M152.248 162.52L151.795 162.375C151.956 161.874 155.801 150.082 161.461 148.201L161.611 148.652C156.179 150.457 152.286 162.4 152.248 162.52Z" fill="#00D1FF"/>
<path d="M164.594 148.872C165.906 148.872 166.97 147.809 166.97 146.497C166.97 145.185 165.906 144.122 164.594 144.122C163.282 144.122 162.219 145.185 162.219 146.497C162.219 147.809 163.282 148.872 164.594 148.872Z" fill="#00D1FF"/>
<path d="M161.726 154.393C160.431 154.41 159.154 154.087 158.023 153.455C159.086 152.706 160.342 152.281 161.641 152.23C162.94 152.179 164.225 152.505 165.343 153.168C164.265 153.886 163.018 154.309 161.726 154.393Z" fill="#00D1FF"/>
</g>
<defs>
<clipPath id="clip0">
<rect width="500" height="338.716" fill="white"/>
</clipPath>
</defs>
</svg>
