<svg width="250" height="135" viewBox="0 0 250 135" fill="none" xmlns="http://www.w3.org/2000/svg">
<g clip-path="url(#clip0)">
<path opacity="0.1" d="M250 86.5887C250.003 90.2534 249.499 93.901 248.503 97.4278C247.54 100.828 246.124 104.083 244.292 107.104C244.292 118.053 236.901 127.515 226.173 132.017C221.691 133.879 216.882 134.83 212.028 134.814H47.4584C38.6625 134.814 30.5113 132.441 23.8264 128.398C21.9133 127.246 20.0984 125.939 18.4003 124.489C10.9702 118.103 6.36358 109.279 6.36358 99.5323C2.1936 93.1111 -0.0175205 85.6152 -4.98534e-05 77.9588C-4.98534e-05 61.9274 9.48203 48.1424 23.0659 42.0563C24.8697 41.2485 26.7336 40.5822 28.6407 40.0633C29.3152 39.8797 29.997 39.7151 30.6861 39.5694C32.5231 39.1782 34.3864 38.9226 36.2609 38.8046C36.9383 38.7623 37.6194 38.7383 38.3041 38.7324H38.68C39.4361 38.7324 40.1857 38.7587 40.9309 38.8024L41.1756 38.3872C41.4758 37.886 41.7832 37.3899 42.0978 36.899C42.666 36.0044 43.2619 35.123 43.8854 34.2547C44.5381 33.3384 45.2192 32.4366 45.9287 31.5493L46.1101 31.3308C46.5122 30.8296 46.923 30.3343 47.3426 29.8448C48.6538 28.3165 50.0378 26.8341 51.4947 25.3977C67.253 9.95185 91.9405 0.00866699 119.694 0.00866699C141.289 0.00866699 161.029 6.02921 176.149 15.9768C181.877 12.7352 188.348 11.0343 194.93 11.0401C216.289 11.0401 233.61 28.6035 233.61 50.2687C233.607 51.6395 233.534 53.0093 233.391 54.3727C238.54 58.0174 242.737 62.8469 245.627 68.4538C248.518 74.0607 250.018 80.2805 250 86.5887Z" fill="#3F3D56"/>
<path opacity="0.2" d="M51.4991 25.3892V29.8363H47.347C48.648 28.3095 50.0321 26.8271 51.4991 25.3892Z" fill="#3F3D56"/>
<path opacity="0.2" d="M59.1193 24.2614H53.5446V29.8361H59.1193V24.2614Z" fill="#3F3D56"/>
<path opacity="0.2" d="M66.7373 24.2614H61.1626V29.8361H66.7373V24.2614Z" fill="#3F3D56"/>
<path opacity="0.2" d="M74.3575 24.2614H68.7828V29.8361H74.3575V24.2614Z" fill="#3F3D56"/>
<path opacity="0.2" d="M81.9755 24.2614H76.4008V29.8361H81.9755V24.2614Z" fill="#3F3D56"/>
<path opacity="0.2" d="M89.5957 24.2614H84.021V29.8361H89.5957V24.2614Z" fill="#3F3D56"/>
<path d="M97.2159 24.2614H91.6412V29.8361H97.2159V24.2614Z" fill="#3F3D56"/>
<path opacity="0.2" d="M104.834 24.2614H99.2592V29.8361H104.834V24.2614Z" fill="#3F3D56"/>
<path opacity="0.2" d="M112.454 24.2614H106.879V29.8361H112.454V24.2614Z" fill="#3F3D56"/>
<path opacity="0.2" d="M120.072 24.2614H114.497V29.8361H120.072V24.2614Z" fill="#3F3D56"/>
<path d="M127.692 24.2614H122.118V29.8361H127.692V24.2614Z" fill="#3F3D56"/>
<path opacity="0.2" d="M135.313 24.2614H129.738V29.8361H135.313V24.2614Z" fill="#3F3D56"/>
<path opacity="0.2" d="M142.93 24.2614H137.356V29.8361H142.93V24.2614Z" fill="#3F3D56"/>
<path opacity="0.2" d="M150.551 24.2614H144.976V29.8361H150.551V24.2614Z" fill="#3F3D56"/>
<path opacity="0.2" d="M158.171 24.2614H152.596V29.8361H158.171V24.2614Z" fill="#3F3D56"/>
<path opacity="0.2" d="M165.789 24.2614H160.214V29.8361H165.789V24.2614Z" fill="#3F3D56"/>
<path opacity="0.2" d="M173.409 24.2614H167.834V29.8361H173.409V24.2614Z" fill="#3F3D56"/>
<path d="M181.027 24.2614H175.452V29.8361H181.027V24.2614Z" fill="#3F3D56"/>
<path d="M188.647 24.2614H183.073V29.8361H188.647V24.2614Z" fill="#3F3D56"/>
<path opacity="0.2" d="M196.268 24.2614H190.693V29.8361H196.268V24.2614Z" fill="#3F3D56"/>
<path opacity="0.2" d="M203.885 24.2614H198.311V29.8361H203.885V24.2614Z" fill="#3F3D56"/>
<path d="M211.506 24.2614H205.931V29.8361H211.506V24.2614Z" fill="#3F3D56"/>
<path d="M219.124 24.2614H213.549V29.8361H219.124V24.2614Z" fill="#3F3D56"/>
<path d="M43.8811 34.2526V36.8968H42.0935C42.6617 35.9964 43.2576 35.115 43.8811 34.2526Z" fill="#3F3D56"/>
<path opacity="0.2" d="M51.4991 31.322H45.9244V36.8968H51.4991V31.322Z" fill="#3F3D56"/>
<path d="M59.1193 31.322H53.5446V36.8968H59.1193V31.322Z" fill="#3F3D56"/>
<path opacity="0.2" d="M66.7373 31.322H61.1626V36.8968H66.7373V31.322Z" fill="#3F3D56"/>
<path opacity="0.7" d="M74.3575 31.322H68.7828V36.8968H74.3575V31.322Z" fill="#3F3D56"/>
<path opacity="0.2" d="M81.9755 31.322H76.4008V36.8968H81.9755V31.322Z" fill="#3F3D56"/>
<path opacity="0.4" d="M89.5957 31.322H84.021V36.8968H89.5957V31.322Z" fill="#3F3D56"/>
<path d="M97.2159 31.322H91.6412V36.8968H97.2159V31.322Z" fill="#3F3D56"/>
<path opacity="0.4" d="M104.834 31.322H99.2592V36.8968H104.834V31.322Z" fill="#3F3D56"/>
<path opacity="0.2" d="M112.454 31.322H106.879V36.8968H112.454V31.322Z" fill="#3F3D56"/>
<path opacity="0.4" d="M120.072 31.322H114.497V36.8968H120.072V31.322Z" fill="#3F3D56"/>
<path d="M127.692 31.322H122.118V36.8968H127.692V31.322Z" fill="#3F3D56"/>
<path opacity="0.4" d="M135.313 31.322H129.738V36.8968H135.313V31.322Z" fill="#3F3D56"/>
<path opacity="0.4" d="M142.93 31.322H137.356V36.8968H142.93V31.322Z" fill="#3F3D56"/>
<path opacity="0.2" d="M150.551 31.322H144.976V36.8968H150.551V31.322Z" fill="#3F3D56"/>
<path opacity="0.4" d="M158.171 31.322H152.596V36.8968H158.171V31.322Z" fill="#3F3D56"/>
<path opacity="0.4" d="M165.789 31.322H160.214V36.8968H165.789V31.322Z" fill="#3F3D56"/>
<path opacity="0.2" d="M173.409 31.322H167.834V36.8968H173.409V31.322Z" fill="#3F3D56"/>
<path opacity="0.2" d="M181.027 31.322H175.452V36.8968H181.027V31.322Z" fill="#3F3D56"/>
<path opacity="0.4" d="M188.647 31.322H183.073V36.8968H188.647V31.322Z" fill="#3F3D56"/>
<path opacity="0.2" d="M196.268 31.322H190.693V36.8968H196.268V31.322Z" fill="#3F3D56"/>
<path d="M203.885 31.322H198.311V36.8968H203.885V31.322Z" fill="#3F3D56"/>
<path d="M211.506 31.322H205.931V36.8968H211.506V31.322Z" fill="#3F3D56"/>
<path d="M219.124 31.322H213.549V36.8968H219.124V31.322Z" fill="#3F3D56"/>
<path opacity="0.2" d="M28.6407 40.0634V43.9598H23.0659V42.0564C24.8697 41.2486 26.7336 40.5822 28.6407 40.0634Z" fill="#3F3D56"/>
<path opacity="0.2" d="M36.2609 38.8046V43.9597H30.6862V39.5694L36.2609 38.8046Z" fill="#3F3D56"/>
<path d="M43.8789 38.385H38.3042V43.9597H43.8789V38.385Z" fill="#3F3D56"/>
<path opacity="0.7" d="M51.4991 38.385H45.9244V43.9597H51.4991V38.385Z" fill="#3F3D56"/>
<path d="M59.1193 38.385H53.5446V43.9597H59.1193V38.385Z" fill="#3F3D56"/>
<path opacity="0.7" d="M66.7373 38.385H61.1626V43.9597H66.7373V38.385Z" fill="#3F3D56"/>
<path opacity="0.7" d="M74.3575 38.385H68.7828V43.9597H74.3575V38.385Z" fill="#3F3D56"/>
<path opacity="0.2" d="M81.9755 38.385H76.4008V43.9597H81.9755V38.385Z" fill="#3F3D56"/>
<path opacity="0.4" d="M89.5957 38.385H84.021V43.9597H89.5957V38.385Z" fill="#3F3D56"/>
<path opacity="0.4" d="M97.2159 38.385H91.6412V43.9597H97.2159V38.385Z" fill="#3F3D56"/>
<path d="M104.834 38.385H99.2592V43.9597H104.834V38.385Z" fill="#3F3D56"/>
<path opacity="0.2" d="M112.454 38.385H106.879V43.9597H112.454V38.385Z" fill="#3F3D56"/>
<path opacity="0.4" d="M120.072 38.385H114.497V43.9597H120.072V38.385Z" fill="#3F3D56"/>
<path d="M127.692 38.385H122.118V43.9597H127.692V38.385Z" fill="#3F3D56"/>
<path opacity="0.2" d="M135.313 38.385H129.738V43.9597H135.313V38.385Z" fill="#3F3D56"/>
<path opacity="0.4" d="M142.93 38.385H137.356V43.9597H142.93V38.385Z" fill="#3F3D56"/>
<path opacity="0.2" d="M150.551 38.385H144.976V43.9597H150.551V38.385Z" fill="#3F3D56"/>
<path d="M158.171 38.385H152.596V43.9597H158.171V38.385Z" fill="#3F3D56"/>
<path opacity="0.2" d="M165.789 38.385H160.214V43.9597H165.789V38.385Z" fill="#3F3D56"/>
<path opacity="0.7" d="M173.409 38.385H167.834V43.9597H173.409V38.385Z" fill="#3F3D56"/>
<path opacity="0.7" d="M181.027 38.385H175.452V43.9597H181.027V38.385Z" fill="#3F3D56"/>
<path opacity="0.4" d="M188.647 38.385H183.073V43.9597H188.647V38.385Z" fill="#3F3D56"/>
<path opacity="0.2" d="M196.268 38.385H190.693V43.9597H196.268V38.385Z" fill="#3F3D56"/>
<path d="M203.885 38.385H198.311V43.9597H203.885V38.385Z" fill="#3F3D56"/>
<path d="M211.506 38.385H205.931V43.9597H211.506V38.385Z" fill="#3F3D56"/>
<path d="M219.124 38.385H213.549V43.9597H219.124V38.385Z" fill="#3F3D56"/>
<path opacity="0.2" d="M28.6407 45.4459H23.0659V51.0207H28.6407V45.4459Z" fill="#3F3D56"/>
<path opacity="0.2" d="M36.2609 45.4459H30.6862V51.0207H36.2609V45.4459Z" fill="#3F3D56"/>
<path opacity="0.2" d="M43.8789 45.4459H38.3042V51.0207H43.8789V45.4459Z" fill="#3F3D56"/>
<path opacity="0.2" d="M51.4991 45.4459H45.9244V51.0207H51.4991V45.4459Z" fill="#3F3D56"/>
<path d="M59.1193 45.4459H53.5446V51.0207H59.1193V45.4459Z" fill="#3F3D56"/>
<path opacity="0.7" d="M66.7373 45.4459H61.1626V51.0207H66.7373V45.4459Z" fill="#3F3D56"/>
<path opacity="0.7" d="M74.3575 45.4459H68.7828V51.0207H74.3575V45.4459Z" fill="#3F3D56"/>
<path opacity="0.2" d="M81.9755 45.4459H76.4008V51.0207H81.9755V45.4459Z" fill="#3F3D56"/>
<path opacity="0.2" d="M89.5957 45.4459H84.021V51.0207H89.5957V45.4459Z" fill="#3F3D56"/>
<path opacity="0.4" d="M97.2159 45.4459H91.6412V51.0207H97.2159V45.4459Z" fill="#3F3D56"/>
<path opacity="0.4" d="M104.834 45.4459H99.2592V51.0207H104.834V45.4459Z" fill="#3F3D56"/>
<path d="M112.454 45.4459H106.879V51.0207H112.454V45.4459Z" fill="#3F3D56"/>
<path opacity="0.2" d="M120.072 45.4459H114.497V51.0207H120.072V45.4459Z" fill="#3F3D56"/>
<path opacity="0.4" d="M127.692 45.4459H122.118V51.0207H127.692V45.4459Z" fill="#3F3D56"/>
<path opacity="0.4" d="M135.313 45.4459H129.738V51.0207H135.313V45.4459Z" fill="#3F3D56"/>
<path opacity="0.4" d="M142.93 45.4459H137.356V51.0207H142.93V45.4459Z" fill="#3F3D56"/>
<path opacity="0.4" d="M150.551 45.4459H144.976V51.0207H150.551V45.4459Z" fill="#3F3D56"/>
<path opacity="0.2" d="M158.171 45.4459H152.596V51.0207H158.171V45.4459Z" fill="#3F3D56"/>
<path opacity="0.2" d="M165.789 45.4459H160.214V51.0207H165.789V45.4459Z" fill="#3F3D56"/>
<path opacity="0.2" d="M173.409 45.4459H167.834V51.0207H173.409V45.4459Z" fill="#3F3D56"/>
<path opacity="0.2" d="M181.027 45.4459H175.452V51.0207H181.027V45.4459Z" fill="#3F3D56"/>
<path opacity="0.7" d="M188.647 45.4459H183.073V51.0207H188.647V45.4459Z" fill="#3F3D56"/>
<path opacity="0.7" d="M196.268 45.4459H190.693V51.0207H196.268V45.4459Z" fill="#3F3D56"/>
<path opacity="0.4" d="M203.885 45.4459H198.311V51.0207H203.885V45.4459Z" fill="#3F3D56"/>
<path opacity="0.2" d="M211.506 45.4459H205.931V51.0207H211.506V45.4459Z" fill="#3F3D56"/>
<path d="M219.124 45.4459H213.549V51.0207H219.124V45.4459Z" fill="#3F3D56"/>
<path opacity="0.2" d="M28.6407 52.5088H23.0659V58.0835H28.6407V52.5088Z" fill="#3F3D56"/>
<path opacity="0.2" d="M36.2609 52.5088H30.6862V58.0835H36.2609V52.5088Z" fill="#3F3D56"/>
<path opacity="0.4" d="M43.8789 52.5088H38.3042V58.0835H43.8789V52.5088Z" fill="#3F3D56"/>
<path opacity="0.2" d="M51.4991 52.5088H45.9244V58.0835H51.4991V52.5088Z" fill="#3F3D56"/>
<path opacity="0.2" d="M59.1193 52.5088H53.5446V58.0835H59.1193V52.5088Z" fill="#3F3D56"/>
<path opacity="0.7" d="M66.7373 52.5088H61.1626V58.0835H66.7373V52.5088Z" fill="#3F3D56"/>
<path opacity="0.7" d="M74.3575 52.5088H68.7828V58.0835H74.3575V52.5088Z" fill="#3F3D56"/>
<path opacity="0.2" d="M81.9755 52.5088H76.4008V58.0835H81.9755V52.5088Z" fill="#3F3D56"/>
<path opacity="0.2" d="M89.5957 52.5088H84.021V58.0835H89.5957V52.5088Z" fill="#3F3D56"/>
<path opacity="0.4" d="M97.2159 52.5088H91.6412V58.0835H97.2159V52.5088Z" fill="#3F3D56"/>
<path d="M104.834 52.5088H99.2592V58.0835H104.834V52.5088Z" fill="#3F3D56"/>
<path opacity="0.2" d="M112.454 52.5088H106.879V58.0835H112.454V52.5088Z" fill="#3F3D56"/>
<path d="M120.072 52.5088H114.497V58.0835H120.072V52.5088Z" fill="#3F3D56"/>
<path d="M127.692 52.5088H122.118V58.0835H127.692V52.5088Z" fill="#3F3D56"/>
<path d="M135.313 52.5088H129.738V58.0835H135.313V52.5088Z" fill="#3F3D56"/>
<path opacity="0.2" d="M142.93 52.5088H137.356V58.0835H142.93V52.5088Z" fill="#3F3D56"/>
<path d="M150.551 52.5088H144.976V58.0835H150.551V52.5088Z" fill="#3F3D56"/>
<path opacity="0.2" d="M158.171 52.5088H152.596V58.0835H158.171V52.5088Z" fill="#3F3D56"/>
<path opacity="0.2" d="M165.789 52.5088H160.214V58.0835H165.789V52.5088Z" fill="#3F3D56"/>
<path opacity="0.2" d="M173.409 52.5088H167.834V58.0835H173.409V52.5088Z" fill="#3F3D56"/>
<path opacity="0.2" d="M181.027 52.5088H175.452V58.0835H181.027V52.5088Z" fill="#3F3D56"/>
<path opacity="0.2" d="M188.647 52.5088H183.073V58.0835H188.647V52.5088Z" fill="#3F3D56"/>
<path opacity="0.7" d="M196.268 52.5088H190.693V58.0835H196.268V52.5088Z" fill="#3F3D56"/>
<path opacity="0.2" d="M203.885 52.5088H198.311V58.0835H203.885V52.5088Z" fill="#3F3D56"/>
<path opacity="0.2" d="M211.506 52.5088H205.931V58.0835H211.506V52.5088Z" fill="#3F3D56"/>
<path d="M219.124 52.5088H213.549V58.0835H219.124V52.5088Z" fill="#3F3D56"/>
<path opacity="0.2" d="M28.6407 59.5695H23.0659V65.1442H28.6407V59.5695Z" fill="#3F3D56"/>
<path opacity="0.2" d="M36.2609 59.5695H30.6862V65.1442H36.2609V59.5695Z" fill="#3F3D56"/>
<path opacity="0.2" d="M43.8789 59.5695H38.3042V65.1442H43.8789V59.5695Z" fill="#3F3D56"/>
<path opacity="0.4" d="M51.4991 59.5695H45.9244V65.1442H51.4991V59.5695Z" fill="#3F3D56"/>
<path opacity="0.2" d="M59.1193 59.5695H53.5446V65.1442H59.1193V59.5695Z" fill="#3F3D56"/>
<path opacity="0.2" d="M66.7373 59.5695H61.1626V65.1442H66.7373V59.5695Z" fill="#3F3D56"/>
<path opacity="0.7" d="M74.3575 59.5695H68.7828V65.1442H74.3575V59.5695Z" fill="#3F3D56"/>
<path opacity="0.2" d="M81.9755 59.5695H76.4008V65.1442H81.9755V59.5695Z" fill="#3F3D56"/>
<path opacity="0.2" d="M89.5957 59.5695H84.021V65.1442H89.5957V59.5695Z" fill="#3F3D56"/>
<path opacity="0.2" d="M97.2159 59.5695H91.6412V65.1442H97.2159V59.5695Z" fill="#3F3D56"/>
<path d="M104.834 59.5695H99.2592V65.1442H104.834V59.5695Z" fill="#3F3D56"/>
<path opacity="0.2" d="M112.454 59.5695H106.879V65.1442H112.454V59.5695Z" fill="#3F3D56"/>
<path d="M120.072 59.5695H114.497V65.1442H120.072V59.5695Z" fill="#3F3D56"/>
<path d="M127.692 59.5695H122.118V65.1442H127.692V59.5695Z" fill="#3F3D56"/>
<path opacity="0.2" d="M135.313 59.5695H129.738V65.1442H135.313V59.5695Z" fill="#3F3D56"/>
<path opacity="0.2" d="M142.93 59.5695H137.356V65.1442H142.93V59.5695Z" fill="#3F3D56"/>
<path opacity="0.2" d="M150.551 59.5695H144.976V65.1442H150.551V59.5695Z" fill="#3F3D56"/>
<path opacity="0.2" d="M158.171 59.5695H152.596V65.1442H158.171V59.5695Z" fill="#3F3D56"/>
<path opacity="0.2" d="M165.789 59.5695H160.214V65.1442H165.789V59.5695Z" fill="#3F3D56"/>
<path opacity="0.2" d="M173.409 59.5695H167.834V65.1442H173.409V59.5695Z" fill="#3F3D56"/>
<path opacity="0.2" d="M181.027 59.5695H175.452V65.1442H181.027V59.5695Z" fill="#3F3D56"/>
<path opacity="0.2" d="M188.647 59.5695H183.073V65.1442H188.647V59.5695Z" fill="#3F3D56"/>
<path opacity="0.2" d="M196.268 59.5695H190.693V65.1442H196.268V59.5695Z" fill="#3F3D56"/>
<path opacity="0.2" d="M203.885 59.5695H198.311V65.1442H203.885V59.5695Z" fill="#3F3D56"/>
<path opacity="0.4" d="M211.506 59.5695H205.931V65.1442H211.506V59.5695Z" fill="#3F3D56"/>
<path d="M219.124 59.5695H213.549V65.1442H219.124V59.5695Z" fill="#3F3D56"/>
<path opacity="0.7" d="M28.6407 66.6323H23.0659V72.2071H28.6407V66.6323Z" fill="#3F3D56"/>
<path opacity="0.7" d="M36.2609 66.6323H30.6862V72.2071H36.2609V66.6323Z" fill="#3F3D56"/>
<path opacity="0.7" d="M43.8789 66.6323H38.3042V72.2071H43.8789V66.6323Z" fill="#3F3D56"/>
<path opacity="0.7" d="M51.4991 66.6323H45.9244V72.2071H51.4991V66.6323Z" fill="#3F3D56"/>
<path opacity="0.7" d="M59.1193 66.6323H53.5446V72.2071H59.1193V66.6323Z" fill="#3F3D56"/>
<path opacity="0.2" d="M66.7373 66.6323H61.1626V72.2071H66.7373V66.6323Z" fill="#3F3D56"/>
<path opacity="0.2" d="M74.3575 66.6323H68.7828V72.2071H74.3575V66.6323Z" fill="#3F3D56"/>
<path opacity="0.2" d="M81.9755 66.6323H76.4008V72.2071H81.9755V66.6323Z" fill="#3F3D56"/>
<path opacity="0.2" d="M89.5957 66.6323H84.021V72.2071H89.5957V66.6323Z" fill="#3F3D56"/>
<path opacity="0.2" d="M97.2159 66.6323H91.6412V72.2071H97.2159V66.6323Z" fill="#3F3D56"/>
<path opacity="0.2" d="M104.834 66.6323H99.2592V72.2071H104.834V66.6323Z" fill="#3F3D56"/>
<path d="M112.454 66.6323H106.879V72.2071H112.454V66.6323Z" fill="#3F3D56"/>
<path opacity="0.2" d="M120.072 66.6323H114.497V72.2071H120.072V66.6323Z" fill="#3F3D56"/>
<path opacity="0.2" d="M127.692 66.6323H122.118V72.2071H127.692V66.6323Z" fill="#3F3D56"/>
<path opacity="0.2" d="M135.313 66.6323H129.738V72.2071H135.313V66.6323Z" fill="#3F3D56"/>
<path d="M142.93 66.6323H137.356V72.2071H142.93V66.6323Z" fill="#3F3D56"/>
<path opacity="0.2" d="M150.551 66.6323H144.976V72.2071H150.551V66.6323Z" fill="#3F3D56"/>
<path opacity="0.2" d="M158.171 66.6323H152.596V72.2071H158.171V66.6323Z" fill="#3F3D56"/>
<path opacity="0.2" d="M165.789 66.6323H160.214V72.2071H165.789V66.6323Z" fill="#3F3D56"/>
<path opacity="0.2" d="M173.409 66.6323H167.834V72.2071H173.409V66.6323Z" fill="#3F3D56"/>
<path opacity="0.2" d="M181.027 66.6323H175.452V72.2071H181.027V66.6323Z" fill="#3F3D56"/>
<path opacity="0.2" d="M188.647 66.6323H183.073V72.2071H188.647V66.6323Z" fill="#3F3D56"/>
<path opacity="0.2" d="M196.268 66.6323H190.693V72.2071H196.268V66.6323Z" fill="#3F3D56"/>
<path opacity="0.2" d="M203.885 66.6323H198.311V72.2071H203.885V66.6323Z" fill="#3F3D56"/>
<path opacity="0.2" d="M211.506 66.6323H205.931V72.2071H211.506V66.6323Z" fill="#3F3D56"/>
<path d="M219.124 66.6323H213.549V72.2071H219.124V66.6323Z" fill="#3F3D56"/>
<path d="M160.516 87.1415C164.724 87.1415 168.136 83.7299 168.136 79.5213C168.136 75.3128 164.724 71.9011 160.516 71.9011C156.307 71.9011 152.896 75.3128 152.896 79.5213C152.896 83.7299 156.307 87.1415 160.516 87.1415Z" fill="#767D9F"/>
<path d="M160.12 69.8273C160.881 73.1461 161.526 76.4896 162.056 79.8579C162.216 80.8588 162.358 81.9143 161.995 82.8606C161.691 83.6495 161.073 84.2657 160.588 84.9563C160.103 85.6468 159.736 86.5319 160.031 87.323C160.326 88.1141 161.187 88.5468 162.008 88.7697C164.36 89.4034 166.866 88.9423 169.207 88.2561C170.266 87.9833 171.282 87.5625 172.225 87.0061C173.217 86.3767 174.03 85.5026 174.777 84.6023C178.188 80.4655 180.422 75.5004 182.524 70.566C181.173 70.6889 179.812 70.4887 178.554 69.9818C177.296 69.4749 176.177 68.6759 175.288 67.6508C174.427 66.639 173.796 65.2294 174.281 63.9926C172.858 64.7727 171.169 64.8252 169.637 65.3584C168.687 65.7212 167.773 66.1711 166.906 66.7023C165.86 67.3069 164.819 67.9232 163.785 68.5511C162.603 69.2635 161.495 69.8973 160.12 69.8273Z" fill="#AE6E79"/>
<path d="M176.058 75.5485C174.722 78.1468 172.985 80.6446 170.505 82.1918C168.024 83.7391 164.685 84.1586 162.201 82.6289C160.977 81.8815 160.05 80.7452 158.982 79.788C157.913 78.8308 156.578 78.0113 155.142 78.1359C153.56 78.2736 152.321 79.5083 151.261 80.6905C149.653 82.4869 148.099 84.3597 146.96 86.486C144.775 90.5725 144.257 95.3496 144.353 99.9825C144.449 104.615 145.12 109.224 145.135 113.857C145.157 119.556 144.191 125.21 143.215 130.824C152.196 129.718 161.189 132.135 170.19 133.051C175.951 133.643 181.755 133.63 187.546 133.614C188.564 133.614 189.648 133.588 190.496 133.024C191.014 132.646 191.433 132.149 191.718 131.573C192.517 130.098 192.839 128.416 193.062 126.753C193.628 122.552 193.645 118.3 193.66 114.06C193.7 103.789 193.737 93.4812 192.432 83.2911C192.111 80.7845 191.7 78.2648 190.739 75.92C189.777 73.5751 188.208 71.4182 186.014 70.1617C184.604 69.3531 181.337 67.9458 179.677 68.7609C177.813 69.67 176.951 73.809 176.058 75.5485Z" fill="#FFB8B8"/>
<path d="M176.722 104.552C176.383 98.2147 175.004 91.4511 177.939 85.8261C178.66 84.445 176.073 82.7208 176.873 81.3834C177.849 79.7528 178.589 77.9921 179.071 76.1539C179.237 75.5224 179.371 74.8537 179.213 74.2199C178.923 73.0639 177.78 72.3755 176.809 71.6718C175.739 70.8939 175.188 68.5228 174.843 67.24C174.497 65.9572 177.59 67.5023 178.833 67.0455C180.559 66.414 182.754 66.8117 184.476 67.452C185.437 67.806 186.482 67.8366 187.507 67.8628C189.497 67.9153 191.495 67.9655 193.47 67.7208C194.358 67.6093 195.247 67.4411 196.139 67.4913C198.413 67.6203 200.391 69.1762 201.737 71.0162C203.083 72.8563 203.94 75.0001 205.044 76.9931C205.964 78.6539 207.061 80.223 207.845 81.9516C208.54 83.4813 208.979 85.1246 209.414 86.7593L210.535 90.9529C210.732 91.5528 210.825 92.1816 210.811 92.8126C210.754 93.4835 210.457 94.1085 210.155 94.7051C209.015 96.9163 207.647 99.0029 206.075 100.931C203.717 103.822 200.854 106.429 199.454 109.891C198.907 111.239 198.604 112.673 198.326 114.102C197.207 119.818 196.412 125.593 195.944 131.399C193.391 130.217 190.714 129.322 187.963 128.73C186.592 128.437 185.206 128.218 183.811 128.075C182.59 127.948 181.014 128.188 179.851 127.856C177.907 127.303 177.692 124.015 177.397 122.293C176.925 119.55 176.831 116.759 176.814 113.988C176.792 110.837 176.89 107.692 176.722 104.552Z" fill="#3F3D56"/>
<path d="M134.01 92.7011C134.93 97.9459 135.944 103.206 137.944 108.134C137.893 108.182 137.843 108.226 137.793 108.269C137.616 108.42 137.432 108.562 137.24 108.706C136.792 109.021 136.3 109.288 135.929 109.699C135.788 109.856 135.677 110.037 135.601 110.234C135.532 110.388 135.497 110.554 135.497 110.722C135.497 110.891 135.532 111.057 135.601 111.211C134.559 111.672 133.348 111.53 132.179 111.486C131.171 111.449 130.194 111.486 129.386 112.039C128.263 112.813 127.924 114.299 127.743 115.649C127.676 116.142 127.618 116.635 127.57 117.129C127.523 117.588 127.485 118.048 127.456 118.51C127.357 120.037 127.343 121.57 127.415 123.099C127.426 123.379 127.442 123.658 127.461 123.938C123.89 123.853 120.636 121.991 117.557 120.181C116.853 119.768 116.128 119.334 115.671 118.652C115.25 117.982 115.072 117.188 115.166 116.403C115.166 116.292 115.186 116.185 115.201 116.071C115.299 115.422 115.467 114.786 115.701 114.174C116.665 111.566 118.085 109.15 119.895 107.039C120.677 106.126 121.558 105.232 121.923 104.084C122.083 103.584 122.142 103.053 122.303 102.555C123.029 100.396 125.647 99.3751 126.543 97.2794C126.761 96.7789 126.862 96.2304 127.133 95.7497C127.377 95.3501 127.692 94.9983 128.062 94.7116C128.221 94.5783 128.387 94.4494 128.551 94.3205C130.087 93.1171 131.566 91.846 132.989 90.5071C133.255 90.258 133.517 90.0059 133.776 89.751C133.742 90.7401 133.82 91.7299 134.01 92.7011Z" fill="#3F3D56"/>
<path d="M156.031 77.1896C155.717 77.5218 155.376 77.8343 155.042 78.1446L154.952 78.2254L154.598 78.5532C153.955 79.1078 153.399 79.7553 152.948 80.4741L152.911 80.5353C151.796 82.5305 152.209 84.9868 152.52 87.253C152.905 90.077 153.078 92.9259 153.038 95.7757C152.981 99.7093 152.517 103.617 152.509 107.546C152.509 108.437 152.528 109.327 152.568 110.218C152.631 111.667 152.74 113.114 152.872 114.561C153.014 116.147 153.184 117.732 153.344 119.316C153.47 120.542 153.59 121.766 153.691 122.989C153.741 123.623 153.789 124.255 153.829 124.888C153.875 125.631 153.912 126.377 153.934 127.12C153.949 127.592 153.958 128.062 153.958 128.534C153.958 128.802 153.958 129.069 153.958 129.336C153.958 129.847 153.944 130.357 153.916 130.865C153.887 131.519 153.843 132.175 153.783 132.832C153.715 133.547 153.595 134.327 153.092 134.829C153.062 134.86 153.029 134.888 152.996 134.917L152.288 134.829C147.407 134.245 142.48 134.157 137.581 134.567C137.688 133.829 137.786 133.092 137.882 132.351C137.926 132.002 137.97 131.65 138.011 131.298C138.059 130.896 138.105 130.494 138.149 130.092C138.199 129.655 138.245 129.218 138.289 128.781C138.403 127.654 138.502 126.527 138.588 125.4C138.715 123.755 138.811 122.107 138.877 120.457C138.909 119.668 138.934 118.88 138.951 118.09C138.976 117.111 138.987 116.131 138.986 115.151C138.986 114.198 138.978 113.244 138.962 112.288C138.962 111.973 138.949 111.659 138.923 111.346C138.904 111.065 138.865 110.785 138.807 110.509C138.645 109.873 138.425 109.253 138.151 108.656C138.103 108.542 138.057 108.437 138.011 108.317C137.985 108.258 137.961 108.197 137.937 108.138C139.196 107.017 140.092 105.516 140.953 104.038C142.349 101.659 143.778 99.1739 144.012 96.4247C144.246 93.6756 142.88 90.5878 140.254 89.7486C139.539 89.5301 138.783 89.4689 138.046 89.34C137.351 89.2176 135.903 88.94 135.098 88.4418C134.661 88.8905 134.224 89.3312 133.787 89.7639C133.814 89.1037 133.975 88.456 134.261 87.8605L134.572 87.8758C134.546 87.8058 134.535 87.7317 134.537 87.6573C134.537 87.4234 134.698 87.159 135.044 86.8662C136.073 85.9921 137.692 85.7976 138.341 84.6153C138.612 84.1236 138.658 83.5379 138.877 83.0222C139.504 81.5515 141.305 81.0095 142.389 79.8338C143.472 78.6581 143.743 76.9929 144.62 75.6817C145.274 74.7242 146.182 73.9676 147.242 73.4964C147.33 73.4549 147.419 73.4134 147.509 73.3762C149.323 72.6005 151.477 72.4234 153.357 72.4278C154.087 72.4278 155.979 72.4497 156.906 72.819C157.056 72.8727 157.193 72.9567 157.31 73.0659C158.298 74.1411 156.761 76.4116 156.031 77.1896Z" fill="#3F3D56"/>
<path d="M134.336 87.7075C136.024 87.1993 137.796 87.0316 139.55 87.2143C141.303 87.397 143.003 87.9264 144.55 88.7717C146.123 89.6458 147.535 90.8652 148.4 92.4387C149.701 94.7988 149.644 97.6441 149.552 100.339C149.506 101.687 149.447 103.083 148.853 104.294C148.164 105.695 146.866 106.656 145.542 107.443C144.712 107.972 143.803 108.366 142.85 108.608C141.381 108.927 139.856 108.656 138.376 108.389C136.768 108.092 135.042 107.734 133.925 106.536C133.269 105.841 132.911 104.939 132.557 104.056C132.048 102.781 131.538 101.508 131.027 100.236C130.142 98.0265 129.843 96.1887 131.012 94.0361C131.543 93.0549 132.192 92.1371 132.716 91.1493C132.979 90.6467 133.918 87.8364 134.336 87.7075Z" fill="#3F3D56"/>
<path d="M226.18 125.485V132.019C221.697 133.882 216.889 134.832 212.035 134.817H153.099C153.068 134.847 153.035 134.876 153.003 134.904L152.295 134.817H47.4584C38.6625 134.817 30.5113 132.443 23.8264 128.4V118.424L74.246 112.605H74.2854L103.647 115.092L111.246 115.747L115.192 116.082L123.361 116.775L127.563 117.131L133.682 117.651L134.543 117.723L138.953 118.097L144.937 118.588L153.35 119.301L167.375 120.492L177.242 121.329L193.444 122.703L196.525 122.963L196.857 122.992L197.146 123.016L201.215 123.361L205.682 123.741L206.2 123.785L226.18 125.485Z" fill="#504F60"/>
<path d="M166.958 125.245L103.772 114.46L101.322 126.849L130.286 130.317L139.205 131.434L163.737 126.602L166.958 125.245Z" fill="#9C9CA1"/>
<path d="M134.25 130.813L165.907 124.862C166.065 124.832 166.228 124.837 166.385 124.877C166.541 124.918 166.686 124.992 166.81 125.095C166.934 125.198 167.034 125.327 167.102 125.473C167.171 125.619 167.206 125.778 167.205 125.94C167.206 126.196 167.117 126.443 166.953 126.64C166.79 126.837 166.563 126.971 166.311 127.017L135.396 132.806L134.25 130.813Z" fill="#9C9CA1"/>
<path d="M147.983 112.1C148.969 112.008 149.967 111.853 150.854 111.416C151.947 110.872 152.797 109.934 153.809 109.244C156.034 107.714 159.01 107.509 161.56 108.387C164.111 109.266 166.239 111.147 167.729 113.394C168.719 114.891 169.462 116.801 168.763 118.453C168.523 118.958 168.221 119.431 167.863 119.86L166.04 122.242C165.694 122.743 165.277 123.191 164.803 123.573C164.121 124.069 163.274 124.272 162.439 124.395C160.221 124.718 157.963 124.535 155.728 124.683C151.888 124.939 148.138 126.176 144.29 126.134C142.078 126.11 139.895 125.664 137.734 125.219L128.169 123.252C126.503 122.911 124.622 122.413 123.837 120.903C123.486 120.223 123.42 119.436 123.378 118.671C123.265 116.565 123.378 114.222 124.838 112.703C126.211 111.278 128.381 110.828 130.02 109.775C132.026 108.483 132.688 108.901 134.803 109.871C138.93 111.74 143.471 112.508 147.983 112.1Z" fill="#AE6E79"/>
<path opacity="0.05" d="M147.983 112.1C148.969 112.008 149.967 111.853 150.854 111.416C151.947 110.872 152.797 109.934 153.809 109.244C156.034 107.714 159.01 107.509 161.56 108.387C164.111 109.266 166.239 111.147 167.729 113.394C168.719 114.891 169.462 116.801 168.763 118.453C168.523 118.958 168.221 119.431 167.863 119.86L166.04 122.242C165.694 122.743 165.277 123.191 164.803 123.573C164.121 124.069 163.274 124.272 162.439 124.395C160.221 124.718 157.963 124.535 155.728 124.683C151.888 124.939 148.138 126.176 144.29 126.134C142.078 126.11 139.895 125.664 137.734 125.219L128.169 123.252C126.503 122.911 124.622 122.413 123.837 120.903C123.486 120.223 123.42 119.436 123.378 118.671C123.265 116.565 123.378 114.222 124.838 112.703C126.211 111.278 128.381 110.828 130.02 109.775C132.026 108.483 132.688 108.901 134.803 109.871C138.93 111.74 143.471 112.508 147.983 112.1Z" fill="black"/>
<path d="M186.394 109.104C183.711 110.142 181.012 111.185 178.201 111.803C173.49 112.841 168.56 112.677 163.885 113.864C161.416 114.493 158.962 115.507 156.425 115.302C155.291 115.21 154.196 114.865 153.092 114.602C146.892 113.073 139.845 113.569 134.81 117.502C133.088 118.846 131.678 120.522 130.4 122.31C130.126 122.696 129.941 123.138 129.858 123.604C129.775 124.07 129.796 124.548 129.92 125.005C130.043 125.462 130.266 125.886 130.572 126.246C130.878 126.607 131.261 126.896 131.691 127.091C133.649 127.992 135.747 128.551 137.893 128.746C140.763 128.999 143.645 128.593 146.499 128.186C150.734 127.585 154.972 126.982 159.196 126.307C160.712 126.064 162.229 125.813 163.754 125.621C174.731 124.233 185.907 125.92 196.912 124.762C198.024 124.644 199.156 124.491 200.168 124.017C202.729 122.815 203.997 119.646 203.468 116.862C202.939 114.078 200.898 111.764 198.442 110.343C196.383 109.148 194.163 108.665 191.871 108.158C189.742 107.662 188.444 108.317 186.394 109.104Z" fill="#AE6E79"/>
<path opacity="0.1" d="M209.937 92.4607C211.147 94.0473 211.405 96.1758 211.274 98.1622C211.143 100.149 210.671 102.113 210.601 104.108C210.505 106.844 211.165 109.572 211.053 112.299C210.975 114.207 210.522 116.077 209.987 117.909C209.355 120.07 208.442 122.393 206.447 123.431C203.798 124.81 198.243 124.034 195.457 125.114C195.71 123.534 198.14 121.246 198.394 119.666C198.569 118.573 198.746 117.45 198.558 116.355C198.317 114.959 197.498 113.719 196.525 112.688C194.978 111.047 192.959 109.812 190.741 109.41C188.523 109.008 183.092 109.338 181.318 110.739C181.099 109.292 185.164 107.898 186.593 107.585C187.306 107.426 188.123 107.515 188.693 107.063C189.786 106.206 188.993 104.5 189.045 103.129C189.087 102.037 189.725 101.036 189.854 99.9432C190.072 98.195 188.931 96.4139 189.379 94.6985C189.545 94.0647 189.915 93.5075 190.17 92.9043C190.948 91.0577 190.608 88.9511 190.192 86.9887C189.934 85.7562 189.683 84.3663 190.369 83.3152C191.005 82.334 192.81 85.8283 193.966 85.6666C197.784 85.1312 201.239 82.3012 204.323 84.6176C205.894 85.7977 206.099 87.0215 206.726 88.7063C207.336 90.3104 208.916 91.132 209.937 92.4607Z" fill="black"/>
<path d="M210.592 92.4607C211.803 94.0472 212.061 96.1757 211.93 98.1622C211.799 100.149 211.327 102.113 211.257 104.108C211.16 106.844 211.82 109.572 211.709 112.299C211.63 114.207 211.178 116.077 210.643 117.909C210.011 120.07 209.097 122.393 207.102 123.431C204.454 124.81 198.899 124.034 196.112 125.114C196.366 123.534 198.796 121.246 199.049 119.666C199.224 118.573 199.401 117.45 199.213 116.355C198.973 114.959 198.153 113.719 197.181 112.688C195.634 111.047 193.615 109.812 191.396 109.41C189.178 109.008 183.748 109.338 181.973 110.739C181.755 109.292 185.819 107.898 187.249 107.585C187.961 107.426 188.778 107.515 189.349 107.063C190.441 106.206 189.648 104.5 189.701 103.129C189.742 102.037 190.38 101.036 190.509 99.9432C190.728 98.195 189.587 96.4139 190.035 94.6985C190.201 94.0647 190.57 93.5075 190.826 92.9043C191.604 91.0577 191.263 88.9511 190.848 86.9887C190.59 85.7562 190.339 84.3663 191.025 83.3152C191.661 82.334 192.904 81.9625 194.06 81.7986C197.931 81.275 201.853 82.2868 204.987 84.6176C206.558 85.7977 206.764 87.0215 207.391 88.7063C207.992 90.3104 209.572 91.132 210.592 92.4607Z" fill="#3F3D56"/>
<path d="M65.9965 82.1068L77.878 126.018C78.0238 126.557 78.3301 127.037 78.756 127.397C79.182 127.756 79.7074 127.978 80.2622 128.031L133.741 133.169C134.177 133.211 134.617 133.148 135.023 132.985C135.43 132.822 135.791 132.564 136.078 132.233C136.364 131.902 136.567 131.507 136.669 131.081C136.771 130.655 136.77 130.211 136.665 129.786L123.654 76.8183C123.499 76.1887 123.126 75.6344 122.601 75.2539C122.076 74.8734 121.433 74.6913 120.787 74.7401L68.4287 78.6561C68.0267 78.6874 67.6366 78.8069 67.2861 79.0063C66.9356 79.2057 66.6335 79.4799 66.4011 79.8095C66.1688 80.139 66.0121 80.5158 65.9422 80.9129C65.8722 81.31 65.8908 81.7176 65.9965 82.1068Z" fill="#9C9CA1"/>
<path d="M172.008 90.6752C175.255 90.6752 177.887 88.0091 177.887 84.7202C177.887 81.4314 175.255 78.7653 172.008 78.7653C168.762 78.7653 166.13 81.4314 166.13 84.7202C166.13 88.0091 168.762 90.6752 172.008 90.6752Z" fill="white"/>
<path d="M176.836 73.8571C176.836 73.8571 178.075 77.5415 174.419 79.0909L173.951 79.9082L176.241 82.1678C176.241 82.1678 179.065 77.017 178.759 75.1879C178.759 75.1879 178.322 73.3304 176.836 73.8571Z" fill="white"/>
<path d="M172.684 90.6752C175.814 90.6752 178.352 88.1372 178.352 85.0065C178.352 81.8757 175.814 79.3378 172.684 79.3378C169.553 79.3378 167.015 81.8757 167.015 85.0065C167.015 88.1372 169.553 90.6752 172.684 90.6752Z" fill="#3F3D56"/>
<path d="M178.787 76.0251L177.887 74.5391L176.576 74.3533C176.855 69.4604 175.586 68.0028 175.586 68.0028L175.291 67.9744L174.006 67.8498L171.589 65.3411V64.6287C174.985 65.0329 176.862 66.6457 177.876 68.536C179.668 71.8533 178.787 76.0251 178.787 76.0251Z" fill="#3F3D56"/>
<path opacity="0.1" d="M175.302 67.0738V67.9741L174.017 67.8496L171.6 65.3408C171.6 65.3408 175.339 66.1778 175.302 67.0738Z" fill="black" stroke="#3F3D56" stroke-miterlimit="10"/>
<path opacity="0.1" d="M178.787 76.025L177.887 74.539V68.5447C179.668 71.8532 178.787 76.025 178.787 76.025Z" fill="black" stroke="#3F3D56" stroke-miterlimit="10"/>
<path d="M162.209 87.337C163.717 86.4662 163.652 83.5302 162.064 80.7792C160.475 78.0282 157.965 76.5039 156.457 77.3747C154.949 78.2455 155.013 81.1816 156.602 83.9326C158.19 86.6836 160.7 88.2078 162.209 87.337Z" fill="white"/>
<path d="M160.184 81.875C161.772 84.6263 163.722 86.4641 162.214 87.3382C160.706 88.2124 156.313 87.7753 154.725 85.0218C153.136 82.2683 154.578 78.4659 156.086 77.5918C157.594 76.7176 158.593 79.1171 160.184 81.875Z" fill="#3F3D56"/>
<path opacity="0.1" d="M174.329 62.0542C174.329 70.8457 168.313 79.3182 159.521 79.3182C155.299 79.3182 151.25 77.6409 148.264 74.6553C145.279 71.6697 143.601 67.6204 143.601 63.3982C143.601 59.1759 145.279 55.1266 148.264 52.141C151.25 49.1554 155.299 47.4781 159.521 47.4781C168.313 47.4869 174.329 53.2605 174.329 62.0542Z" fill="black"/>
<path d="M159.521 78.8898C168.314 78.8898 175.441 71.7622 175.441 62.9698C175.441 54.1774 168.314 47.0498 159.521 47.0498C150.729 47.0498 143.601 54.1774 143.601 62.9698C143.601 71.7622 150.729 78.8898 159.521 78.8898Z" fill="#AE6E79"/>
<path d="M158.123 55.9156C160.017 56.6128 161.139 58.5708 162.839 59.6613C165.243 61.191 168.372 60.7955 171.117 60.0393C172.646 59.6219 174.246 59.1128 175.752 59.5761C175.973 59.6741 176.218 59.7089 176.458 59.6766C176.785 59.5826 176.947 59.2198 177.054 58.8964C178.916 53.3457 178.079 47.0586 175.269 41.9231C174.543 40.5988 173.674 39.3182 172.476 38.3982C171.532 37.6748 170.422 37.2006 169.303 36.7963C167.258 36.062 165.143 35.5398 162.992 35.2382C162.612 35.1692 162.224 35.1566 161.84 35.2011C161.313 35.2863 160.841 35.5704 160.372 35.8239C158.359 36.9026 156.128 37.5087 153.846 37.5962C150.787 37.712 147.29 36.9908 144.932 38.9532C142.091 41.3068 142.799 45.8982 140.957 49.0931C139.738 51.2063 137.386 52.7404 137 55.1464C136.899 55.8818 136.946 56.6299 137.137 57.347C138.038 61.049 141.622 63.9161 145.441 63.9838C146.028 64.0286 146.615 63.9082 147.137 63.6364C147.479 63.4031 147.781 63.116 148.031 62.7863C150.533 59.823 153.396 54.1761 158.123 55.9156Z" fill="#444053"/>
<path opacity="0.1" d="M177.054 57.2859C176.947 57.6093 176.785 57.9721 176.458 58.066C176.217 58.0984 175.973 58.0636 175.752 57.9655C174.246 57.5022 172.638 58.0114 171.119 58.4288C168.372 59.1849 165.236 59.5892 162.841 58.0507C161.139 56.9581 160.02 54.9913 158.123 54.3051C153.396 52.5569 150.533 58.2125 148.024 61.1757C147.774 61.5055 147.473 61.7926 147.131 62.0258C146.609 62.2977 146.021 62.4181 145.435 62.3733C141.628 62.3056 138.042 59.4384 137.131 55.7365C137.08 55.518 137.037 55.2994 137.004 55.0809C137.004 55.1006 137.004 55.1181 136.993 55.1377C136.892 55.8731 136.939 56.6212 137.131 57.3383C138.031 61.0403 141.617 63.9074 145.435 63.9751C146.021 64.0199 146.609 63.8995 147.131 63.6277C147.473 63.3944 147.774 63.1073 148.024 62.7776C150.533 59.8143 153.396 54.1674 158.123 55.907C160.02 56.6041 161.139 58.5621 162.841 59.6526C165.245 61.1823 168.372 60.7868 171.119 60.0306C172.649 59.6132 174.246 59.1041 175.752 59.5674C175.973 59.6654 176.217 59.7002 176.458 59.6679C176.785 59.5739 176.947 59.2111 177.054 58.8877C177.805 56.6166 178.137 54.2278 178.033 51.8379C177.969 53.6913 177.639 55.526 177.054 57.2859Z" fill="black"/>
</g>
<defs>
<clipPath id="clip0">
<rect width="250" height="134.904" fill="white"/>
</clipPath>
</defs>
</svg>
