<svg width="300" height="156" viewBox="0 0 300 156" fill="none" xmlns="http://www.w3.org/2000/svg">
<g clip-path="url(#clip0)">
<path d="M130.943 1.81474L106.789 87.2264L258.201 130.043L282.354 44.6316L130.943 1.81474Z" fill="#3F3D56"/>
<path d="M133.558 6.64105C134.251 6.64105 134.812 6.07962 134.812 5.38705C134.812 4.69449 134.251 4.13306 133.558 4.13306C132.866 4.13306 132.304 4.69449 132.304 5.38705C132.304 6.07962 132.866 6.64105 133.558 6.64105Z" fill="#FFB8B8"/>
<path d="M137.42 7.73309C138.112 7.73309 138.674 7.17166 138.674 6.47909C138.674 5.78653 138.112 5.2251 137.42 5.2251C136.727 5.2251 136.166 5.78653 136.166 6.47909C136.166 7.17166 136.727 7.73309 137.42 7.73309Z" fill="#FFB8B8"/>
<path d="M141.281 8.82501C141.974 8.82501 142.535 8.26358 142.535 7.57101C142.535 6.87845 141.974 6.31702 141.281 6.31702C140.588 6.31702 140.027 6.87845 140.027 7.57101C140.027 8.26358 140.588 8.82501 141.281 8.82501Z" fill="#FFB8B8"/>
<path d="M211.299 56.0116C209.272 55.6284 207.187 55.6776 205.18 56.156C205.764 54.1498 205.912 52.0416 205.613 49.9736C203.546 50.7215 201.676 51.9282 200.143 53.5029C199.662 51.3587 198.701 49.3514 197.332 47.6321C195.995 49.2372 195.016 51.1104 194.463 53.1255C193.004 51.6671 191.254 50.5333 189.326 49.7982C189.326 49.7982 188.413 54.4427 190.612 58.2538C192.569 61.6459 196.328 63.2332 197.132 63.5416L197.151 63.5642L197.161 63.5527C197.243 63.5836 197.288 63.5994 197.288 63.5994C197.288 63.5994 197.306 63.5102 197.329 63.351C197.344 63.3331 197.358 63.315 197.374 63.295C197.377 63.3204 197.38 63.3435 197.383 63.3662C197.32 63.5143 197.288 63.5994 197.288 63.5994C197.288 63.5994 197.335 63.6099 197.421 63.6262L197.424 63.6413L197.452 63.6319C198.298 63.7902 202.332 64.4068 205.775 62.5419C209.644 60.4466 211.299 56.0116 211.299 56.0116Z" fill="#FFB8B8"/>
<path d="M203.795 44.1474C205.595 44.1474 207.055 42.6876 207.055 40.887C207.055 39.0863 205.595 37.6266 203.795 37.6266C201.994 37.6266 200.534 39.0863 200.534 40.887C200.534 42.6876 201.994 44.1474 203.795 44.1474Z" fill="#FFB8B8"/>
<path d="M244.733 83.2185L146.751 55.5106L146.148 57.6424L244.13 85.3502L244.733 83.2185Z" fill="#FFB8B8"/>
<path d="M169.812 73.4999L152.919 68.7227L148.141 85.6161L165.035 90.3933L169.812 73.4999Z" fill="#FFB8B8"/>
<path d="M201.186 82.3719L184.292 77.5947L179.515 94.4882L196.408 99.2654L201.186 82.3719Z" fill="#FFB8B8"/>
<path d="M232.559 91.2439L215.666 86.4667L210.889 103.36L227.782 108.137L232.559 91.2439Z" fill="#FFB8B8"/>
<path d="M161.907 93.1579L149.358 89.6091L148.948 91.0571L161.498 94.6059L161.907 93.1579Z" fill="#FFB8B8"/>
<path d="M193.281 102.03L180.732 98.4811L180.322 99.9291L192.871 103.478L193.281 102.03Z" fill="#FFB8B8"/>
<path d="M224.654 110.902L212.105 107.353L211.696 108.801L224.245 112.35L224.654 110.902Z" fill="#FFB8B8"/>
<path d="M85.5854 120.28C131.939 120.28 169.516 118.891 169.516 117.177C169.516 115.464 131.939 114.074 85.5854 114.074C39.2319 114.074 1.65503 115.464 1.65503 117.177C1.65503 118.891 39.2319 120.28 85.5854 120.28Z" fill="#9C9CA1"/>
<path d="M234.688 155.448C270.759 155.448 300 154.059 300 152.345C300 150.632 270.759 149.242 234.688 149.242C198.617 149.242 169.376 150.632 169.376 152.345C169.376 154.059 198.617 155.448 234.688 155.448Z" fill="#9C9CA1"/>
<path d="M202.655 128.26H221.497V136.14H210.535V144.02H221.498V151.899H202.655V128.26ZM225.266 128.26H244.109V135.112H233.146V136.482H244.109V152.242H225.267V145.046H236.23V143.676H225.266V128.26H225.266ZM247.878 128.26H266.721V135.112H255.758V136.482H266.721V152.242H247.878V145.046H258.841V143.676H247.879V128.26H247.878Z" fill="#3F3D56"/>
<path d="M37.9726 92.2052H45.7457V99.8849H52.8564V92.2052H60.63V115.461H52.8569V107.674H45.7461V115.461H37.973V92.2052H37.9726ZM70.8514 99.9175H64.0093V92.2052H85.4722V99.9175H78.6259V115.461H70.8528V99.9175H70.8514ZM88.8784 92.2052H96.9834L101.969 100.377L106.95 92.2052H115.058V115.461H107.317V103.934L101.969 112.203H101.835L96.4839 103.934V115.461H88.8784V92.2052ZM118.927 92.2052H126.702V107.774H137.633V115.461H118.926V92.2052H118.927Z" fill="#3F3D56"/>
<path d="M24.2434 108.191L23.6057 115.421L28.7095 114.996V108.829L24.2434 108.191Z" fill="#FFB8B8"/>
<path d="M19.5649 108.191L20.203 115.421L15.0992 114.996V108.829L19.5649 108.191Z" fill="#FFB8B8"/>
<path d="M32.9627 52.6858C32.9627 52.6858 34.664 62.8936 34.664 64.3823C34.664 65.8709 34.026 75.4407 32.9627 77.3547C31.8994 79.2687 31.6868 80.1193 32.1121 80.97C32.5374 81.8206 32.3247 81.6079 32.1121 82.2459C31.8994 82.8839 31.4741 82.6713 32.1121 83.5219C32.3726 83.8964 32.5122 84.3417 32.5122 84.7979C32.5122 85.2541 32.3726 85.6994 32.1121 86.0739C31.6868 86.7118 32.9627 103.938 31.2614 105.214C29.5601 106.489 29.1348 110.743 29.1348 110.743L23.6056 110.105V105.426C23.6056 105.426 22.3296 102.024 23.1802 99.8969C24.0309 97.7703 24.4562 86.4992 24.4562 86.4992C24.4562 86.4992 24.2436 85.4359 24.4562 84.7979C24.6689 84.1599 24.4562 83.7346 24.0309 83.5219C23.6056 83.3092 23.3929 82.4586 23.3929 82.4586L22.7549 66.9342L20.203 82.2459C20.203 82.2459 22.7549 103.087 20.203 105.851V110.743H14.6737L15.5244 105.426C15.5244 105.426 13.8231 100.535 14.6737 99.4716C15.5244 98.4083 12.1218 81.3953 12.5471 80.7573C12.9724 80.1193 12.7598 79.9066 12.5471 79.4813C12.3344 79.056 11.6965 78.6307 11.9091 78.2053C12.1218 77.78 11.9091 76.9293 11.9091 76.9293C11.9091 76.9293 7.86852 56.939 9.78249 55.0251C11.6965 53.1111 32.9627 52.6858 32.9627 52.6858Z" fill="#2F2E41"/>
<path d="M24.8816 112.657C24.8816 112.657 25.3069 110.617 28.7095 111.318C28.7095 111.318 29.5601 113.082 29.5601 113.933C29.5601 114.783 30.4108 120.525 30.4108 120.525C30.4108 120.525 33.8134 126.267 29.5601 126.267C25.3069 126.267 23.8182 124.778 23.6056 123.29C23.3929 121.801 23.8182 121.376 22.9676 120.738C22.1169 120.1 21.6916 120.1 21.9043 119.249C22.1169 118.399 22.5423 114.145 22.5423 114.145C22.5423 114.145 22.7549 110.955 23.9246 111.806L25.0942 112.657" fill="#2F2E41"/>
<path d="M18.927 112.657C18.927 112.657 18.5017 110.617 15.0991 111.318C15.0991 111.318 14.2484 113.082 14.2484 113.933C14.2484 114.783 13.3978 120.525 13.3978 120.525C13.3978 120.525 9.99515 126.267 14.2484 126.267C18.5017 126.267 19.9903 124.778 20.203 123.29C20.4156 121.801 19.9903 121.376 20.841 120.738C21.6916 120.1 22.1169 120.1 21.9043 119.249C21.6916 118.399 21.2663 114.145 21.2663 114.145C21.2663 114.145 21.0536 110.955 19.884 111.806L18.7143 112.657" fill="#2F2E41"/>
<path d="M25.0942 13.5557C28.2654 13.5557 30.8361 10.985 30.8361 7.8138C30.8361 4.64263 28.2654 2.0719 25.0942 2.0719C21.9231 2.0719 19.3523 4.64263 19.3523 7.8138C19.3523 10.985 21.9231 13.5557 25.0942 13.5557Z" fill="#FFB8B8"/>
<path d="M20.4156 8.66455C20.4156 8.66455 18.0763 17.8091 17.651 18.0217C17.2257 18.2344 27.4335 19.085 27.4335 19.085C27.4335 19.085 24.8816 11.2165 27.4335 9.94053L20.4156 8.66455Z" fill="#FFB8B8"/>
<path d="M18.9217 14.2371L18.9214 14.236L11.9091 19.085L13.1851 57.1517C13.1851 57.1517 22.5423 56.0884 24.6689 56.301C26.7955 56.5137 33.6007 54.3871 33.6007 54.3871L30.6199 18.6174C30.5617 17.9185 30.2553 17.2634 29.7562 16.7707C29.2572 16.2779 28.5983 15.9799 27.8986 15.9306L26.6214 15.8405C26.6214 15.8405 25.3455 18.9995 21.5067 17.3698C20.8595 17.0882 20.288 16.6577 19.8387 16.1133C19.3895 15.5689 19.0753 14.9261 18.9217 14.2371Z" fill="#9C9CA1"/>
<path d="M19.0912 13.8899L10.4205 18.0217L8.71918 42.4779C8.71918 42.4779 5.31657 57.1516 8.08119 61.4049C10.8458 65.6581 15.5244 66.0835 15.5244 66.0835C15.5244 66.0835 21.6916 41.6272 19.9903 33.3334C18.289 25.0395 19.0912 13.8899 19.0912 13.8899Z" fill="#3F3D56"/>
<path d="M2.76462 50.7717V53.9617C2.76462 53.9617 1.48865 60.9795 5.52924 60.7669C9.56983 60.5542 7.65587 53.111 7.65587 53.111L6.37989 50.7717H2.76462Z" fill="#FFB8B8"/>
<path d="M40.1933 57.1516L39.768 60.7669C39.768 60.7669 41.8946 67.9975 37.854 68.2101C33.8134 68.4228 36.7463 60.8113 36.7463 60.8113L38.0666 56.7263L40.1933 57.1516Z" fill="#FFB8B8"/>
<path d="M26.4935 15.0972C30.3684 16.0516 33.9591 17.9182 36.9666 20.5415L37.0033 20.5735L34.026 36.3106L33.6007 42.0525C33.6007 42.0525 41.4692 70.124 32.3247 66.0834C32.3247 66.0834 24.4562 41.6272 25.5195 30.356C26.5828 19.0849 26.4935 15.0972 26.4935 15.0972Z" fill="#3F3D56"/>
<path d="M34.2387 20.361C34.4514 20.1483 37.0033 20.6565 37.0033 20.6565C37.0033 20.6565 41.6819 37.1613 41.6819 39.926C41.6819 42.6906 42.3199 58.4276 42.3199 58.4276L36.7063 58.9935L32.1625 37.1283L34.2387 20.361Z" fill="#3F3D56"/>
<path d="M11.9091 18.0216H10.4205C10.4205 18.0216 6.16722 19.7229 5.95456 21.6369C5.7419 23.5508 0 42.9032 0 42.9032L1.48864 52.6857L7.01787 51.835L8.08119 40.9892L13.6104 29.0801L11.9091 18.0216Z" fill="#3F3D56"/>
<path d="M23.9787 9.41634L24.1989 7.88169C24.2502 7.52399 24.4595 7.05368 24.8075 7.15095C25.1035 7.2337 25.7484 7.48708 25.8564 7.4106C26.2607 7.12416 26.8726 7.62501 27.2978 7.37056C27.476 7.26395 27.5922 7.03555 27.7992 7.02031C27.9381 7.02918 28.069 7.08848 28.1673 7.18706C28.4433 7.42709 28.7685 7.60376 29.1201 7.70467C29.2965 7.7527 29.4825 7.75268 29.6589 7.70461C29.8353 7.65653 29.9956 7.56215 30.1232 7.43126C30.1683 7.36153 30.229 7.3033 30.3006 7.26122C30.3846 7.23701 30.4742 7.24113 30.5557 7.27295L31.6421 7.56874C31.8018 6.98942 31.8347 6.38242 31.7383 5.78925C31.6419 5.19607 31.4186 4.6307 31.0836 4.13178C30.6428 3.53355 30.1085 3.01028 29.5012 2.58213C28.8284 2.0703 28.1341 1.58888 27.4183 1.13788C26.6593 0.600908 25.7979 0.226124 24.8876 0.0369138C23.9715 -0.102207 22.9457 0.146693 22.3694 0.872374C22.0984 0.676199 21.8946 0.400974 21.7862 0.0844431C21.7215 0.14323 21.6706 0.215486 21.637 0.296106C21.6033 0.376726 21.5878 0.463745 21.5915 0.551024C21.5952 0.638303 21.6179 0.723711 21.6582 0.80122C21.6985 0.878729 21.7553 0.946452 21.8247 0.999603L20.9059 0.412873C20.6476 0.684072 21.1522 1.17584 20.9321 1.47888C20.8656 1.55383 20.7802 1.60959 20.6848 1.64038C20.1859 1.83483 19.7287 2.12262 19.3376 2.48833C18.8424 3.05245 18.4799 3.72029 18.2765 4.44283C17.729 6.01355 17.3311 7.81487 18.109 9.28518C18.1972 9.45186 19.3613 12.2031 19.5164 12.3104C20.0407 12.673 19.6994 11.7954 20.075 12.3104C20.3696 12.7142 20.3145 11.1685 20.7523 11.5078C20.9239 11.6306 21.1275 11.701 21.3383 11.7105C21.5492 11.72 21.7582 11.6681 21.9402 11.5612C22.1217 11.4354 22.0632 10.7363 21.9653 10.0944C21.9466 9.97216 21.9581 9.84716 21.9989 9.73039C22.0397 9.61363 22.1086 9.50865 22.1994 9.42467C22.2902 9.34069 22.4002 9.28027 22.5198 9.2487C22.6394 9.21714 22.7649 9.21539 22.8854 9.24362C23.4307 9.37189 23.9694 9.48149 23.9787 9.41634Z" fill="#2F2E41"/>
<path opacity="0.2" d="M34.7705 39.6069L37.1096 58.9594H35.621L34.7705 39.6069Z" fill="#FFB8B8"/>
<path opacity="0.2" d="M10.1015 32.1637L8.91878 39.6069L11.1648 32.1637H10.5268H10.1015Z" fill="#FFB8B8"/>
</g>
<defs>
<clipPath id="clip0">
<rect width="300" height="155.448" fill="white"/>
</clipPath>
</defs>
</svg>
