<svg width="250" height="157" viewBox="0 0 250 157" fill="none" xmlns="http://www.w3.org/2000/svg">
<g clip-path="url(#clip0)">
<path d="M247.554 49.6295L192.543 156.066L52.2005 129.48L51.9236 129.429L43.9688 127.921L8.22234 121.148L0 119.592L11.3935 96.4555L13.3154 92.5537L15.1208 88.8915L15.2837 88.5588L18.3083 82.4165L31.0932 56.4582L31.7353 55.153L32.6264 53.3452L32.8312 52.9287L33.2872 52.0004L35.8814 46.7352L40.544 37.2704L41.356 35.6208L45.0414 28.136L58.8988 0L247.554 49.6295Z" fill="#3F3D56"/>
<path d="M121.342 41.978C115.114 35.7503 106.667 32.2516 97.86 32.2516C89.0527 32.2516 80.6061 35.7503 74.3784 41.978C68.1507 48.2057 64.652 56.6523 64.652 65.4596C64.652 74.2669 68.1507 82.7135 74.3784 88.9412L121.342 135.904L168.305 88.9412C174.533 82.7135 178.031 74.2669 178.031 65.4596C178.031 56.6523 174.533 48.2057 168.305 41.978C162.077 35.7503 153.631 32.2516 144.823 32.2516C136.016 32.2516 127.569 35.7503 121.342 41.978Z" fill="#FFB8B8"/>
<path d="M181.73 90.1259L181.401 89.7969L182.223 88.974L181.401 88.1515L181.73 87.8225L182.881 88.974L181.73 90.1259Z" fill="#D0CDE1"/>
<path d="M138.696 133.159L138.367 132.83L140.324 130.874L140.653 131.203L138.696 133.159ZM142.609 129.247L142.28 128.918L144.236 126.962L144.565 127.291L142.609 129.247ZM146.521 125.335L146.192 125.006L148.148 123.049L148.477 123.378L146.521 125.335ZM150.433 121.422L150.104 121.093L152.06 119.137L152.389 119.466L150.433 121.422ZM154.345 117.51L154.016 117.181L155.972 115.225L156.301 115.554L154.345 117.51ZM158.257 113.598L157.928 113.269L159.884 111.313L160.213 111.642L158.257 113.598ZM162.169 109.686L161.84 109.357L163.796 107.401L164.125 107.73L162.169 109.686ZM166.081 105.774L165.752 105.445L167.708 103.489L168.037 103.818L166.081 105.774ZM169.993 101.862L169.664 101.533L171.62 99.577L171.949 99.906L169.993 101.862ZM173.905 97.95L173.576 97.621L175.532 95.6649L175.861 95.9939L173.905 97.95ZM177.817 94.0379L177.488 93.7089L179.444 91.7528L179.773 92.0818L177.817 94.0379Z" fill="#D0CDE1"/>
<path d="M135.589 136.266L134.437 135.115L134.766 134.786L135.589 135.608L136.411 134.786L136.74 135.115L135.589 136.266Z" fill="#D0CDE1"/>
<path d="M132.481 133.159L130.525 131.203L130.854 130.874L132.81 132.83L132.481 133.159ZM128.569 129.247L126.613 127.291L126.942 126.962L128.898 128.918L128.569 129.247ZM124.657 125.335L122.701 123.378L123.03 123.049L124.986 125.006L124.657 125.335ZM120.745 121.422L118.789 119.466L119.118 119.137L121.074 121.093L120.745 121.422ZM116.833 117.51L114.877 115.554L115.206 115.225L117.162 117.181L116.833 117.51ZM112.921 113.598L110.965 111.642L111.294 111.313L113.25 113.269L112.921 113.598ZM109.009 109.686L107.053 107.73L107.382 107.401L109.338 109.357L109.009 109.686ZM105.097 105.774L103.141 103.818L103.47 103.489L105.426 105.445L105.097 105.774ZM101.185 101.862L99.2286 99.906L99.5576 99.577L101.514 101.533L101.185 101.862ZM97.2725 97.95L95.3166 95.9939L95.6456 95.6649L97.6015 97.621L97.2725 97.95ZM93.3605 94.0379L91.4045 92.0818L91.7335 91.7528L93.6895 93.7089L93.3605 94.0379Z" fill="#D0CDE1"/>
<path d="M89.4483 90.1259L88.2966 88.974L89.4483 87.8225L89.7773 88.1515L88.9548 88.974L89.7773 89.7969L89.4483 90.1259Z" fill="#D0CDE1"/>
<path d="M91.7334 86.1955L91.4044 85.8665L93.3604 83.9105L93.6894 84.2395L91.7334 86.1955ZM95.6455 82.2834L95.3165 81.9544L97.2725 79.9984L97.6015 80.3274L95.6455 82.2834ZM99.5576 78.3713L99.2286 78.0423L101.185 76.0864L101.514 76.4154L99.5576 78.3713ZM103.47 74.4593L103.141 74.1303L105.097 72.1742L105.426 72.5032L103.47 74.4593ZM107.382 70.5472L107.053 70.2182L109.009 68.2621L109.338 68.5911L107.382 70.5472ZM111.294 66.6351L110.965 66.3061L112.921 64.35L113.25 64.679L111.294 66.6351ZM115.206 62.723L114.877 62.394L116.833 60.4379L117.162 60.7669L115.206 62.723ZM119.118 58.8109L118.789 58.4819L120.745 56.5259L121.074 56.8549L119.118 58.8109ZM123.03 54.8988L122.701 54.5698L124.657 52.6138L124.986 52.9428L123.03 54.8988ZM126.942 50.9867L126.613 50.6577L128.569 48.7017L128.898 49.0307L126.942 50.9867ZM130.854 47.0746L130.525 46.7456L132.481 44.7896L132.81 45.1186L130.854 47.0746Z" fill="#D0CDE1"/>
<path d="M136.411 43.1627L135.589 42.34L134.766 43.1627L134.437 42.8334L135.589 41.682L136.74 42.8334L136.411 43.1627Z" fill="#D0CDE1"/>
<path d="M179.444 86.1952L177.488 84.2392L177.817 83.9102L179.773 85.8662L179.444 86.1952ZM175.532 82.2831L173.576 80.3272L173.905 79.9981L175.861 81.9541L175.532 82.2831ZM171.62 78.3711L169.664 76.415L169.993 76.086L171.949 78.0421L171.62 78.3711ZM167.708 74.4591L165.752 72.503L166.081 72.174L168.037 74.1301L167.708 74.4591ZM163.796 70.547L161.84 68.5909L162.169 68.2619L164.125 70.218L163.796 70.547ZM159.884 66.6349L157.928 64.6788L158.257 64.3498L160.213 66.3059L159.884 66.6349ZM155.972 62.7228L154.016 60.7668L154.345 60.4378L156.301 62.3938L155.972 62.7228ZM152.06 58.8107L150.104 56.8547L150.433 56.5257L152.389 58.4817L152.06 58.8107ZM148.148 54.8986L146.192 52.9426L146.521 52.6136L148.477 54.5696L148.148 54.8986ZM144.236 50.9866L142.28 49.0305L142.609 48.7015L144.565 50.6576L144.236 50.9866ZM140.324 47.0745L138.367 45.1184L138.696 44.7894L140.653 46.7455L140.324 47.0745Z" fill="#D0CDE1"/>
<path d="M111.405 98.926C110.463 98.9064 109.51 98.8462 108.572 98.7469L108.621 98.2843C109.546 98.382 110.486 98.4413 111.415 98.4607L111.405 98.926ZM114.243 98.8653L114.213 98.4009C115.14 98.3421 116.077 98.2425 116.997 98.1053L117.065 98.5656C116.133 98.7047 115.183 98.8056 114.243 98.8653ZM105.765 98.3298C104.839 98.1516 103.91 97.9319 103.003 97.6763L103.13 97.2283C104.023 97.4805 104.94 97.6972 105.853 97.8726L105.765 98.3298ZM119.853 98.0287L119.745 97.5761C120.651 97.3612 121.558 97.1051 122.439 96.815L122.585 97.2571C121.691 97.5511 120.771 97.8108 119.853 98.0287ZM100.307 96.7904C99.4248 96.4587 98.5463 96.0845 97.696 95.6785L97.8964 95.2586C98.7349 95.6589 99.601 96.0277 100.471 96.3551L100.307 96.7904ZM125.242 96.2556L125.059 95.8275C125.915 95.4624 126.765 95.0561 127.585 94.6199L127.803 95.0307C126.972 95.4731 126.11 95.8852 125.242 96.2556ZM95.19 94.3475C94.3784 93.871 93.5766 93.353 92.8069 92.8079L93.0759 92.428C93.8348 92.9656 94.6253 93.4763 95.4256 93.9462L95.19 94.3475ZM130.251 93.5915L129.998 93.2007C130.778 92.6963 131.546 92.151 132.282 91.5807L132.567 91.9484C131.821 92.5268 131.042 93.0796 130.251 93.5915ZM90.5641 91.0715C89.8458 90.4653 89.1427 89.8194 88.4742 89.1514L88.8029 88.8224C89.4624 89.4811 90.1559 90.1182 90.8642 90.716L90.5641 91.0715ZM134.736 90.115L134.421 89.7723C134.758 89.4622 135.096 89.1382 135.424 88.8094C135.753 88.4809 136.081 88.1389 136.399 87.7927L136.742 88.1076C136.419 88.4586 136.087 88.8053 135.753 89.1384C135.42 89.4718 135.077 89.8003 134.736 90.115V90.115ZM86.5517 87.0635C85.9412 86.3422 85.3555 85.5871 84.811 84.8198L85.1904 84.5504C85.7274 85.3072 86.3049 86.0516 86.9069 86.7632L86.5517 87.0635ZM138.574 85.9389L138.205 85.6539C138.776 84.918 139.32 84.1502 139.823 83.3718L140.214 83.6245C139.703 84.414 139.151 85.1927 138.574 85.9389ZM83.2676 82.4359C82.789 81.6228 82.3402 80.7795 81.9337 79.9295L82.3533 79.7286C82.7543 80.5667 83.1968 81.3981 83.6687 82.2001L83.2676 82.4359ZM141.651 81.1781L141.24 80.9598C141.676 80.1398 142.081 79.2903 142.446 78.4352L142.874 78.6177C142.505 79.4849 142.093 80.3464 141.651 81.1781ZM80.8188 77.3184C80.4858 76.4359 80.187 75.5286 79.9307 74.6218L80.3785 74.4953C80.6312 75.3894 80.9258 76.2839 81.2541 77.1541L80.8188 77.3184ZM143.874 75.9619L143.432 75.8165C143.722 74.9342 143.978 74.028 144.192 73.1233L144.645 73.2305C144.428 74.1481 144.169 75.0671 143.874 75.9619ZM79.2749 71.8599C79.0964 70.9352 78.9553 69.9906 78.8554 69.0524L79.3182 69.0031C79.4166 69.9283 79.5558 70.8599 79.7318 71.7717L79.2749 71.8599ZM145.182 70.4434L144.721 70.375C144.858 69.4552 144.957 68.5187 145.016 67.5916L145.481 67.6211C145.421 68.5612 145.32 69.5107 145.182 70.4434ZM78.6743 66.2197C78.6691 65.9774 78.6665 65.7349 78.6665 65.4924C78.6665 64.7913 78.6888 64.0813 78.7327 63.3821L79.1972 63.4111C79.1538 64.1008 79.1318 64.8011 79.1318 65.4924C79.1318 65.7314 79.1344 65.9705 79.1397 66.2097L78.6743 66.2197ZM145.075 64.7932C145.056 63.8644 144.996 62.9246 144.898 61.9996L145.361 61.9505C145.461 62.8886 145.521 63.8416 145.541 64.7834L145.075 64.7932ZM79.4905 60.6276L79.0302 60.5593C79.1684 59.6272 79.3485 58.6894 79.5651 57.772L80.018 57.879C79.8043 58.7837 79.6268 59.7084 79.4905 60.6276ZM144.486 59.2308C144.31 58.3173 144.093 57.401 143.841 56.5069L144.289 56.3806C144.545 57.2871 144.765 58.2165 144.943 59.1429L144.486 59.2308ZM80.7765 55.1852L80.3344 55.0402C80.6284 54.1441 80.9644 53.2504 81.3333 52.3838L81.7613 52.566C81.3977 53.4205 81.0663 54.3017 80.7765 55.1852ZM142.967 53.8475C142.639 52.9773 142.27 52.1108 141.869 51.2723L142.289 51.0717C142.695 51.9221 143.07 52.8009 143.402 53.6835L142.967 53.8475ZM82.9661 50.0409L82.5551 49.8228C82.9964 48.9912 83.4795 48.1679 83.991 47.3756L84.382 47.6281C83.8776 48.4092 83.4012 49.221 82.9661 50.0409ZM140.555 48.8003C140.084 47.9989 139.572 47.2078 139.035 46.4492L139.414 46.1799C139.96 46.9495 140.478 47.7517 140.956 48.5644L140.555 48.8003ZM85.9981 45.3449L85.6301 45.0602C86.2055 44.3166 86.8212 43.5867 87.4603 42.8908L87.8029 43.2055C87.1727 43.8918 86.5655 44.6116 85.9981 45.3449ZM137.319 44.2356C136.72 43.5267 136.083 42.8336 135.424 42.1753L135.4 42.1508L135.727 41.8195L135.758 41.8508C136.421 42.5137 137.067 43.2164 137.675 43.9352L137.319 44.2356ZM89.7808 41.2245L89.4654 40.8823C90.1604 40.2419 90.8898 39.6247 91.6331 39.0476L91.9185 39.4152C91.1854 39.9843 90.4661 40.5929 89.7808 41.2245ZM133.337 40.2574C132.626 39.6576 131.881 39.082 131.124 38.5463L131.393 38.1665C132.161 38.7097 132.916 39.2934 133.637 39.9015L133.337 40.2574ZM94.2015 37.7939L93.9484 37.4034C94.7391 36.8911 95.5622 36.4065 96.3952 35.9626L96.614 36.3734C95.7927 36.8109 94.981 37.2888 94.2015 37.7939ZM128.774 37.0295C127.972 36.5594 127.141 36.1184 126.302 35.7186L126.502 35.2985C127.353 35.7041 128.196 36.1513 129.009 36.628L128.774 37.0295ZM99.1391 35.1645L98.9562 34.7367C99.8226 34.3666 100.716 34.0292 101.612 33.7337L101.758 34.1756C100.874 34.4669 99.9932 34.7996 99.1391 35.1645ZM123.727 34.6234C122.858 34.2967 121.963 34.0035 121.068 33.7516L121.194 33.3038C122.101 33.5591 123.009 33.8565 123.891 34.1879L123.727 34.6234ZM104.451 33.4133L104.344 32.9606C105.261 32.7426 106.199 32.5614 107.131 32.4219L107.2 32.882C106.28 33.0197 105.356 33.1984 104.451 33.4133V33.4133ZM118.344 33.1088C117.431 32.934 116.5 32.796 115.575 32.6988L115.624 32.236C116.561 32.3346 117.506 32.4745 118.431 32.6519L118.344 33.1088ZM109.983 32.5851L109.954 32.1207C110.895 32.0603 111.848 32.0395 112.791 32.0587L112.782 32.524C111.851 32.5049 110.911 32.5255 109.983 32.5851V32.5851Z" fill="#D0CDE1"/>
<path d="M158.368 98.926C157.427 98.9065 156.474 98.8463 155.536 98.747L155.585 98.2844C156.51 98.3821 157.449 98.4414 158.378 98.4607L158.368 98.926ZM161.206 98.8654L161.177 98.401C162.104 98.3421 163.04 98.2426 163.96 98.1054L164.029 98.5657C163.096 98.7048 162.146 98.8056 161.206 98.8654H161.206ZM152.729 98.3298C151.802 98.1517 150.873 97.932 149.967 97.6764L150.093 97.2283C150.987 97.4805 151.903 97.6973 152.816 97.8727L152.729 98.3298ZM166.816 98.0288L166.709 97.5762C167.615 97.3613 168.521 97.1052 169.403 96.815L169.548 97.2572C168.654 97.5512 167.735 97.8109 166.816 98.0288H166.816ZM147.27 96.7905C146.388 96.4588 145.51 96.0846 144.659 95.6785L144.86 95.2586C145.698 95.659 146.565 96.028 147.434 96.3552L147.27 96.7905ZM172.205 96.2559L172.022 95.8278C172.878 95.4629 173.728 95.0564 174.548 94.6202L174.766 95.031C173.934 95.4736 173.073 95.8857 172.205 96.2559H172.205ZM142.153 94.3475C141.341 93.8708 140.539 93.3528 139.77 92.8079L140.039 92.4281C140.798 92.9654 141.588 93.4762 142.389 93.9463L142.153 94.3475ZM177.214 93.5914L176.961 93.2006C177.74 92.6966 178.509 92.1515 179.245 91.5808L179.53 91.9484C178.783 92.5276 178.004 93.0801 177.214 93.5914ZM137.527 91.0716C136.81 90.4661 136.107 89.8201 135.437 89.1517L135.766 88.8222C136.427 89.4816 137.12 90.1189 137.828 90.7162L137.527 91.0716ZM181.699 90.115L181.384 89.7724C181.721 89.4623 182.059 89.1383 182.388 88.8095C182.719 88.4782 183.047 88.136 183.363 87.7927L183.705 88.1076C183.385 88.4559 183.053 88.8027 182.717 89.1385C182.383 89.4718 182.041 89.8004 181.699 90.115V90.115ZM133.515 87.0636C132.904 86.3422 132.319 85.5872 131.774 84.8199L132.154 84.5504C132.691 85.3073 133.268 86.0516 133.87 86.7632L133.515 87.0636ZM185.537 85.9389L185.169 85.654C185.739 84.9181 186.283 84.1503 186.786 83.3719L187.177 83.6245C186.666 84.4141 186.114 85.1928 185.537 85.9389ZM130.231 82.436C129.753 81.6238 129.304 80.7805 128.897 79.9295L129.317 79.7287C129.718 80.5678 130.161 81.3992 130.632 82.2001L130.231 82.436ZM188.614 81.1783L188.203 80.9599C188.639 80.1399 189.045 79.2905 189.409 78.4354L189.837 78.6178C189.468 79.4852 189.056 80.3466 188.614 81.1783ZM127.782 77.3185C127.449 76.4369 127.15 75.5296 126.894 74.622L127.341 74.4955C127.595 75.3903 127.889 76.2848 128.217 77.1543L127.782 77.3185ZM190.838 75.9621L190.395 75.8167C190.686 74.9344 190.941 74.0282 191.156 73.1234L191.608 73.2307C191.391 74.1483 191.132 75.0672 190.838 75.9621ZM126.238 71.8599C126.06 70.9357 125.919 69.9911 125.819 69.0525L126.281 69.0032C126.38 69.9289 126.519 70.8603 126.695 71.7718L126.238 71.8599ZM192.145 70.4435L191.684 70.3751C191.821 69.4552 191.92 68.5188 191.979 67.5917L192.444 67.6212C192.384 68.5613 192.283 69.5108 192.145 70.4435ZM125.638 66.2199C125.633 65.9776 125.63 65.7352 125.63 65.4927C125.63 64.7926 125.652 64.0826 125.696 63.3821L126.161 63.4112C126.117 64.1022 126.095 64.8023 126.095 65.4925C126.095 65.7315 126.098 65.9706 126.103 66.2099L125.638 66.2199ZM192.039 64.7933C192.019 63.8619 191.959 62.922 191.862 61.9997L192.324 61.9506C192.423 62.8859 192.484 63.839 192.504 64.7833L192.039 64.7933ZM126.454 60.6279L125.994 60.5595C126.132 59.6261 126.312 58.6883 126.528 57.7722L126.981 57.8792C126.768 58.7825 126.59 59.7073 126.454 60.6279ZM191.449 59.2309C191.274 58.3174 191.057 57.401 190.804 56.507L191.252 56.3806C191.508 57.2872 191.728 58.2166 191.906 59.1429L191.449 59.2309ZM127.74 55.1854L127.298 55.0404C127.592 54.1439 127.928 53.2501 128.297 52.384L128.725 52.5662C128.361 53.4203 128.03 54.3015 127.74 55.1854ZM189.93 53.8475C189.603 52.978 189.233 52.1117 188.832 51.2724L189.252 51.0717C189.659 51.923 190.034 52.8017 190.365 53.6836L189.93 53.8475ZM129.929 50.041L129.518 49.8229C129.96 48.9909 130.443 48.1676 130.954 47.3757L131.345 47.6281C130.841 48.4089 130.364 49.2208 129.929 50.041ZM187.518 48.8003C187.047 47.9984 186.535 47.2073 185.998 46.4493L186.377 46.18C186.923 46.949 187.441 47.7512 187.919 48.5645L187.518 48.8003ZM132.961 45.3449L132.593 45.0602C133.169 44.3157 133.785 43.5858 134.424 42.8908L134.766 43.2055C134.137 43.891 133.529 44.6108 132.961 45.3449V45.3449ZM184.283 44.2355C183.683 43.5265 183.046 42.8334 182.388 42.1754L182.363 42.1508L182.69 41.8195L182.717 41.8464C183.384 42.5135 184.03 43.2163 184.638 43.9352L184.283 44.2355ZM136.744 41.2245L136.429 40.8824C137.123 40.2423 137.853 39.6251 138.597 39.0476L138.882 39.4153C138.148 39.9847 137.429 40.5935 136.744 41.2245ZM180.3 40.2574C179.589 39.6577 178.844 39.0821 178.087 38.5464L178.356 38.1665C179.124 38.7098 179.879 39.2935 180.6 39.9016L180.3 40.2574ZM141.165 37.794L140.912 37.4034C141.703 36.8907 142.526 36.4061 143.359 35.9627L143.577 36.3735C142.757 36.8105 141.945 37.2885 141.165 37.794ZM175.737 37.0294C174.936 36.5599 174.105 36.1189 173.265 35.7187L173.465 35.2985C174.317 35.7046 175.16 36.152 175.972 36.6282L175.737 37.0294ZM146.102 35.1645L145.92 34.7367C146.786 34.3664 147.68 34.029 148.575 33.7337L148.721 34.1757C147.838 34.4667 146.957 34.7995 146.102 35.1645ZM170.69 34.6235C169.821 34.297 168.926 34.0037 168.031 33.7517L168.157 33.3039C169.065 33.5592 169.973 33.8568 170.854 34.1879L170.69 34.6235ZM151.415 33.4134L151.307 32.9607C152.225 32.7425 153.163 32.5613 154.094 32.4221L154.163 32.8822C153.244 33.0196 152.32 33.1983 151.415 33.4134ZM165.307 33.1089C164.394 32.934 163.463 32.796 162.539 32.6989L162.587 32.2361C163.525 32.3347 164.469 32.4745 165.395 32.652L165.307 33.1089ZM156.947 32.5852L156.917 32.1208C157.858 32.0603 158.812 32.0391 159.755 32.0587L159.745 32.5241C158.815 32.5049 157.874 32.5256 156.947 32.5852L156.947 32.5852Z" fill="#D0CDE1"/>
<path d="M22.3784 135.802H20.9825V136.268H22.3784V135.802Z" fill="#D0CDE1"/>
<path d="M245.811 136.268H243.018V135.802H245.811V136.268ZM240.225 136.268H237.432V135.802H240.225V136.268ZM234.639 136.268H231.847V135.802H234.639V136.268ZM229.054 136.268H226.261V135.802H229.054V136.268ZM223.468 136.268H220.675V135.802H223.468V136.268ZM217.882 136.268H215.089V135.802H217.882V136.268ZM212.296 136.268H209.503V135.802H212.296V136.268ZM206.71 136.268H203.917V135.802H206.71V136.268ZM201.124 136.268H198.332V135.802H201.124V136.268ZM195.539 136.268H192.746V135.802H195.539V136.268ZM189.953 136.268H187.16V135.802H189.953V136.268ZM184.367 136.268H181.574V135.802H184.367V136.268ZM178.781 136.268H175.988V135.802H178.781V136.268ZM173.195 136.268H170.403V135.802H173.195V136.268ZM167.61 136.268H164.817V135.802H167.61V136.268ZM162.024 136.268H159.231V135.802H162.024V136.268ZM156.438 136.268H153.645V135.802H156.438V136.268ZM150.852 136.268H148.059V135.802H150.852V136.268ZM145.266 136.268H142.473V135.802H145.266V136.268ZM139.681 136.268H136.888V135.802H139.681V136.268ZM134.095 136.268H131.302V135.802H134.095V136.268ZM128.509 136.268H125.716V135.802H128.509L128.509 136.268ZM122.923 136.268H120.13V135.802H122.923V136.268ZM117.337 136.268H114.544V135.802H117.337V136.268ZM111.751 136.268H108.959V135.802H111.751V136.268ZM106.166 136.268H103.373V135.802H106.166V136.268ZM100.58 136.268H97.787V135.802H100.58L100.58 136.268ZM94.9941 136.268H92.2011V135.802H94.9941V136.268ZM89.4082 136.268H86.6154V135.802H89.4082L89.4082 136.268ZM83.8224 136.268H81.0295V135.802H83.8224L83.8224 136.268ZM78.2366 136.268H75.4437V135.802H78.2366L78.2366 136.268ZM72.6508 136.268H69.8579V135.802H72.6508L72.6508 136.268ZM67.065 136.268H64.272V135.802H67.065V136.268ZM61.4792 136.268H58.6863V135.802H61.4791L61.4792 136.268ZM55.8933 136.268H53.1004V135.802H55.8933V136.268ZM50.3075 136.268H47.5145V135.802H50.3075L50.3075 136.268ZM44.7217 136.268H41.9288V135.802H44.7217L44.7217 136.268ZM39.1359 136.268H36.3429V135.802H39.1359V136.268ZM33.5501 136.268H30.7572V135.802H33.5501L33.5501 136.268ZM27.9642 136.268H25.1713V135.802H27.9642L27.9642 136.268Z" fill="#D0CDE1"/>
<path d="M250 135.802H248.604V136.268H250V135.802Z" fill="#D0CDE1"/>
<path d="M51.8887 129.536L51.9236 129.428L52.5913 127.397L43.9688 127.921L51.8887 129.536Z" fill="#FFB9B9"/>
<path d="M42.1114 89.767L47.3512 103.105C47.3512 103.105 46.8749 114.537 53.0674 113.584C59.2599 112.632 52.1147 101.199 52.1147 101.199L48.3039 87.3853C48.3039 87.3853 43.5404 86.4326 42.1114 89.767Z" fill="#FFB9B9"/>
<path d="M33.299 47.1338C38.0344 47.1338 41.8732 43.295 41.8732 38.5596C41.8732 33.8242 38.0344 29.9854 33.299 29.9854C28.5635 29.9854 24.7247 33.8242 24.7247 38.5596C24.7247 43.295 28.5635 47.1338 33.299 47.1338Z" fill="#FFB9B9"/>
<path d="M26.8683 41.1794C26.8683 41.1794 24.0102 50.7064 22.1048 50.7064C20.1994 50.7064 34.9662 56.4225 34.9662 56.4225C34.9662 56.4225 31.1554 52.6117 34.9662 45.4666L26.8683 41.1794Z" fill="#FFB9B9"/>
<path d="M51.8887 129.536C51.9934 129.517 52.0981 129.498 52.2005 129.48C54.7039 129.028 56.3 128.496 56.4024 127.874C56.6001 126.685 54.9017 120.466 52.8519 113.61C50.5532 105.93 47.8148 97.449 46.8003 94.3336C46.5444 93.5449 46.3978 93.1005 46.3978 93.1005L45.4811 87.3653L44.4923 81.1927L21.1515 87.3863L17.8174 93.1005L17.1078 95.1712V95.1735L16.0631 98.2284L14.004 104.247L8.22235 121.148L43.9688 127.921L51.8887 129.536Z" fill="#2F2E41"/>
<path d="M24.9629 49.7537C24.9629 49.7537 31.5682 51.5074 33.5054 53.4886L36.8716 55.4699L41.1587 64.5205C41.1587 64.5205 44.4931 65.9495 44.4931 72.142C44.4931 78.3345 49.2566 88.8141 49.2566 88.8141C49.2566 88.8141 52.591 91.6722 50.2093 93.1013C47.8275 94.5303 44.9695 94.5303 44.9695 94.5303C44.9695 94.5303 47.3512 85.4797 42.5877 85.0034C37.8243 84.527 35.4425 84.0507 34.9662 85.0034C34.4898 85.9561 21.6285 99.7701 16.3887 98.3411C11.1489 96.912 14.0069 82.6216 14.0069 82.6216L18.2941 49.2774C18.2941 49.2774 21.6285 48.801 23.5339 49.2774C25.4393 49.7537 24.9629 49.7537 24.9629 49.7537Z" fill="#575A89"/>
<path d="M31.1468 118.027C31.9422 118.027 32.5869 117.382 32.5869 116.586C32.5869 115.791 31.9422 115.146 31.1468 115.146C30.3515 115.146 29.7067 115.791 29.7067 116.586C29.7067 117.382 30.3515 118.027 31.1468 118.027Z" fill="#CFCCE0"/>
<path d="M25.5582 117.455L26.9931 118.728L40.982 123.2L41.1917 122.822L33.0754 118.316C32.65 118.791 32.0647 119.092 31.4313 119.162C30.7978 119.232 30.1607 119.067 29.6416 118.697C29.1225 118.327 28.7578 117.779 28.6171 117.158C28.4764 116.536 28.5697 115.885 28.879 115.327C29.1884 114.77 29.6921 114.347 30.2941 114.137C30.8961 113.928 31.554 113.948 32.1423 114.193C32.7306 114.438 33.208 114.891 33.4833 115.466C33.7586 116.041 33.8125 116.697 33.6347 117.309L41.7509 121.815L41.9607 121.437L30.7678 111.929L28.9795 111.293L29.4805 110.39L28.2214 109.691L27.2428 111.454L19.8142 107.33L17.2977 111.863L24.7263 115.987L23.7476 117.75L25.0067 118.449L25.5582 117.455Z" fill="#CFCCE0"/>
<path d="M8.76712 89.767L14.0069 103.105C14.0069 103.105 13.5306 114.537 19.7231 113.584C25.9156 112.632 18.7704 101.199 18.7704 101.199L14.9596 87.3853C14.9596 87.3853 10.1962 86.4326 8.76712 89.767Z" fill="#FFB9B9"/>
<path d="M19.2467 49.7538L18.294 49.2774C18.294 49.2774 15.436 46.4194 12.1015 50.2301C8.76711 54.0409 5.43269 74.0475 5.43269 74.0475V80.24C5.43269 80.24 1.62191 85.4798 4.95634 88.3379C8.29076 91.1959 8.76711 91.6723 8.76711 91.6723C8.76711 91.6723 12.1015 86.9088 15.9123 89.2906L16.3886 87.3852C16.7743 86.9579 17.0952 86.4764 17.3413 85.9561C17.8177 85.0034 18.7704 86.4325 18.294 85.0034C17.8177 83.5744 18.294 83.0981 18.294 82.6217C18.294 82.1454 18.7704 79.7636 18.7704 79.7636L18.294 64.9969L19.2467 49.7538Z" fill="#575A89"/>
<path d="M43.9823 36.5282C43.9823 36.5282 50.9479 21.3416 32.7438 21.3579C32.7438 21.3579 21.5752 15.4907 13.0703 29.0973L4.29358 43.4036L6.53599 42.9579L6.82061 45.1902L9.68187 46.9455L11.8339 44.7214L11.478 48.1261L36.1314 58.5961C36.1314 58.5961 26.8368 48.3034 30.4222 36.1682L31.8776 39.1388L43.9823 36.5282Z" fill="#2F2E41"/>
<path d="M28.9729 43.3958C29.6375 43.3958 30.1764 42.3181 30.1764 40.9888C30.1764 39.6594 29.6375 38.5818 28.9729 38.5818C28.3082 38.5818 27.7693 39.6594 27.7693 40.9888C27.7693 42.3181 28.3082 43.3958 28.9729 43.3958Z" fill="#FFB9B9"/>
</g>
<defs>
<clipPath id="clip0">
<rect width="250" height="156.066" fill="white"/>
</clipPath>
</defs>
</svg>
