<svg width="250" height="216" viewBox="0 0 250 216" fill="none" xmlns="http://www.w3.org/2000/svg">
<g clip-path="url(#clip0)">
<path opacity="0.1" d="M227.9 116.714C218.186 133.278 219.509 155.55 223.292 173.051C224.557 178.91 226.028 185.081 224.718 191.706C223.116 199.794 217.73 206.232 212.332 209.959C202.492 216.755 191.409 216.803 183.474 210.087C176.616 204.281 172.229 194.002 165.218 188.516C153.487 179.34 137.041 185.399 122.673 194.509C112.509 200.954 101.305 209.086 92.1156 204.811C85.6498 201.804 81.754 193.014 80.0441 183.394C79.2173 178.751 78.7643 173.668 76.7293 170.158C75.5186 168.072 73.8266 166.695 72.0681 165.574C56.0009 155.335 33.811 164.65 18.353 153.011C7.91201 145.15 2.21158 128.586 0.581056 110.776C-1.04947 92.9656 0.952211 73.8319 3.36088 54.9746C5.07331 41.5798 7.31816 27.2276 14.045 16.2183C21.161 4.57173 32.1267 -0.793381 41.5464 0.0922723C50.966 0.977926 59.0393 7.25941 65.953 14.9846C74.592 24.6448 82.312 37.0491 93.6796 39.9851C101.423 41.9842 109.975 39.3016 118.273 37.7095C132.144 35.0474 145.762 35.4416 159.279 36.0457C172.221 36.6242 185.237 37.4126 197.214 42.0738C205.689 45.3732 212.104 52.4764 219.995 57.0173C225.133 59.9763 230.989 60.2425 235.75 64.233C241.617 69.1502 246.596 78.3497 243.977 90.1627C241.486 101.402 233.065 107.922 227.9 116.714Z" fill="black"/>
<path d="M41.659 168.935C41.659 168.935 24.5807 140.647 29.3725 115.265C31.3869 104.612 30.0917 93.59 25.3128 83.858C23.0378 79.2444 20.3448 74.849 17.2677 70.7268" stroke="#3F3D56" stroke-width="2" stroke-miterlimit="10"/>
<path d="M20.2062 54.7159C21.1917 58.4735 17.2498 71.1542 17.2498 71.1542C17.2498 71.1542 7.58693 62.0443 6.59888 58.2867C6.12367 56.4822 6.38474 54.5629 7.32465 52.951C8.26456 51.339 9.80632 50.1664 11.6108 49.6912C13.4152 49.216 15.3345 49.4771 16.9465 50.417C18.5584 51.3569 19.731 52.8987 20.2062 54.7031V54.7159Z" fill="#FFB8B8"/>
<path d="M36.9159 72.5775C35.7026 76.2685 25.4997 84.7693 25.4997 84.7693C25.4997 84.7693 22.3384 71.871 23.5543 68.1799C23.8331 67.2904 24.2859 66.4653 24.8864 65.7523C25.4869 65.0394 26.2231 64.4529 27.0522 64.027C27.8813 63.6011 28.7869 63.3442 29.7161 63.2713C30.6454 63.1984 31.5799 63.3109 32.4653 63.6023C33.3507 63.8937 34.1694 64.3582 34.8737 64.9688C35.578 65.5793 36.154 66.3238 36.5681 67.1589C36.9822 67.994 37.2262 68.903 37.2859 69.8333C37.3456 70.7635 37.2198 71.6963 36.9159 72.5775Z" fill="#FFB8B8"/>
<path d="M45.7596 108.273C42.8493 110.832 29.7487 113.034 29.7487 113.034C29.7487 113.034 33.532 100.304 36.4423 97.7317C37.8444 96.5268 39.6645 95.9223 41.5089 96.049C43.3532 96.1757 45.0736 97.0234 46.2978 98.4087C47.5219 99.794 48.1515 101.606 48.0503 103.452C47.9492 105.297 47.1253 107.029 45.7571 108.273H45.7596Z" fill="#FFB8B8"/>
<path d="M46.3714 136.787C43.9371 139.815 31.3972 144.185 31.3972 144.185C31.3972 144.185 32.974 130.997 35.4082 127.972C36.5807 126.529 38.2769 125.609 40.1258 125.413C41.9748 125.217 43.8261 125.761 45.2751 126.926C46.7241 128.091 47.6528 129.782 47.8582 131.63C48.0636 133.478 47.5291 135.332 46.3714 136.787Z" fill="#FFB8B8"/>
<path d="M11.406 89.2463C14.7873 91.1558 28.044 90.5722 28.044 90.5722C28.044 90.5722 21.696 78.9076 18.3172 77.0058C17.5116 76.5236 16.6176 76.2076 15.6879 76.0764C14.7582 75.9451 13.8117 76.0014 12.9041 76.2417C11.9965 76.482 11.1462 76.9016 10.4034 77.4758C9.6605 78.0499 9.04008 78.767 8.57869 79.5846C8.1173 80.4023 7.82428 81.3041 7.71689 82.2368C7.60951 83.1695 7.68993 84.1143 7.95342 85.0155C8.21692 85.9166 8.65815 86.7559 9.25111 87.4838C9.84407 88.2118 10.5768 88.8136 11.406 89.2539V89.2463Z" fill="#FFB8B8"/>
<path d="M12.5425 122.586C16.3411 123.398 28.8273 118.87 28.8273 118.87C28.8273 118.87 19.2847 109.639 15.4785 108.825C13.654 108.436 11.7496 108.787 10.1842 109.802C8.6188 110.817 7.52064 112.412 7.13131 114.237C6.74198 116.061 7.09335 117.965 8.10815 119.531C9.12294 121.096 10.718 122.194 12.5425 122.584V122.586Z" fill="#FFB8B8"/>
<path d="M18.0945 154.838C21.7011 156.279 34.7734 153.927 34.7734 153.927C34.7734 153.927 26.9228 143.215 23.3162 141.774C21.6013 141.158 19.7144 141.232 18.0529 141.98C16.3914 142.728 15.0848 144.091 14.4084 145.783C13.732 147.475 13.7385 149.363 14.4265 151.05C15.1145 152.737 16.4304 154.092 18.097 154.828L18.0945 154.838Z" fill="#FFB8B8"/>
<path d="M20.2062 54.7159C21.1917 58.4735 17.2498 71.1542 17.2498 71.1542C17.2498 71.1542 7.58693 62.0443 6.59888 58.2867C6.12367 56.4822 6.38474 54.5629 7.32465 52.951C8.26456 51.339 9.80632 50.1664 11.6108 49.6912C13.4152 49.216 15.3345 49.4771 16.9465 50.417C18.5584 51.3569 19.731 52.8987 20.2062 54.7031V54.7159Z" fill="#FFB8B8"/>
<path d="M36.9159 72.5775C35.7026 76.2685 25.4997 84.7693 25.4997 84.7693C25.4997 84.7693 22.3384 71.871 23.5543 68.1799C23.8331 67.2904 24.2859 66.4653 24.8864 65.7523C25.4869 65.0394 26.2231 64.4529 27.0522 64.027C27.8813 63.6011 28.7869 63.3442 29.7161 63.2713C30.6454 63.1984 31.5799 63.3109 32.4653 63.6023C33.3507 63.8937 34.1694 64.3582 34.8737 64.9688C35.578 65.5793 36.154 66.3238 36.5681 67.1589C36.9822 67.994 37.2262 68.903 37.2859 69.8333C37.3456 70.7635 37.2198 71.6963 36.9159 72.5775Z" fill="#FFB8B8"/>
<path d="M45.7596 108.273C42.8493 110.832 29.7487 113.034 29.7487 113.034C29.7487 113.034 33.532 100.304 36.4423 97.7317C37.8444 96.5268 39.6645 95.9223 41.5089 96.049C43.3532 96.1757 45.0736 97.0234 46.2978 98.4087C47.5219 99.794 48.1515 101.606 48.0503 103.452C47.9492 105.297 47.1253 107.029 45.7571 108.273H45.7596Z" fill="#FC6681"/>
<path d="M46.3714 136.787C43.9371 139.815 31.3972 144.185 31.3972 144.185C31.3972 144.185 32.974 130.997 35.4082 127.972C36.5807 126.529 38.2769 125.609 40.1258 125.413C41.9748 125.217 43.8261 125.761 45.2751 126.926C46.7241 128.091 47.6528 129.782 47.8582 131.63C48.0636 133.478 47.5291 135.332 46.3714 136.787Z" fill="#FC6681"/>
<path d="M11.406 89.2463C14.7873 91.1558 28.044 90.5722 28.044 90.5722C28.044 90.5722 21.696 78.9076 18.3172 77.0058C17.5116 76.5236 16.6176 76.2076 15.6879 76.0764C14.7582 75.9451 13.8117 76.0014 12.9041 76.2417C11.9965 76.482 11.1462 76.9016 10.4034 77.4758C9.6605 78.0499 9.04008 78.767 8.57869 79.5846C8.1173 80.4023 7.82428 81.3041 7.71689 82.2368C7.60951 83.1695 7.68993 84.1143 7.95342 85.0155C8.21692 85.9166 8.65815 86.7559 9.25111 87.4838C9.84407 88.2118 10.5768 88.8136 11.406 89.2539V89.2463Z" fill="#FFB8B8"/>
<path d="M12.5425 122.586C16.3411 123.398 28.8273 118.87 28.8273 118.87C28.8273 118.87 19.2847 109.639 15.4785 108.825C13.654 108.436 11.7496 108.787 10.1842 109.802C8.6188 110.817 7.52064 112.412 7.13131 114.237C6.74198 116.061 7.09335 117.965 8.10815 119.531C9.12294 121.096 10.718 122.194 12.5425 122.584V122.586Z" fill="#FFB8B8"/>
<path d="M18.0945 154.838C21.7011 156.279 34.7734 153.927 34.7734 153.927C34.7734 153.927 26.9228 143.215 23.3162 141.774C21.6013 141.158 19.7144 141.232 18.0529 141.98C16.3914 142.728 15.0848 144.091 14.4084 145.783C13.732 147.475 13.7385 149.363 14.4265 151.05C15.1145 152.737 16.4304 154.092 18.097 154.828L18.0945 154.838Z" fill="#FFB8B8"/>
<path opacity="0.1" d="M127.007 180.607C194.934 180.607 250 176.825 250 172.16C250 167.495 194.934 163.713 127.007 163.713C59.0795 163.713 4.0136 167.495 4.0136 172.16C4.0136 176.825 59.0795 180.607 127.007 180.607Z" fill="#FFB8B8"/>
<path d="M232.842 164.924C232.842 164.924 232.638 164.65 232.353 164.343L232.435 164.314C232.435 164.314 228.78 155.179 229.594 151.321C230.408 147.464 226.346 138.126 226.346 138.126C226.346 138.126 220.354 125.855 223.19 116.062C223.514 114.908 223.758 113.734 223.922 112.547C224.769 106.747 224.47 105.552 223.049 103.432L222.893 103.204C223.068 103.034 223.207 102.829 223.3 102.603C224.518 99.3545 217.617 93.4672 219.453 87.9844C221.147 82.9034 216.737 72.4189 216.082 70.9112L216.007 70.7397L215.787 70.8114C215.824 69.5022 216.339 68.2518 217.236 67.2969L217.277 67.256C217.886 66.6954 218.626 66.2833 219.197 65.6818L219.23 65.6434C219.286 65.5896 219.345 65.5359 219.399 65.4796C219.965 64.8857 220.351 64.0052 220.044 63.2424C219.765 62.5462 218.982 62.1212 218.797 61.3943C218.753 61.0674 218.726 60.7385 218.715 60.4088C218.567 59.3849 217.571 58.7424 216.668 58.2356C215.544 57.6008 214.364 56.9558 213.066 56.9404C211.31 56.9404 209.739 58.1179 207.995 58.2638C207.402 58.315 206.785 58.2433 206.222 58.4404C205.792 58.6191 205.398 58.8721 205.057 59.1878C204.856 59.3456 204.666 59.5167 204.489 59.6998C204.094 60.0684 203.759 60.5035 203.775 61.0257C203.803 61.407 203.982 61.7614 204.271 62.0112C203.709 62.7754 203.322 63.6534 203.135 64.5835C202.949 65.5136 202.969 66.4732 203.193 67.3948C203.417 68.3165 203.84 69.1779 204.433 69.9185C205.026 70.6591 205.773 71.2609 206.623 71.6817C206.644 71.8225 206.664 71.9658 206.685 72.1168C206.941 74.0392 207.092 76.7576 206.408 78.8872C203.493 80.3898 198.949 82.8394 198.135 83.9273C198.072 84.0193 198.03 84.124 198.011 84.2341C197.993 84.3442 197.999 84.457 198.028 84.5646C198.005 84.6645 198 84.7676 198.013 84.8692C197.375 85.0151 196.528 84.8692 195.496 83.9273C193.06 81.6952 185.347 74.9939 185.347 74.9939C185.347 74.9939 181.897 66.4676 179.46 68.0828C177.023 69.6979 182.301 77.6253 182.301 77.6253L193.856 90.0142C193.856 90.0142 194.263 92.6532 198.525 91.2326C199.932 90.7642 201.205 90.3162 202.28 89.9297L202.536 90.1473C201.576 95.7633 201.079 103.248 204.619 105.444C204.896 105.812 205.097 106.231 205.208 106.678C205.19 106.744 205.172 106.813 205.157 106.88C204.885 108.001 204.714 109.144 204.645 110.295C203.978 111.82 203.67 113.479 203.746 115.143L202.39 134.471C202.39 134.471 202.187 138.733 203.608 141.981C205.029 145.229 209.495 161.471 206.449 162.689L206.739 162.727C205.866 163.626 204.397 164.988 203.278 165.256C201.578 165.661 202.054 168.267 205.822 168.702C209.59 169.137 210.043 169.101 212.692 166.892C215.027 164.947 215.398 164.076 215.452 163.889L215.585 163.907C215.585 163.907 214.164 158.629 215.585 156.397C217.006 154.165 212.339 140.566 212.339 140.566C212.3 138.828 212.364 137.089 212.531 135.359C213.248 137.235 213.76 138.536 213.76 138.536C213.76 138.536 214.978 144.423 216.399 145.447C217.82 146.471 225.332 160.47 224.114 166.559L223.973 167.268L224.316 167.168H224.347C223.878 168.328 223.026 170.161 222.084 170.834C220.663 171.858 222.084 174.082 225.739 173.066C229.394 172.05 229.799 171.848 231.424 168.804C233.05 165.761 232.842 164.924 232.842 164.924Z" fill="url(#paint0_linear)"/>
<path d="M205.94 110.719L205.049 109.621C204.138 111.314 203.704 113.222 203.792 115.143L202.467 134.041C202.467 134.041 202.267 138.208 203.657 141.385C205.047 144.561 209.414 160.439 206.437 161.629L215.357 162.835C215.357 162.835 213.967 157.674 215.357 155.491C216.747 153.308 212.181 140.01 212.181 140.01C212.181 140.01 211.784 128.896 215.554 126.313C219.325 123.73 205.94 110.719 205.94 110.719Z" fill="#555388"/>
<path d="M207.445 160.884C207.445 160.884 204.995 163.746 203.337 164.143C201.678 164.54 202.141 167.084 205.825 167.511C209.508 167.939 209.951 167.903 212.544 165.743C215.137 163.582 215.252 162.771 215.252 162.771C215.252 162.771 214.74 160.851 214.121 160.81C213.501 160.769 207.445 160.884 207.445 160.884Z" fill="#603556"/>
<path opacity="0.1" d="M206.536 111.316L205.052 109.621C204.141 111.314 203.706 113.222 203.795 115.143L202.469 134.041C202.469 134.041 202.269 138.208 203.659 141.385C205.049 144.561 209.416 160.439 206.439 161.629L215.357 162.835C215.357 162.835 213.967 157.674 215.357 155.491C216.747 153.308 212.181 140.01 212.181 140.01C212.181 140.01 211.784 128.896 215.554 126.313C219.325 123.73 206.536 111.316 206.536 111.316Z" fill="black"/>
<path d="M215.372 137.217C215.372 137.217 212.892 88.5295 202.71 71.2977C202.71 71.2977 195.243 57.6597 189.003 53.6819V52.1102C178.82 45.0608 166.29 52.1102 166.29 52.1102V52.8065L163.68 54.9822L151.923 54.9413C151.391 54.2999 150.724 53.7839 149.969 53.4299C149.215 53.076 148.392 52.8928 147.559 52.8935H93.9125C93.1284 52.8926 92.3527 53.0546 91.6345 53.3692C90.9163 53.6838 90.2712 54.1442 89.7402 54.7211H77.5305C77.5305 54.7211 76.8112 53.8841 74.9196 53.042V52.1102C64.7372 45.0608 52.2075 52.1102 52.2075 52.1102V54.0019C51.9098 54.1984 51.6454 54.4412 51.4242 54.7211C51.4242 54.7211 41.1112 61.6323 38.7614 70.2533C38.7614 70.2533 26.0986 108.239 25.8375 138.001C25.5764 167.762 37.0643 171.94 43.0668 172.723C49.0693 173.506 59.7739 172.467 70.2175 146.102L74.656 130.7C74.656 130.7 75.4392 121.562 84.8384 127.306C94.2376 133.05 102.59 124.173 102.59 124.173H137.837C137.837 124.173 149.573 131.473 160.288 125.719C160.288 125.719 164.465 120.236 168.382 138.774C168.382 138.774 180.392 176.89 198.926 172.974C217.461 169.057 215.372 137.217 215.372 137.217Z" fill="url(#paint1_linear)"/>
<path d="M53.5436 56.0777V53.2621C53.5436 53.2621 65.8302 46.3509 75.813 53.2621V55.8218L53.5436 56.0777Z" fill="#3F3D56"/>
<path d="M165.402 56.0777V53.2621C165.402 53.2621 177.689 46.3509 187.672 53.2621V55.8218L165.402 56.0777Z" fill="#3F3D56"/>
<path opacity="0.1" d="M53.5436 56.0777V53.2621C53.5436 53.2621 65.8302 46.3509 75.813 53.2621V55.8218L53.5436 56.0777Z" fill="black"/>
<path opacity="0.1" d="M165.402 56.0777V53.2621C165.402 53.2621 177.689 46.3509 187.672 53.2621V55.8218L165.402 56.0777Z" fill="black"/>
<path d="M90.4032 55.8218H78.3727C78.3727 55.8218 75.301 52.2382 65.0623 52.4942C54.8235 52.7501 52.7757 55.8218 52.7757 55.8218C52.7757 55.8218 42.665 62.605 40.3612 71.0519C40.3612 71.0519 27.9467 108.295 27.6908 137.476C27.4348 166.656 38.6974 170.752 44.5847 171.52C50.472 172.288 60.9668 171.264 71.2055 145.411L75.557 130.309C75.557 130.309 76.3249 121.35 85.5398 126.981C94.7547 132.613 102.946 123.91 102.946 123.91H137.502C137.502 123.91 149.02 131.077 159.515 125.445C159.515 125.445 163.61 120.07 167.45 138.244C167.45 138.244 179.225 175.615 197.398 171.776C215.572 167.936 213.524 136.708 213.524 136.708C213.524 136.708 211.093 88.9698 201.11 72.0758C201.11 72.0758 191.511 54.5419 185.112 53.774C185.112 53.774 171.29 51.2143 165.914 53.518L162.843 56.0777L90.4032 55.8218Z" fill="#3F3D56"/>
<path d="M62.5026 103.176C74.8016 103.176 84.7719 93.2058 84.7719 80.9068C84.7719 68.6078 74.8016 58.6375 62.5026 58.6375C50.2035 58.6375 40.2332 68.6078 40.2332 80.9068C40.2332 93.2058 50.2035 103.176 62.5026 103.176Z" fill="#FFB8B8"/>
<path d="M178.713 103.176C191.012 103.176 200.982 93.2058 200.982 80.9068C200.982 68.6078 191.012 58.6375 178.713 58.6375C166.414 58.6375 156.443 68.6078 156.443 80.9068C156.443 93.2058 166.414 103.176 178.713 103.176Z" fill="#FFB8B8"/>
<path d="M66.383 75.941L63.4138 78.5672C63.1623 78.7886 62.8388 78.9107 62.5038 78.9107C62.1688 78.9107 61.8453 78.7886 61.5939 78.5672L58.6195 75.941C58.474 75.8128 58.3573 75.6553 58.277 75.4789C58.1968 75.3024 58.1547 75.111 58.1536 74.9171V67.6911C58.1543 67.3263 58.2997 66.9767 58.5579 66.719C58.8161 66.4613 59.166 66.3165 59.5308 66.3165H65.482C65.663 66.3162 65.8422 66.3516 66.0094 66.4207C66.1766 66.4898 66.3286 66.5912 66.4565 66.7191C66.5845 66.8471 66.6859 66.999 66.755 67.1662C66.8241 67.3335 66.8595 67.5127 66.8591 67.6936V74.912C66.8575 75.1075 66.8142 75.3004 66.7321 75.4779C66.65 75.6553 66.531 75.8132 66.383 75.941Z" fill="#3F3D56"/>
<path d="M66.383 85.87L63.4138 83.2463C63.1623 83.0249 62.8388 82.9028 62.5038 82.9028C62.1688 82.9028 61.8453 83.0249 61.5939 83.2463L58.6195 85.8726C58.474 86.0007 58.3573 86.1582 58.277 86.3347C58.1968 86.5111 58.1547 86.7026 58.1536 86.8964V94.1148C58.1533 94.2957 58.1887 94.4749 58.2578 94.6422C58.3269 94.8094 58.4283 94.9613 58.5562 95.0893C58.6842 95.2172 58.8361 95.3187 59.0034 95.3877C59.1706 95.4568 59.3498 95.4922 59.5308 95.4919H65.482C65.6627 95.4922 65.8418 95.4569 66.0088 95.388C66.1759 95.3191 66.3277 95.2179 66.4556 95.0902C66.5835 94.9625 66.685 94.8109 66.7542 94.6439C66.8235 94.477 66.8591 94.2981 66.8591 94.1173V86.899C66.8575 86.7035 66.8142 86.5106 66.7321 86.3331C66.65 86.1557 66.531 85.9978 66.383 85.87Z" fill="#3F3D56"/>
<path d="M57.5393 84.7924L60.1656 81.818C60.3869 81.5666 60.509 81.2431 60.509 80.9081C60.509 80.5731 60.3869 80.2495 60.1656 79.9981L57.5393 77.0237C57.4111 76.8784 57.2536 76.7618 57.0771 76.6815C56.9007 76.6012 56.7093 76.5591 56.5154 76.5579H49.2971C48.9323 76.5585 48.5827 76.7039 48.325 76.9621C48.0673 77.2203 47.9225 77.5702 47.9225 77.935V83.8863C47.9222 84.0672 47.9576 84.2464 48.0267 84.4137C48.0958 84.5809 48.1972 84.7329 48.3251 84.8608C48.4531 84.9887 48.605 85.0902 48.7723 85.1593C48.9395 85.2283 49.1187 85.2637 49.2997 85.2634H56.518C56.7118 85.2613 56.903 85.2183 57.079 85.1371C57.255 85.056 57.4119 84.9385 57.5393 84.7924Z" fill="#3F3D56"/>
<path d="M67.4684 84.7924L64.8472 81.8155C64.6254 81.5643 64.5029 81.2406 64.5029 80.9055C64.5029 80.5703 64.6254 80.2467 64.8472 79.9955L67.4735 77.0212C67.6016 76.8757 67.7591 76.759 67.9356 76.6787C68.112 76.5984 68.3035 76.5564 68.4974 76.5553H75.7157C75.8966 76.555 76.0759 76.5904 76.2431 76.6594C76.4103 76.7285 76.5623 76.83 76.6902 76.9579C76.8182 77.0858 76.9196 77.2378 76.9887 77.405C77.0578 77.5722 77.0932 77.7515 77.0928 77.9324V83.8837C77.0932 84.0644 77.0579 84.2434 76.9889 84.4105C76.92 84.5775 76.8188 84.7294 76.6911 84.8573C76.5634 84.9852 76.4118 85.0867 76.2449 85.1559C76.0779 85.2251 75.899 85.2608 75.7183 85.2608H68.4999C68.3046 85.2605 68.1115 85.2186 67.9336 85.1378C67.7558 85.057 67.5971 84.9393 67.4684 84.7924Z" fill="#3F3D56"/>
<path d="M58.663 64.5247H66.3421L62.5026 61.1971L58.663 64.5247Z" stroke="#3F3D56" stroke-width="2" stroke-miterlimit="10"/>
<path d="M58.663 97.2888H66.3421L62.5026 100.616L58.663 97.2888Z" stroke="#3F3D56" stroke-width="2" stroke-miterlimit="10"/>
<path d="M46.1205 77.0673V84.7463L42.7929 80.9068L46.1205 77.0673Z" stroke="#3F3D56" stroke-width="2" stroke-miterlimit="10"/>
<path d="M78.8846 77.0673V84.7463L82.2122 80.9068L78.8846 77.0673Z" stroke="#3F3D56" stroke-width="2" stroke-miterlimit="10"/>
<path d="M92.7069 121.35C101.613 121.35 108.833 114.13 108.833 105.224C108.833 96.3177 101.613 89.0978 92.7069 89.0978C83.8008 89.0978 76.5809 96.3177 76.5809 105.224C76.5809 114.13 83.8008 121.35 92.7069 121.35Z" fill="#FFB8B8"/>
<path d="M92.195 113.415C98.1324 113.415 102.946 108.602 102.946 102.664C102.946 96.7267 98.1324 91.9135 92.195 91.9135C86.2575 91.9135 81.4443 96.7267 81.4443 102.664C81.4443 108.602 86.2575 113.415 92.195 113.415Z" fill="#3F3D56"/>
<path d="M148.508 121.35C157.414 121.35 164.634 114.13 164.634 105.224C164.634 96.3177 157.414 89.0978 148.508 89.0978C139.602 89.0978 132.382 96.3177 132.382 105.224C132.382 114.13 139.602 121.35 148.508 121.35Z" fill="#FFB8B8"/>
<path d="M147.996 113.415C153.934 113.415 158.747 108.602 158.747 102.664C158.747 96.7267 153.934 91.9135 147.996 91.9135C142.059 91.9135 137.246 96.7267 137.246 102.664C137.246 108.602 142.059 113.415 147.996 113.415Z" fill="#3F3D56"/>
<path opacity="0.1" d="M92.195 109.831C96.1533 109.831 99.3621 106.623 99.3621 102.664C99.3621 98.7059 96.1533 95.4971 92.195 95.4971C88.2367 95.4971 85.0278 98.7059 85.0278 102.664C85.0278 106.623 88.2367 109.831 92.195 109.831Z" stroke="black" stroke-width="2" stroke-miterlimit="10"/>
<path opacity="0.1" d="M147.996 109.831C151.955 109.831 155.163 106.623 155.163 102.664C155.163 98.7059 151.955 95.4971 147.996 95.4971C144.038 95.4971 140.829 98.7059 140.829 102.664C140.829 106.623 144.038 109.831 147.996 109.831Z" stroke="black" stroke-width="2" stroke-miterlimit="10"/>
<path d="M121.12 111.623C123.664 111.623 125.727 109.56 125.727 107.016C125.727 104.471 123.664 102.408 121.12 102.408C118.575 102.408 116.512 104.471 116.512 107.016C116.512 109.56 118.575 111.623 121.12 111.623Z" fill="#FFB8B8"/>
<path d="M114.078 92.6429C114.633 92.6429 115.084 92.1925 115.084 91.6369C115.084 91.0814 114.633 90.631 114.078 90.631C113.522 90.631 113.072 91.0814 113.072 91.6369C113.072 92.1925 113.522 92.6429 114.078 92.6429Z" fill="#FFB8B8"/>
<path d="M117.846 92.6429C118.401 92.6429 118.852 92.1925 118.852 91.6369C118.852 91.0814 118.401 90.631 117.846 90.631C117.29 90.631 116.84 91.0814 116.84 91.6369C116.84 92.1925 117.29 92.6429 117.846 92.6429Z" fill="#FFB8B8"/>
<path d="M117.344 97.4168C117.9 97.4168 118.35 96.9664 118.35 96.4109C118.35 95.8553 117.9 95.4049 117.344 95.4049C116.788 95.4049 116.338 95.8553 116.338 96.4109C116.338 96.9664 116.788 97.4168 117.344 97.4168Z" fill="#FFB8B8"/>
<path d="M120.864 97.5448C121.429 97.5448 121.887 97.0864 121.887 96.521C121.887 95.9555 121.429 95.4971 120.864 95.4971C120.298 95.4971 119.84 95.9555 119.84 96.521C119.84 97.0864 120.298 97.5448 120.864 97.5448Z" fill="#FFB8B8"/>
<path d="M124.378 97.4168C124.934 97.4168 125.384 96.9664 125.384 96.4109C125.384 95.8553 124.934 95.4049 124.378 95.4049C123.822 95.4049 123.372 95.8553 123.372 96.4109C123.372 96.9664 123.822 97.4168 124.378 97.4168Z" fill="#FFB8B8"/>
<path d="M115.836 95.1566C116.392 95.1566 116.842 94.7062 116.842 94.1506C116.842 93.595 116.392 93.1447 115.836 93.1447C115.281 93.1447 114.83 93.595 114.83 94.1506C114.83 94.7062 115.281 95.1566 115.836 95.1566Z" fill="#FFB8B8"/>
<path d="M119.072 95.2411C119.637 95.2411 120.096 94.7827 120.096 94.2172C120.096 93.6518 119.637 93.1934 119.072 93.1934C118.506 93.1934 118.048 93.6518 118.048 94.2172C118.048 94.7827 118.506 95.2411 119.072 95.2411Z" fill="#FFB8B8"/>
<path d="M122.399 95.2411C122.965 95.2411 123.423 94.7827 123.423 94.2172C123.423 93.6518 122.965 93.1934 122.399 93.1934C121.834 93.1934 121.375 93.6518 121.375 94.2172C121.375 94.7827 121.834 95.2411 122.399 95.2411Z" fill="#FFB8B8"/>
<path d="M125.886 95.1566C126.441 95.1566 126.892 94.7062 126.892 94.1506C126.892 93.595 126.441 93.1447 125.886 93.1447C125.33 93.1447 124.88 93.595 124.88 94.1506C124.88 94.7062 125.33 95.1566 125.886 95.1566Z" fill="#FFB8B8"/>
<path d="M120.864 92.6813C121.429 92.6813 121.887 92.2229 121.887 91.6574C121.887 91.092 121.429 90.6335 120.864 90.6335C120.298 90.6335 119.84 91.092 119.84 91.6574C119.84 92.2229 120.298 92.6813 120.864 92.6813Z" fill="#FFB8B8"/>
<path d="M124.447 92.6813C125.013 92.6813 125.471 92.2229 125.471 91.6574C125.471 91.092 125.013 90.6335 124.447 90.6335C123.882 90.6335 123.423 91.092 123.423 91.6574C123.423 92.2229 123.882 92.6813 124.447 92.6813Z" fill="#FFB8B8"/>
<path d="M127.393 92.6429C127.949 92.6429 128.399 92.1925 128.399 91.6369C128.399 91.0814 127.949 90.631 127.393 90.631C126.838 90.631 126.387 91.0814 126.387 91.6369C126.387 92.1925 126.838 92.6429 127.393 92.6429Z" fill="#FFB8B8"/>
<path d="M84.132 57.6136H82.8521C81.6505 57.6136 80.6764 58.5878 80.6764 59.7894V65.1647C80.6764 66.3664 81.6505 67.3405 82.8521 67.3405H84.132C85.3336 67.3405 86.3077 66.3664 86.3077 65.1647V59.7894C86.3077 58.5878 85.3336 57.6136 84.132 57.6136Z" fill="#FFB8B8"/>
<path d="M158.875 57.6136H157.595C156.393 57.6136 155.419 58.5878 155.419 59.7894V65.1647C155.419 66.3664 156.393 67.3405 157.595 67.3405H158.875C160.077 67.3405 161.051 66.3664 161.051 65.1647V59.7894C161.051 58.5878 160.077 57.6136 158.875 57.6136Z" fill="#FFB8B8"/>
<path d="M178.969 73.4837C182.361 73.4837 185.112 70.7333 185.112 67.3404C185.112 63.9476 182.361 61.1971 178.969 61.1971C175.576 61.1971 172.825 63.9476 172.825 67.3404C172.825 70.7333 175.576 73.4837 178.969 73.4837Z" fill="#3F3D56"/>
<path d="M165.914 86.5381C169.307 86.5381 172.057 83.7877 172.057 80.3948C172.057 77.002 169.307 74.2516 165.914 74.2516C162.521 74.2516 159.771 77.002 159.771 80.3948C159.771 83.7877 162.521 86.5381 165.914 86.5381Z" fill="#3F3D56"/>
<path d="M192.535 85.7702C195.928 85.7702 198.678 83.0197 198.678 79.6269C198.678 76.2341 195.928 73.4836 192.535 73.4836C189.142 73.4836 186.392 76.2341 186.392 79.6269C186.392 83.0197 189.142 85.7702 192.535 85.7702Z" fill="#3F3D56"/>
<path d="M179.992 99.3366C183.385 99.3366 186.136 96.5861 186.136 93.1933C186.136 89.8005 183.385 87.05 179.992 87.05C176.6 87.05 173.849 89.8005 173.849 93.1933C173.849 96.5861 176.6 99.3366 179.992 99.3366Z" fill="#3F3D56"/>
<path d="M147.036 54.03H94.4347C91.3599 54.03 88.8674 56.5226 88.8674 59.5974V82.5066C88.8674 85.5814 91.3599 88.074 94.4347 88.074H147.036C150.111 88.074 152.604 85.5814 152.604 82.5066V59.5974C152.604 56.5226 150.111 54.03 147.036 54.03Z" fill="#FFB8B8"/>
<path d="M175.257 69.9001L178.841 63.7568L182.68 69.9001H175.257Z" stroke="#FFB8B8" stroke-width="2" stroke-miterlimit="10"/>
<path d="M169.114 77.5792H162.714V83.2105H169.114V77.5792Z" stroke="#FFB8B8" stroke-width="2" stroke-miterlimit="10"/>
<path d="M192.535 83.2105C194.514 83.2105 196.118 81.606 196.118 79.6269C196.118 77.6478 194.514 76.0433 192.535 76.0433C190.556 76.0433 188.951 77.6478 188.951 79.6269C188.951 81.606 190.556 83.2105 192.535 83.2105Z" stroke="#FFB8B8" stroke-width="2" stroke-miterlimit="10"/>
<path d="M177.049 90.3137L182.808 96.073" stroke="#FFB8B8" stroke-width="2" stroke-miterlimit="10"/>
<path d="M182.936 90.3137L177.049 95.945" stroke="#FFB8B8" stroke-width="2" stroke-miterlimit="10"/>
<path d="M88.0508 170.125C88.8187 169.539 89.5482 168.845 89.7709 168.008C89.885 167.563 89.8241 167.092 89.6007 166.691C89.3773 166.29 89.0085 165.99 88.5704 165.853C87.4672 165.51 86.2898 166.132 85.3939 166.761C84.498 167.391 83.4767 168.11 82.3069 167.977C83.5176 167.102 84.0987 165.674 83.7608 164.394C83.7038 164.115 83.5627 163.86 83.3564 163.664C82.7446 163.129 81.6337 163.36 80.9016 163.779C78.5697 165.118 77.9196 167.701 77.9068 170.028C77.6713 169.188 77.8709 168.315 77.8633 167.453C77.8556 166.59 77.5689 165.638 76.6781 165.174C76.1083 164.928 75.4914 164.81 74.871 164.829C73.8241 164.798 72.6543 164.883 71.9401 165.51C71.0519 166.278 71.2823 167.591 72.0553 168.446C72.8283 169.301 74.0058 169.838 75.0886 170.429C75.9153 170.88 76.7498 171.405 77.2566 172.116C77.3215 172.211 77.3755 172.312 77.4179 172.418H83.9886C85.4322 171.825 86.7967 171.054 88.0508 170.125Z" fill="#FFB8B8"/>
<path d="M224.301 165.008C224.301 165.008 223.11 168.592 221.721 169.575C220.331 170.557 221.721 172.751 225.304 171.758C228.888 170.765 229.274 170.568 230.861 167.591C232.448 164.614 232.251 163.82 232.251 163.82C232.251 163.82 231.061 162.233 230.459 162.43C229.858 162.627 224.301 165.008 224.301 165.008Z" fill="#603556"/>
<path d="M216.957 75.8846C216.957 75.8846 200.88 84.8154 204.65 82.2352C207.184 80.5023 207.03 75.9025 206.657 73.069C206.539 72.1859 206.401 71.4743 206.316 71.075C206.268 70.8497 206.237 70.7243 206.237 70.7243C206.237 70.7243 214.034 66.0452 213.596 68.8583C213.596 68.8839 213.596 68.9095 213.583 68.9351C213.546 69.123 213.526 69.3142 213.524 69.5059C213.471 72.3983 216.957 75.8846 216.957 75.8846Z" fill="#C87486"/>
<path d="M199.487 84.6183C199.487 84.6183 198.097 86.8017 195.717 84.6183C193.336 82.4349 185.793 75.8846 185.793 75.8846C185.793 75.8846 182.419 67.5477 180.033 69.1373C177.648 70.7269 182.813 78.4674 182.813 78.4674L194.127 90.5747C194.127 90.5747 194.524 93.1549 198.694 91.765C202.863 90.375 205.84 89.1848 205.84 89.1848L199.487 84.6183Z" fill="#C87486"/>
<path d="M231.844 163.221L223.909 166.001L223.574 166.098L223.712 165.405C224.902 159.451 217.569 145.754 216.169 144.761C214.768 143.768 213.583 138.006 213.583 138.006C213.583 138.006 210.983 124.905 210.586 122.136C210.486 121.442 210.123 120.889 209.682 120.126C209.018 118.97 208.502 117.735 208.146 116.451C207.274 113.379 205.239 107.927 205.986 104.842C206.137 104.215 205.52 105.818 205.73 105.206L205.85 104.868L221.92 102.682C222.187 103.006 222.436 103.343 222.668 103.693C223.883 105.498 223.804 105.498 224.06 108.928C223.95 110.997 223.658 113.053 223.187 115.071C221.024 124.703 225.903 137.596 225.903 137.596C225.903 137.596 229.873 146.727 229.08 150.497C228.286 154.267 231.844 163.221 231.844 163.221Z" fill="#555388"/>
<path opacity="0.1" d="M222.668 103.691C220.29 106.673 205.057 108.989 205.246 108.042C205.303 107.715 205.279 107.379 205.175 107.064C205.326 106.435 205.509 105.814 205.722 105.203L205.843 104.865L221.92 102.682C222.187 103.005 222.436 103.342 222.668 103.691Z" fill="black"/>
<path d="M215.767 71.7097C215.767 71.7097 209.214 73.7012 207.422 78.2677C205.63 82.8341 208.781 83.0824 208.781 83.0824C208.781 83.0824 203.15 97.9287 204.642 105.659C204.642 105.659 205.436 106.652 205.239 107.643C205.042 108.633 221.713 106.056 222.901 102.879C224.088 99.7025 217.343 93.9483 219.13 88.5883C220.917 83.2283 215.767 71.7097 215.767 71.7097Z" fill="#DFE5EE"/>
<path opacity="0.1" d="M213.583 69.3343C213.572 69.394 213.552 69.4518 213.524 69.5058C213.253 70.0178 212.39 69.4572 212.69 70.2251C211.538 71.3821 211.175 73.6986 209.416 73.6986C208.46 73.7014 207.515 73.487 206.654 73.0715C206.536 72.1884 206.398 71.4768 206.314 71.0775C207.082 70.6218 213.225 67.0639 213.594 68.8608C213.622 69.0177 213.619 69.1788 213.583 69.3343Z" fill="black"/>
<path d="M209.414 73.3045C212.921 73.3045 215.764 70.4612 215.764 66.9539C215.764 63.4465 212.921 60.6033 209.414 60.6033C205.906 60.6033 203.063 63.4465 203.063 66.9539C203.063 70.4612 205.906 73.3045 209.414 73.3045Z" fill="#C87486"/>
<path opacity="0.1" d="M215.767 87.1985L204.653 92.3589C204.653 92.3589 197.109 86.6047 198.299 85.0202C199.49 83.4358 208.82 78.877 208.82 78.877C208.82 78.877 218.347 80.8479 215.767 87.1985Z" fill="black"/>
<path d="M215.767 86.8119L204.653 91.9722C204.653 91.9722 197.109 86.2155 198.302 84.6285C199.495 83.0415 208.822 78.4852 208.822 78.4852C208.822 78.4852 218.347 80.4511 215.767 86.8119Z" fill="#DFE5EE"/>
<path opacity="0.1" d="M207.581 64.2328C206.611 64.1355 205.607 64.028 204.765 63.5391C204.276 63.2576 203.828 62.7917 203.813 62.226C203.795 61.5605 204.356 61.0409 204.87 60.6185C205.204 60.3102 205.589 60.0632 206.009 59.889C206.559 59.697 207.161 59.7661 207.742 59.7175C209.452 59.5742 210.983 58.4121 212.7 58.4223C213.962 58.4223 215.122 59.0674 216.22 59.6894C217.098 60.1859 218.073 60.8156 218.219 61.8139C218.229 62.1359 218.255 62.4571 218.298 62.7763C218.48 63.4879 219.245 63.9026 219.519 64.5835C219.819 65.3284 219.44 66.191 218.887 66.772C218.334 67.3531 217.607 67.7524 217.026 68.295C216.487 68.795 216.059 69.4032 215.772 70.0799C215.484 70.7566 215.343 71.4865 215.357 72.2216C215.37 72.3185 215.355 72.4171 215.314 72.5057C215.27 72.5588 215.215 72.6022 215.153 72.6331C215.092 72.6639 215.024 72.6816 214.955 72.6849C214.323 72.8027 213.542 72.8667 213.163 72.3445C212.785 71.8223 213.084 70.952 212.652 70.4375C212.101 69.7745 210.944 70.3018 210.199 69.8667C209.948 69.7039 209.752 69.4694 209.636 69.1935C209.022 67.8701 209.726 66.8309 209.982 65.5664C210.281 64.0895 208.623 64.3378 207.581 64.2328Z" fill="black"/>
<path d="M207.78 64.0307C206.81 63.9334 205.807 63.8259 204.965 63.337C204.476 63.0554 204.028 62.5896 204.013 62.0239C203.995 61.3583 204.555 60.8387 205.07 60.4164C205.404 60.1081 205.789 59.8611 206.209 59.6869C206.759 59.4949 207.361 59.564 207.942 59.5154C209.652 59.372 211.182 58.2099 212.9 58.2202C214.162 58.2202 215.321 58.8652 216.419 59.4872C217.297 59.9838 218.273 60.6135 218.419 61.6118C218.428 61.9337 218.455 62.255 218.498 62.5742C218.68 63.2858 219.445 63.7005 219.719 64.3813C220.018 65.1262 219.64 65.9888 219.087 66.5699C218.534 67.1509 217.807 67.5502 217.226 68.0929C216.685 68.5937 216.256 69.2036 215.968 69.8821C215.68 70.5607 215.539 71.2927 215.554 72.0297C215.567 72.1266 215.552 72.2252 215.511 72.3138C215.467 72.367 215.412 72.4103 215.35 72.4412C215.289 72.472 215.221 72.4897 215.152 72.493C214.52 72.6108 213.739 72.6748 213.361 72.1526C212.982 71.6304 213.281 70.7601 212.849 70.2456C212.298 69.5826 211.141 70.1099 210.396 69.6748C210.145 69.512 209.949 69.2775 209.833 69.0016C209.214 67.6757 209.92 66.6288 210.176 65.3515C210.478 63.8899 208.82 64.1407 207.78 64.0307Z" fill="#603456"/>
</g>
<defs>
<linearGradient id="paint0_linear" x1="205.83" y1="173.304" x2="205.83" y2="56.9302" gradientUnits="userSpaceOnUse">
<stop stop-color="#808080" stop-opacity="0.25"/>
<stop offset="0.54" stop-color="#808080" stop-opacity="0.12"/>
<stop offset="1" stop-color="#808080" stop-opacity="0.1"/>
</linearGradient>
<linearGradient id="paint1_linear" x1="110563" y1="87883.1" x2="110563" y2="27538.2" gradientUnits="userSpaceOnUse">
<stop stop-color="#808080" stop-opacity="0.25"/>
<stop offset="0.54" stop-color="#808080" stop-opacity="0.12"/>
<stop offset="1" stop-color="#808080" stop-opacity="0.1"/>
</linearGradient>
<clipPath id="clip0">
<rect width="250" height="215.091" fill="white"/>
</clipPath>
</defs>
</svg>
