<svg width="250" height="183" viewBox="0 0 250 183" fill="none" xmlns="http://www.w3.org/2000/svg">
<g clip-path="url(#clip0)">
<path opacity="0.5" d="M124.511 182.161C158.877 182.161 186.736 177.482 186.736 171.71C186.736 165.937 158.877 161.258 124.511 161.258C90.1457 161.258 62.2868 165.937 62.2868 171.71C62.2868 177.482 90.1457 182.161 124.511 182.161Z" fill="#DEE3F3"/>
<g opacity="0.45">
<path opacity="0.45" d="M109.566 62.9458C109.567 63.0626 109.575 63.1793 109.591 63.2951C109.575 63.1793 109.567 63.0626 109.566 62.9458Z" fill="black"/>
<path opacity="0.45" d="M140.901 55.4384C140.906 55.4695 140.911 55.5003 140.915 55.5319C140.911 55.5003 140.906 55.4696 140.901 55.4384Z" fill="black"/>
<path opacity="0.45" d="M140.836 55.1288C140.845 55.1612 140.853 55.1938 140.861 55.2267C140.853 55.1938 140.845 55.1613 140.836 55.1288Z" fill="black"/>
<path opacity="0.45" d="M140.868 63.5333C140.856 63.587 140.843 63.6398 140.827 63.6922C140.843 63.6398 140.856 63.587 140.868 63.5333Z" fill="black"/>
<path opacity="0.45" d="M140.912 63.277C140.905 63.334 140.897 63.3906 140.886 63.4464C140.897 63.3906 140.905 63.334 140.912 63.277Z" fill="black"/>
<path opacity="0.45" d="M111.015 65.332C110.806 65.2227 110.613 65.0866 110.439 64.9271C110.613 65.0867 110.806 65.2228 111.015 65.332Z" fill="black"/>
<path opacity="0.45" d="M110.418 64.9079C110.337 64.8315 110.26 64.7502 110.189 64.6644C110.26 64.7503 110.337 64.8316 110.418 64.9079Z" fill="black"/>
<path opacity="0.45" d="M156.659 116.291C156.627 116.184 156.589 116.08 156.544 115.978C156.589 116.08 156.627 116.184 156.659 116.291Z" fill="black"/>
<path opacity="0.45" d="M155.32 114.67C155.427 114.725 155.529 114.788 155.627 114.857C155.529 114.788 155.427 114.725 155.32 114.67Z" fill="black"/>
<path opacity="0.45" d="M155.923 115.099C156.087 115.254 156.231 115.429 156.352 115.619C156.231 115.429 156.087 115.254 155.923 115.099Z" fill="black"/>
<path opacity="0.45" d="M155.636 114.864C155.725 114.928 155.811 114.997 155.892 115.071C155.811 114.997 155.726 114.928 155.636 114.864Z" fill="black"/>
<path opacity="0.45" d="M156.521 115.93C156.481 115.843 156.436 115.758 156.386 115.676C156.436 115.758 156.481 115.843 156.521 115.93Z" fill="black"/>
<path opacity="0.45" d="M156.733 116.623C156.718 116.533 156.699 116.444 156.676 116.357C156.699 116.444 156.718 116.533 156.733 116.623Z" fill="black"/>
<path opacity="0.45" d="M237.83 101.879H222.359C222.716 101.632 223.008 101.301 223.209 100.916C223.411 100.531 223.516 100.103 223.516 99.6688V92.5658C223.516 92.2124 223.447 91.8623 223.311 91.5358C223.176 91.2092 222.978 90.9124 222.728 90.6625C222.478 90.4125 222.181 90.2142 221.854 90.079C221.528 89.9437 221.178 89.8741 220.824 89.8741H203.016C203.56 89.7005 204.035 89.3585 204.371 88.8976C204.708 88.4367 204.89 87.8806 204.89 87.3098V80.2069C204.89 79.7723 204.785 79.3442 204.583 78.9593C204.382 78.5743 204.09 78.244 203.732 77.9967H220.824C221.178 77.9967 221.528 77.927 221.854 77.7917C222.181 77.6565 222.478 77.4582 222.728 77.2082C222.978 76.9583 223.176 76.6615 223.311 76.335C223.447 76.0084 223.516 75.6584 223.516 75.3049V68.2019C223.516 67.8484 223.447 67.4984 223.311 67.1718C223.176 66.8452 222.978 66.5485 222.728 66.2986C222.478 66.0486 222.181 65.8503 221.854 65.715C221.528 65.5798 221.178 65.5101 220.824 65.5101H201.798C202.342 65.3366 202.816 64.9946 203.153 64.5337C203.49 64.0728 203.672 63.5167 203.672 62.9459V55.8429C203.672 55.4084 203.567 54.9803 203.365 54.5954C203.163 54.2104 202.871 53.8801 202.514 53.6327H220.824C221.178 53.6327 221.528 53.5631 221.854 53.4278C222.181 53.2925 222.478 53.0943 222.728 52.8443C222.978 52.5944 223.176 52.2976 223.311 51.971C223.447 51.6445 223.516 51.2944 223.516 50.9409V43.838C223.516 43.4845 223.447 43.1345 223.311 42.8079C223.176 42.4813 222.978 42.1846 222.728 41.9346C222.478 41.6847 222.181 41.4864 221.854 41.3511C221.528 41.2159 221.178 41.1462 220.824 41.1462H211.239C211.783 40.9726 212.257 40.6307 212.594 40.1698C212.931 39.7088 213.113 39.1528 213.113 38.582V31.479C213.113 31.1255 213.043 30.7755 212.908 30.4489C212.773 30.1223 212.574 29.8256 212.324 29.5756C212.074 29.3257 211.778 29.1274 211.451 28.9921C211.124 28.8569 210.774 28.7872 210.421 28.7872H184.436C184.082 28.7872 183.732 28.8568 183.406 28.9921C183.079 29.1274 182.782 29.3257 182.533 29.5756C182.283 29.8256 182.084 30.1223 181.949 30.4489C181.814 30.7755 181.744 31.1255 181.744 31.479C181.744 31.1255 181.675 30.7755 181.539 30.4489C181.404 30.1223 181.206 29.8256 180.956 29.5756C180.706 29.3257 180.409 29.1274 180.082 28.9921C179.756 28.8568 179.406 28.7872 179.052 28.7872H153.067C152.555 28.7875 152.052 28.9343 151.62 29.2105C151.188 29.4866 150.844 29.8806 150.628 30.3458C150.663 30.5184 150.68 30.694 150.68 30.8699V37.9729C150.68 38.3638 150.594 38.75 150.428 39.1042C150.549 39.7174 150.881 40.2693 151.365 40.6646H158.038C158.66 40.6638 159.263 40.8791 159.743 41.2737H162.653C162.109 41.4473 161.634 41.7893 161.297 42.2502C160.961 42.7111 160.779 43.2671 160.779 43.838C160.779 43.6668 160.762 43.496 160.729 43.328C160.729 43.3376 160.73 43.3468 160.73 43.3564V50.4593C160.729 50.6859 160.7 50.9114 160.642 51.1306C160.686 51.1763 160.724 51.226 160.758 51.2791C160.772 51.1669 160.779 51.054 160.779 50.9409C160.781 51.097 160.796 51.2526 160.824 51.4061C160.86 51.4917 160.88 51.5829 160.884 51.6756C161.054 52.2741 161.426 52.7954 161.937 53.1511H159.621C159.642 53.1367 159.661 53.1193 159.681 53.1044C159.466 53.1097 159.249 53.0862 159.034 53.0838C158.957 53.0828 158.881 53.0671 158.811 53.0374C158.56 53.1127 158.3 53.151 158.038 53.1511L142.092 53.6327C141.735 53.8801 141.443 54.2104 141.241 54.5954C141.04 54.9803 140.934 55.4084 140.935 55.8429V62.9458C140.935 63.5167 141.116 64.0727 141.453 64.5337C141.79 64.9946 142.264 65.3365 142.808 65.5101L158.038 65.6376C158.306 65.6375 158.573 65.6774 158.829 65.756C158.998 65.7708 159.167 65.8004 159.332 65.8444C159.344 65.8416 159.357 65.8405 159.37 65.8379C159.222 65.7566 159.066 65.6896 158.905 65.6376H162.653C162.109 65.8112 161.634 66.1532 161.297 66.6141C160.961 67.075 160.779 67.6311 160.779 68.2019C160.779 68.0458 160.765 67.8901 160.738 67.7364C160.72 67.762 160.7 67.7862 160.679 67.8087C160.713 67.9802 160.73 68.1546 160.73 68.3294V75.4324C160.73 75.7619 160.779 75.6827 160.779 75.3049C160.779 75.7394 160.884 76.1675 161.086 76.5524C161.287 76.9374 161.579 77.2677 161.937 77.5151L171.439 77.8196C171.765 77.8201 172.088 77.8801 172.392 77.9966H174.679C174.27 78.2827 173.948 78.6766 173.749 79.1346C173.998 79.5504 174.13 80.0263 174.13 80.5114V87.6143C174.13 87.9851 174.054 88.3519 173.905 88.6915C174.241 89.2535 174.771 89.6739 175.395 89.8741H172.898C172.464 90.1563 171.957 90.3064 171.439 90.3061H162.012C161.634 90.5494 161.323 90.8838 161.107 91.2786C160.892 91.6734 160.779 92.116 160.779 92.5658C160.779 91.6173 160.426 100.965 160.426 100.965C160.426 101.805 175.093 102.184 175.093 102.184C175.466 102.183 175.835 102.261 176.176 102.412C176.329 102.379 176.485 102.366 176.641 102.372C176.637 102.368 176.632 102.364 176.627 102.361H178.943C178.585 102.608 178.293 102.938 178.092 103.323C177.89 103.708 177.785 104.136 177.785 104.571C177.784 104.442 177.774 104.314 177.755 104.187C177.743 104.216 177.729 104.245 177.715 104.273C177.761 104.47 177.784 104.672 177.785 104.875V111.674C177.785 112.027 177.855 112.377 177.99 112.704C178.125 113.03 178.323 113.327 178.573 113.577C178.823 113.827 179.12 114.025 179.447 114.161C179.773 114.296 180.123 114.366 180.477 114.366H176.334C175.951 114.566 175.525 114.67 175.093 114.67H158.222C157.785 114.897 157.418 115.24 157.162 115.661C156.907 116.082 156.771 116.565 156.771 117.057V124.16C156.771 124.514 156.841 124.864 156.976 125.19C157.111 125.517 157.31 125.814 157.56 126.064C157.809 126.314 158.106 126.512 158.433 126.647C158.759 126.782 159.109 126.852 159.463 126.852H185.448C185.801 126.852 186.151 126.782 186.478 126.647C186.805 126.512 187.101 126.314 187.351 126.064C187.601 125.814 187.799 125.517 187.935 125.19C188.07 124.864 188.14 124.514 188.14 124.16C188.14 124.514 188.209 124.864 188.345 125.19C188.48 125.517 188.678 125.814 188.928 126.064C189.178 126.314 189.475 126.512 189.801 126.647C190.128 126.782 190.478 126.852 190.831 126.852H216.816C217.17 126.852 217.52 126.782 217.847 126.647C218.173 126.512 218.47 126.314 218.72 126.064C218.97 125.814 219.168 125.517 219.303 125.19C219.439 124.864 219.508 124.514 219.508 124.16V117.057C219.508 116.704 219.439 116.354 219.303 116.027C219.168 115.701 218.97 115.404 218.72 115.154C218.47 114.904 218.173 114.706 217.847 114.57C217.52 114.435 217.17 114.366 216.816 114.366H237.83C238.184 114.366 238.534 114.296 238.86 114.161C239.187 114.025 239.484 113.827 239.734 113.577C239.984 113.327 240.182 113.03 240.317 112.704C240.452 112.377 240.522 112.027 240.522 111.674V104.571C240.522 104.217 240.452 103.867 240.317 103.541C240.182 103.214 239.984 102.917 239.734 102.667C239.484 102.417 239.187 102.219 238.86 102.084C238.534 101.949 238.184 101.879 237.83 101.879ZM173.461 53.6327C173.103 53.8801 172.811 54.2104 172.61 54.5954C172.408 54.9803 172.303 55.4084 172.303 55.8429C172.303 55.4084 172.198 54.9803 171.996 54.5954C171.795 54.2104 171.503 53.8801 171.146 53.6327H173.461ZM170.429 65.5101C170.973 65.3366 171.448 64.9946 171.785 64.5337C172.121 64.0728 172.303 63.5167 172.303 62.9459C172.303 63.5167 172.485 64.0728 172.822 64.5337C173.158 64.9946 173.633 65.3366 174.177 65.5101H170.429ZM179.871 41.1462C180.414 40.9726 180.889 40.6307 181.226 40.1698C181.562 39.7088 181.744 39.1528 181.744 38.582C181.744 39.1528 181.926 39.7088 182.263 40.1698C182.599 40.6307 183.074 40.9726 183.618 41.1462H179.871ZM188.14 117.057C188.14 116.704 188.07 116.354 187.935 116.027C187.799 115.701 187.601 115.404 187.351 115.154C187.101 114.904 186.805 114.706 186.478 114.57C186.151 114.435 185.801 114.366 185.448 114.366H190.831C190.478 114.366 190.128 114.435 189.801 114.57C189.475 114.706 189.178 114.904 188.928 115.154C188.678 115.404 188.48 115.701 188.345 116.027C188.209 116.354 188.14 116.704 188.14 117.057ZM190.99 101.879C191.347 101.632 191.639 101.301 191.841 100.916C192.042 100.531 192.148 100.103 192.148 99.6688C192.147 100.103 192.253 100.531 192.454 100.916C192.656 101.301 192.948 101.632 193.305 101.879H190.99ZM192.148 92.5658C192.147 91.995 191.966 91.439 191.629 90.9781C191.292 90.5171 190.818 90.1752 190.274 90.0016H194.021C193.477 90.1752 193.003 90.5171 192.666 90.978C192.329 91.439 192.148 91.995 192.148 92.5658ZM190.99 77.5151C191.347 77.2677 191.639 76.9374 191.841 76.5524C192.042 76.1675 192.148 75.7394 192.148 75.3049C192.147 75.7394 192.253 76.1675 192.454 76.5525C192.656 76.9374 192.948 77.2677 193.305 77.5151H190.99ZM192.148 68.2019C192.147 67.6311 191.966 67.0751 191.629 66.6141C191.292 66.1532 190.818 65.8113 190.274 65.6377H194.021C193.477 65.8112 193.003 66.1532 192.666 66.6141C192.329 67.075 192.148 67.6311 192.148 68.2019ZM190.99 53.1512C191.347 52.9038 191.639 52.5735 191.841 52.1885C192.042 51.8036 192.148 51.3755 192.148 50.9409C192.147 51.3755 192.253 51.8036 192.454 52.1885C192.656 52.5735 192.948 52.9038 193.305 53.1512H190.99ZM192.148 43.838C192.147 43.2672 191.966 42.7111 191.629 42.2502C191.292 41.7893 190.818 41.4473 190.274 41.2737H194.021C193.477 41.4473 193.003 41.7893 192.666 42.2502C192.329 42.7111 192.148 43.2672 192.148 43.838ZM210.311 102.361C209.954 102.608 209.662 102.938 209.46 103.323C209.259 103.708 209.153 104.136 209.154 104.571C209.154 104.136 209.048 103.708 208.847 103.323C208.645 102.938 208.353 102.608 207.996 102.361H210.311ZM206.462 114.366C206.815 114.366 207.165 114.296 207.492 114.161C207.818 114.025 208.115 113.827 208.365 113.577C208.615 113.327 208.813 113.03 208.949 112.704C209.084 112.377 209.154 112.027 209.154 111.674C209.154 112.027 209.223 112.377 209.358 112.704C209.494 113.03 209.692 113.327 209.942 113.577C210.192 113.827 210.489 114.025 210.815 114.161C211.142 114.296 211.492 114.366 211.845 114.366H206.462Z" fill="black"/>
<path opacity="0.45" d="M156.771 117.057C156.77 116.943 156.762 116.828 156.747 116.715C156.762 116.828 156.77 116.943 156.771 117.057Z" fill="black"/>
<path opacity="0.45" d="M140.935 62.9458C140.935 63.0311 140.93 63.1152 140.922 63.1984C140.93 63.1152 140.935 63.0311 140.935 62.9458Z" fill="black"/>
<path opacity="0.45" d="M109.597 63.3473C109.613 63.4553 109.636 63.5622 109.666 63.6674C109.636 63.5622 109.613 63.4553 109.597 63.3473Z" fill="black"/>
<path opacity="0.45" d="M79.4735 79.2183C79.4288 79.1787 79.3901 79.1328 79.3587 79.082C79.3198 79.0124 79.2939 78.9363 79.2823 78.8574C79.2757 79.0419 79.2784 79.2267 79.2906 79.4109C79.3722 79.6684 79.4144 79.9368 79.4156 80.2069C79.4168 79.9444 79.4565 79.6835 79.5337 79.4326C79.5092 79.3716 79.4902 79.3086 79.4769 79.2443C79.4751 79.2354 79.4751 79.2271 79.4735 79.2183Z" fill="black"/>
<path opacity="0.45" d="M116.315 28.7872H90.3302C89.9767 28.7872 89.6267 28.8569 89.3001 28.9921C88.9735 29.1274 88.6768 29.3257 88.4268 29.5756C88.1769 29.8256 87.9786 30.1223 87.8433 30.4489C87.708 30.7755 87.6384 31.1255 87.6384 31.479C87.6384 31.1255 87.5688 30.7755 87.4335 30.4489C87.2983 30.1223 87.1 29.8256 86.85 29.5756C86.6001 29.3257 86.3033 29.1274 85.9767 28.9921C85.6502 28.8569 85.3001 28.7872 84.9466 28.7872H58.9617C58.6082 28.7872 58.2582 28.8569 57.9316 28.9921C57.605 29.1274 57.3082 29.3257 57.0583 29.5756C56.8083 29.8256 56.6101 30.1223 56.4748 30.4489C56.3395 30.7755 56.2699 31.1255 56.2699 31.479V38.582C56.27 39.1528 56.4515 39.7089 56.7883 40.1698C57.1251 40.6307 57.5997 40.9727 58.1435 41.1462H37.9966C37.6431 41.1462 37.2931 41.2159 36.9665 41.3511C36.6399 41.4864 36.3432 41.6847 36.0932 41.9346C35.8433 42.1846 35.645 42.4813 35.5097 42.8079C35.3744 43.1345 35.3048 43.4845 35.3048 43.838V50.941C35.3047 51.3755 35.4099 51.8036 35.6115 52.1885C35.8131 52.5735 36.1051 52.9038 36.4623 53.1512H18.1521C17.7986 53.1512 17.4486 53.2208 17.122 53.3561C16.7954 53.4913 16.4987 53.6896 16.2487 53.9396C15.9987 54.1895 15.8005 54.4863 15.6652 54.8129C15.5299 55.1394 15.4603 55.4895 15.4603 55.843V62.9459C15.4603 63.2994 15.5299 63.6494 15.6652 63.976C15.8005 64.3026 15.9987 64.5993 16.2487 64.8493C16.4987 65.0992 16.7954 65.2975 17.122 65.4328C17.4486 65.5681 17.7986 65.6377 18.1521 65.6377H37.1784C36.6346 65.8113 36.16 66.1532 35.8232 66.6141C35.4865 67.0751 35.3049 67.6311 35.3048 68.2019V75.3049C35.3047 75.7394 35.4099 76.1675 35.6115 76.5525C35.8131 76.9374 36.1051 77.2677 36.4624 77.5151H19.3703C19.0168 77.5151 18.6668 77.5847 18.3402 77.72C18.0136 77.8553 17.7169 78.0536 17.4669 78.3035C17.2169 78.5535 17.0187 78.8502 16.8834 79.1768C16.7481 79.5034 16.6785 79.8534 16.6785 80.2069V87.3098C16.6785 87.6633 16.7481 88.0133 16.8834 88.3399C17.0187 88.6665 17.2169 88.9633 17.4669 89.2132C17.7169 89.4632 18.0136 89.6614 18.3402 89.7967C18.6668 89.932 19.0168 90.0016 19.3703 90.0016H37.1784C36.6346 90.1752 36.16 90.5172 35.8232 90.9781C35.4865 91.439 35.3049 91.995 35.3048 92.5659V99.6688C35.3048 100.022 35.3744 100.372 35.5097 100.699C35.645 101.026 35.8433 101.322 36.0932 101.572C36.3432 101.822 36.6399 102.02 36.9665 102.156C37.2931 102.291 37.6431 102.361 37.9966 102.361H53.4683C53.111 102.608 52.8191 102.938 52.6175 103.323C52.4159 103.708 52.3106 104.136 52.3107 104.571V111.674C52.3107 112.388 52.5943 113.072 53.0991 113.577C53.6039 114.082 54.2886 114.366 55.0025 114.366H33.9886C33.6351 114.366 33.2851 114.435 32.9585 114.57C32.6319 114.706 32.3352 114.904 32.0853 115.154C31.8353 115.404 31.637 115.701 31.5017 116.027C31.3665 116.354 31.2968 116.704 31.2968 117.057V124.16C31.2968 124.514 31.3665 124.864 31.5017 125.19C31.637 125.517 31.8353 125.814 32.0853 126.064C32.3352 126.314 32.632 126.512 32.9585 126.647C33.2851 126.782 33.6351 126.852 33.9886 126.852H59.9736C60.3271 126.852 60.6771 126.782 61.0037 126.647C61.3303 126.512 61.627 126.314 61.877 126.064C62.1269 125.814 62.3252 125.517 62.4605 125.19C62.5958 124.864 62.6654 124.514 62.6654 124.16C62.6654 124.514 62.735 124.864 62.8703 125.19C63.0056 125.517 63.2038 125.814 63.4538 126.064C63.7038 126.314 64.0005 126.512 64.3271 126.647C64.6537 126.782 65.0037 126.852 65.3572 126.852H91.3422C91.6956 126.852 92.0457 126.782 92.3723 126.647C92.6988 126.512 92.9956 126.314 93.2455 126.064C93.4955 125.814 93.6938 125.517 93.8291 125.19C93.9643 124.864 94.034 124.514 94.034 124.16V117.057C94.0339 116.565 93.8986 116.082 93.6427 115.661C93.3868 115.24 93.0203 114.897 92.583 114.67H86.9802C86.548 114.67 86.1223 114.566 85.7393 114.366H80.9875C81.7014 114.366 82.3861 114.082 82.8909 113.577C83.3957 113.072 83.6793 112.388 83.6793 111.674C83.6793 112.845 84.2884 104.875 84.2884 104.875C84.2884 104.522 84.358 104.172 84.4933 103.845C84.6286 103.519 84.8268 103.222 85.0768 102.972C85.3267 102.722 85.6235 102.524 85.9501 102.388C86.2767 102.253 86.6267 102.184 86.9802 102.184L96.8843 101.879C97.1668 101.681 97.4089 101.431 97.5976 101.143C97.4574 100.813 97.3847 100.459 97.384 100.101V92.998C97.3835 92.4712 97.5384 91.9559 97.8292 91.5167C97.6176 91.0202 97.2621 90.5986 96.8085 90.3062H82.7165C82.1984 90.3064 81.6914 90.1563 81.257 89.8741H77.542C78.0858 89.7005 78.5604 89.3586 78.8971 88.8976C79.2339 88.4367 79.4155 87.8807 79.4156 87.3098L79.3202 80.2587C79.3202 79.941 79.3032 79.6599 79.2906 79.4109C79.1133 78.8378 78.75 78.3401 78.2581 77.9967H80.5731C80.5557 78.0088 80.5403 78.0235 80.5231 78.036C81.8354 77.9608 96.8266 77.0814 98.0453 76.1005C98.0142 75.9143 98.0082 75.7248 98.0274 75.537C98.0056 75.4017 97.9941 75.2649 97.9931 75.1278V68.0249C97.9931 67.9368 97.998 67.8498 98.0063 67.7638C97.9252 67.2746 97.7106 66.8173 97.3864 66.4422C97.0621 66.0671 96.6406 65.7887 96.1683 65.6377H99.444C99.827 65.4375 100.253 65.333 100.685 65.3331H108.115C108.552 65.1063 108.919 64.7637 109.175 64.3427C109.431 63.9217 109.566 63.4385 109.566 62.9459V55.843C109.566 55.4084 109.461 54.9803 109.259 54.5954C109.058 54.2104 108.766 53.8801 108.408 53.6327L100.685 53.1512C99.376 53.1512 98.5102 52.6718 99.1994 53.1512H96.8843C97.2392 52.9052 97.5296 52.5774 97.731 52.1955C97.9323 51.8135 98.0386 51.3886 98.0409 50.9569C98.0096 50.7929 97.9936 50.6263 97.9931 50.4594V43.3565C97.9931 43.3506 97.9939 43.345 97.994 43.3392C97.9038 42.8624 97.6866 42.4189 97.3653 42.0554C97.0439 41.6918 96.6304 41.4218 96.1683 41.2738H98.9801C99.4605 40.8791 100.063 40.6638 100.685 40.6647H118.018C118.327 40.4129 118.576 40.0953 118.747 39.735C118.919 39.3747 119.007 38.9808 119.007 38.582V31.479C119.007 31.1255 118.937 30.7755 118.802 30.4489C118.667 30.1223 118.469 29.8256 118.219 29.5756C117.969 29.3257 117.672 29.1274 117.345 28.9921C117.019 28.8569 116.669 28.7872 116.315 28.7872ZM47.9864 53.6327C47.6291 53.8801 47.3372 54.2104 47.1356 54.5954C46.934 54.9803 46.8287 55.4084 46.8288 55.843C46.829 55.4084 46.7237 54.9803 46.5221 54.5954C46.3205 54.2104 46.0286 53.8801 45.6713 53.6327H47.9864ZM46.8288 62.9459C46.829 63.5167 47.0105 64.0728 47.3473 64.5337C47.6841 64.9946 48.1586 65.3366 48.7025 65.5102H44.9552C45.4991 65.3366 45.9736 64.9946 46.3104 64.5337C46.6472 64.0728 46.8287 63.5167 46.8288 62.9459ZM49.2046 77.9967C48.8473 78.2441 48.5554 78.5744 48.3538 78.9593C48.1522 79.3443 48.0469 79.7724 48.047 80.2069C48.0472 79.7724 47.9419 79.3443 47.7403 78.9593C47.5387 78.5744 47.2468 78.2441 46.8895 77.9967H49.2046ZM46.1734 89.8741C46.7173 89.7005 47.1918 89.3586 47.5286 88.8976C47.8654 88.4367 48.0469 87.8807 48.047 87.3098C48.0472 87.8807 48.2287 88.4367 48.5655 88.8976C48.9023 89.3586 49.3768 89.7005 49.9207 89.8741H46.1734ZM79.3549 53.6327C78.9977 53.8801 78.7057 54.2104 78.5041 54.5954C78.3025 54.9803 78.1973 55.4084 78.1974 55.843C78.1975 55.4084 78.0923 54.9803 77.8907 54.5954C77.6891 54.2104 77.3971 53.8801 77.0399 53.6327H79.3549ZM62.6654 117.057C62.6654 116.704 62.5958 116.354 62.4605 116.027C62.3252 115.701 62.1269 115.404 61.877 115.154C61.627 114.904 61.3303 114.706 61.0037 114.57C60.6771 114.435 60.3271 114.366 59.9736 114.366H65.3572C65.0037 114.366 64.6537 114.435 64.3271 114.57C64.0005 114.706 63.7038 114.904 63.4538 115.154C63.2038 115.404 63.0056 115.701 62.8703 116.027C62.735 116.354 62.6654 116.704 62.6654 117.057ZM65.5158 101.879C65.8731 101.632 66.165 101.301 66.3666 100.916C66.5682 100.531 66.6735 100.103 66.6734 99.6688C66.6732 100.103 66.7785 100.531 66.9801 100.916C67.1817 101.301 67.4736 101.632 67.8309 101.879H65.5158ZM66.6734 92.5659C66.6732 91.995 66.4917 91.439 66.1549 90.9781C65.8181 90.5172 65.3436 90.1752 64.7998 90.0016H68.5469C68.0031 90.1752 67.5286 90.5172 67.1918 90.9781C66.855 91.439 66.6735 91.995 66.6734 92.5659ZM65.5158 77.5151C65.8731 77.2677 66.165 76.9374 66.3666 76.5525C66.5682 76.1675 66.6735 75.7394 66.6734 75.3049C66.6732 75.7394 66.7785 76.1675 66.9801 76.5525C67.1817 76.9374 67.4736 77.2677 67.8309 77.5151H65.5158ZM66.6734 68.202C66.6732 67.6311 66.4917 67.0751 66.1549 66.6141C65.8181 66.1532 65.3436 65.8113 64.7998 65.6377H68.5469C68.0031 65.8113 67.5286 66.1532 67.1918 66.6141C66.855 67.0751 66.6735 67.6311 66.6734 68.202ZM65.5158 53.1512C65.8731 52.9038 66.165 52.5735 66.3666 52.1885C66.5682 51.8036 66.6735 51.3755 66.6734 50.941C66.6732 51.3755 66.7785 51.8036 66.9801 52.1885C67.1817 52.5735 67.4736 52.9038 67.8309 53.1512H65.5158ZM66.6734 43.838C66.6732 43.2672 66.4917 42.7111 66.1549 42.2502C65.8181 41.7893 65.3436 41.4474 64.7998 41.2738H68.5469C68.0031 41.4474 67.5286 41.7893 67.1918 42.2502C66.855 42.7111 66.6735 43.2672 66.6734 43.838ZM76.3238 65.5102C76.8676 65.3366 77.3422 64.9946 77.679 64.5337C78.0158 64.0728 78.1973 63.5167 78.1974 62.9459C78.1975 63.5167 78.3791 64.0728 78.7158 64.5337C79.0526 64.9946 79.5272 65.3366 80.071 65.5102H76.3238ZM85.7648 41.1462C86.3086 40.9727 86.7832 40.6307 87.12 40.1698C87.4568 39.7089 87.6383 39.1528 87.6384 38.582C87.6385 39.1528 87.8201 39.7089 88.1569 40.1698C88.4937 40.6307 88.9682 40.9727 89.512 41.1462H85.7648Z" fill="black"/>
<path opacity="0.45" d="M110.451 53.8519C110.464 53.8403 110.476 53.8285 110.489 53.8171C110.476 53.8285 110.464 53.8403 110.451 53.8519Z" fill="black"/>
<path opacity="0.45" d="M110.272 54.0302C110.259 54.0447 110.245 54.0589 110.232 54.0737C110.245 54.0589 110.259 54.0446 110.272 54.0302Z" fill="black"/>
<path opacity="0.45" d="M110.046 54.3105C110.052 54.3017 110.059 54.2935 110.065 54.2848C110.059 54.2935 110.052 54.3017 110.046 54.3105Z" fill="black"/>
<path opacity="0.45" d="M109.682 63.7222C109.713 63.8269 109.751 63.9297 109.794 64.0299C109.751 63.9297 109.713 63.8269 109.682 63.7222Z" fill="black"/>
<path opacity="0.45" d="M109.969 64.3613C110.029 64.4578 110.096 64.5504 110.168 64.6385C110.096 64.5504 110.029 64.4578 109.969 64.3613Z" fill="black"/>
<path opacity="0.45" d="M109.808 64.0582C109.855 64.1616 109.908 64.262 109.967 64.3587C109.908 64.262 109.855 64.1617 109.808 64.0582Z" fill="black"/>
<path opacity="0.45" d="M109.64 55.2267C109.647 55.1938 109.656 55.1612 109.665 55.1288C109.656 55.1613 109.647 55.1938 109.64 55.2267Z" fill="black"/>
<path opacity="0.45" d="M109.731 54.9233C109.74 54.8965 109.749 54.8694 109.76 54.843C109.749 54.8694 109.74 54.8965 109.731 54.9233Z" fill="black"/>
<path opacity="0.45" d="M109.585 55.5319C109.589 55.5003 109.595 55.4695 109.6 55.4384C109.595 55.4696 109.589 55.5003 109.585 55.5319Z" fill="black"/>
<path opacity="0.45" d="M109.879 54.5848C109.88 54.5817 109.882 54.5784 109.883 54.5753C109.882 54.5784 109.88 54.5817 109.879 54.5848Z" fill="black"/>
<path opacity="0.1" d="M58.7228 41.2738L85.7946 41.2738C86.9811 41.2738 87.943 40.3119 87.943 39.1254V30.9356C87.943 29.7491 86.9811 28.7873 85.7946 28.7873L58.7228 28.7873C57.5363 28.7873 56.5744 29.7491 56.5744 30.9356V39.1254C56.5744 40.3119 57.5363 41.2738 58.7228 41.2738Z" fill="black"/>
<path opacity="0.1" d="M152.524 41.2738L179.596 41.2738C180.782 41.2738 181.744 40.3119 181.744 39.1254V30.9356C181.744 29.7491 180.782 28.7873 179.596 28.7873L152.524 28.7873C151.337 28.7873 150.376 29.7491 150.376 30.9356V39.1254C150.376 40.3119 151.337 41.2738 152.524 41.2738Z" fill="black"/>
<path opacity="0.1" d="M194.247 53.4558L221.319 53.4558C222.505 53.4558 223.467 52.494 223.467 51.3075V43.1176C223.467 41.9311 222.505 40.9693 221.319 40.9693H194.247C193.061 40.9693 192.099 41.9311 192.099 43.1176V51.3075C192.099 52.494 193.061 53.4558 194.247 53.4558Z" fill="black"/>
<path opacity="0.1" d="M143.083 65.6377H170.155C171.341 65.6377 172.303 64.6758 172.303 63.4893V55.2995C172.303 54.113 171.341 53.1512 170.155 53.1512H143.083C141.896 53.1512 140.935 54.113 140.935 55.2995V63.4893C140.935 64.6758 141.896 65.6377 143.083 65.6377Z" fill="black"/>
<path opacity="0.1" d="M194.247 78.1241H221.319C222.505 78.1241 223.467 77.1623 223.467 75.9758V67.786C223.467 66.5995 222.505 65.6376 221.319 65.6376H194.247C193.061 65.6376 192.099 66.5995 192.099 67.786V75.9758C192.099 77.1623 193.061 78.1241 194.247 78.1241Z" fill="black"/>
<path opacity="0.1" d="M194.247 102.488H221.319C222.505 102.488 223.467 101.526 223.467 100.34V92.15C223.467 90.9635 222.505 90.0016 221.319 90.0016H194.247C193.061 90.0016 192.099 90.9635 192.099 92.15V100.34C192.099 101.526 193.061 102.488 194.247 102.488Z" fill="black"/>
<path opacity="0.1" d="M207.194 102.184H179.745C179.321 102.184 178.909 102.321 178.57 102.576C178.231 102.83 177.983 103.187 177.864 103.594C177.872 103.705 177.864 103.816 177.842 103.925C177.828 103.988 177.81 104.051 177.787 104.112C177.786 104.123 177.785 104.133 177.785 104.143V112.71C177.785 113.23 177.991 113.729 178.359 114.096C178.727 114.464 179.225 114.67 179.745 114.67H207.194C207.713 114.67 208.212 114.464 208.58 114.096C208.947 113.729 209.154 113.23 209.154 112.71V104.143C209.154 103.886 209.103 103.631 209.004 103.393C208.906 103.156 208.761 102.94 208.58 102.758C208.398 102.576 208.181 102.431 207.944 102.333C207.706 102.234 207.451 102.184 207.194 102.184Z" fill="black"/>
<path opacity="0.1" d="M158.919 126.852H185.991C187.178 126.852 188.14 125.89 188.14 124.704V116.514C188.14 115.327 187.178 114.366 185.991 114.366H158.919C157.733 114.366 156.771 115.327 156.771 116.514V124.704C156.771 125.89 157.733 126.852 158.919 126.852Z" fill="black"/>
<path opacity="0.1" d="M68.7729 53.4558L95.8448 53.4558C97.0313 53.4558 97.9931 52.494 97.9931 51.3075V43.1176C97.9931 41.9311 97.0313 40.9693 95.8448 40.9693H68.7729C67.5864 40.9693 66.6246 41.9311 66.6246 43.1176V51.3075C66.6246 52.494 67.5864 53.4558 68.7729 53.4558Z" fill="black"/>
<path opacity="0.1" d="M49.2818 65.6377H76.3536C77.5401 65.6377 78.502 64.6758 78.502 63.4893V55.2995C78.502 54.113 77.5401 53.1512 76.3536 53.1512H49.2818C48.0953 53.1512 47.1334 54.113 47.1334 55.2995V63.4893C47.1334 64.6758 48.0953 65.6377 49.2818 65.6377Z" fill="black"/>
<path opacity="0.1" d="M37.4043 78.1241H64.4762C65.6627 78.1241 66.6245 77.1623 66.6245 75.9758V67.786C66.6245 66.5995 65.6627 65.6376 64.4762 65.6376H37.4043C36.2178 65.6376 35.256 66.5995 35.256 67.786V75.9758C35.256 77.1623 36.2178 78.1241 37.4043 78.1241Z" fill="black"/>
<path opacity="0.1" d="M50.1954 90.3063H77.2673C78.4538 90.3063 79.4156 89.3444 79.4156 88.1579V79.9681C79.4156 78.7816 78.4538 77.8198 77.2673 77.8198H50.1954C49.0089 77.8198 48.0471 78.7816 48.0471 79.9681V88.1579C48.0471 89.3444 49.0089 90.3063 50.1954 90.3063Z" fill="black"/>
<path opacity="0.1" d="M37.4043 102.488H64.4762C65.6627 102.488 66.6245 101.526 66.6245 100.34V92.15C66.6245 90.9635 65.6627 90.0016 64.4762 90.0016H37.4043C36.2178 90.0016 35.256 90.9635 35.256 92.15V100.34C35.256 101.526 36.2178 102.488 37.4043 102.488Z" fill="black"/>
<path opacity="0.45" d="M23.2133 114.684H50.2851C51.4716 114.684 52.4335 113.722 52.4335 112.535V104.345C52.4335 103.159 51.4716 102.197 50.2851 102.197H23.2133C22.0268 102.197 21.0649 103.159 21.0649 104.345V112.535C21.0649 113.722 22.0268 114.684 23.2133 114.684Z" fill="black"/>
<path opacity="0.45" d="M206.367 90.2926H233.439C234.625 90.2926 235.587 89.3308 235.587 88.1443V79.9545C235.587 78.7679 234.625 77.8061 233.439 77.8061H206.367C205.18 77.8061 204.219 78.7679 204.219 79.9545V88.1443C204.219 89.3308 205.18 90.2926 206.367 90.2926Z" fill="black"/>
<path opacity="0.45" d="M205.037 65.6799H232.108C233.295 65.6799 234.257 64.7181 234.257 63.5316V55.3418C234.257 54.1553 233.295 53.1934 232.108 53.1934H205.037C203.85 53.1934 202.888 54.1553 202.888 55.3418V63.5316C202.888 64.7181 203.85 65.6799 205.037 65.6799Z" fill="black"/>
<path opacity="0.45" d="M220.78 126.657H247.852C249.038 126.657 250 125.695 250 124.509V116.319C250 115.133 249.038 114.171 247.852 114.171H220.78C219.593 114.171 218.631 115.133 218.631 116.319V124.509C218.631 125.695 219.593 126.657 220.78 126.657Z" fill="black"/>
<path opacity="0.45" d="M2.14837 126.879H29.2202C30.4067 126.879 31.3686 125.917 31.3686 124.731V116.541C31.3686 115.354 30.4067 114.392 29.2202 114.392H2.14837C0.961866 114.392 1.52588e-05 115.354 1.52588e-05 116.541V124.731C1.52588e-05 125.917 0.961866 126.879 2.14837 126.879Z" fill="black"/>
<path opacity="0.45" d="M6.36137 102.266H33.4332C34.6197 102.266 35.5816 101.305 35.5816 100.118V91.9282C35.5816 90.7417 34.6197 89.7798 33.4332 89.7798H6.36137C5.17486 89.7798 4.21301 90.7417 4.21301 91.9282V100.118C4.21301 101.305 5.17486 102.266 6.36137 102.266Z" fill="black"/>
<path opacity="0.45" d="M6.36137 78.0972H33.4332C34.6197 78.0972 35.5816 77.1353 35.5816 75.9488V67.759C35.5816 66.5725 34.6197 65.6107 33.4332 65.6107H6.36137C5.17486 65.6107 4.21301 66.5725 4.21301 67.759V75.9488C4.21301 77.1353 5.17486 78.0972 6.36137 78.0972Z" fill="black"/>
<path opacity="0.45" d="M7.47002 53.4845L34.5419 53.4845C35.7284 53.4845 36.6902 52.5226 36.6902 51.3361V43.1464C36.6902 41.9599 35.7284 40.998 34.5419 40.998H7.47002C6.28352 40.998 5.32166 41.9599 5.32166 43.1464V51.3361C5.32166 52.5226 6.28352 53.4845 7.47002 53.4845Z" fill="black"/>
<path opacity="0.1" d="M7.47002 53.4845L34.5419 53.4845C35.7284 53.4845 36.6902 52.5226 36.6902 51.3361V43.1464C36.6902 41.9599 35.7284 40.998 34.5419 40.998H7.47002C6.28352 40.998 5.32166 41.9599 5.32166 43.1464V51.3361C5.32166 52.5226 6.28352 53.4845 7.47002 53.4845Z" fill="black"/>
<path opacity="0.45" d="M27.4262 41.2891L54.4981 41.2891C55.6846 41.2891 56.6464 40.3272 56.6464 39.1407V30.9509C56.6464 29.7644 55.6846 28.8025 54.4981 28.8025L27.4262 28.8025C26.2397 28.8025 25.2779 29.7644 25.2779 30.9509V39.1407C25.2779 40.3272 26.2397 41.2891 27.4262 41.2891Z" fill="black"/>
<path opacity="0.1" d="M54.7636 114.67H81.8355C83.022 114.67 83.9838 113.708 83.9838 112.522V104.332C83.9838 103.145 83.022 102.184 81.8355 102.184H54.7636C53.5771 102.184 52.6153 103.145 52.6153 104.332V112.522C52.6153 113.708 53.5771 114.67 54.7636 114.67Z" fill="black"/>
<path opacity="0.1" d="M33.4452 126.852H60.5171C61.7036 126.852 62.6654 125.89 62.6654 124.704V116.514C62.6654 115.327 61.7036 114.366 60.5171 114.366H33.4452C32.2587 114.366 31.2969 115.327 31.2969 116.514V124.704C31.2969 125.89 32.2587 126.852 33.4452 126.852Z" fill="black"/>
</g>
<path opacity="0.5" d="M196.964 14.059C200.846 14.059 203.994 10.9118 203.994 7.02952C203.994 3.14722 200.846 0 196.964 0C193.082 0 189.935 3.14722 189.935 7.02952C189.935 10.9118 193.082 14.059 196.964 14.059Z" fill="#FFB8B8"/>
<path opacity="0.5" d="M61.2376 19.7743H59.5651C59.7191 19.7748 59.8717 19.7448 60.0141 19.6862C60.1566 19.6275 60.286 19.5414 60.3951 19.4326C60.5042 19.3239 60.5907 19.1946 60.6498 19.0524C60.7088 18.9101 60.7392 18.7576 60.7392 18.6036C60.7392 18.4496 60.7088 18.2971 60.6498 18.1548C60.5907 18.0125 60.5042 17.8833 60.3951 17.7746C60.286 17.6658 60.1566 17.5796 60.0141 17.521C59.8717 17.4624 59.7191 17.4324 59.5651 17.4329H46.0181C45.8641 17.4324 45.7115 17.4624 45.5691 17.521C45.4267 17.5796 45.2972 17.6658 45.1881 17.7746C45.0791 17.8833 44.9925 18.0125 44.9335 18.1548C44.8744 18.2971 44.844 18.4496 44.844 18.6036C44.844 18.7576 44.8744 18.9101 44.9335 19.0524C44.9925 19.1946 45.0791 19.3239 45.1881 19.4326C45.2972 19.5414 45.4267 19.6275 45.5691 19.6862C45.7115 19.7448 45.8641 19.7748 46.0181 19.7743H47.6906C47.5367 19.774 47.3842 19.804 47.2419 19.8627C47.0995 19.9214 46.9702 20.0076 46.8612 20.1164C46.7523 20.2251 46.6658 20.3543 46.6068 20.4965C46.5479 20.6387 46.5175 20.7911 46.5175 20.945C46.5175 21.099 46.5479 21.2514 46.6068 21.3936C46.6658 21.5358 46.7523 21.665 46.8612 21.7737C46.9702 21.8824 47.0995 21.9686 47.2419 22.0273C47.3842 22.086 47.5367 22.1161 47.6906 22.1158H45.3492C45.0393 22.1166 44.7423 22.2404 44.5235 22.4598C44.3047 22.6793 44.1818 22.9766 44.1818 23.2865C44.1818 23.5964 44.3047 23.8937 44.5235 24.1131C44.7423 24.3326 45.0393 24.4563 45.3492 24.4572H58.8961C59.206 24.4563 59.5029 24.3326 59.7218 24.1131C59.9406 23.8937 60.0635 23.5964 60.0635 23.2865C60.0635 22.9766 59.9406 22.6793 59.7218 22.4598C59.5029 22.2404 59.206 22.1166 58.8961 22.1158H61.2376C61.5476 22.1151 61.8448 21.9915 62.0638 21.772C62.2829 21.5525 62.4059 21.2551 62.4059 20.945C62.4059 20.6349 62.2829 20.3375 62.0638 20.118C61.8448 19.8986 61.5476 19.7749 61.2376 19.7743Z" fill="#DEE3F3"/>
<path opacity="0.5" d="M196.073 6.1847H194.8C195.037 6.1847 195.263 6.09083 195.43 5.92373C195.597 5.75664 195.691 5.53001 195.691 5.2937C195.691 5.0574 195.597 4.83077 195.43 4.66368C195.263 4.49658 195.037 4.40271 194.8 4.40271H184.49C184.254 4.40271 184.027 4.49658 183.86 4.66368C183.693 4.83077 183.599 5.0574 183.599 5.2937C183.599 5.53001 183.693 5.75664 183.86 5.92373C184.027 6.09083 184.254 6.1847 184.49 6.1847H185.763C185.527 6.1847 185.3 6.27857 185.133 6.44567C184.966 6.61276 184.872 6.83939 184.872 7.07569C184.872 7.312 184.966 7.53863 185.133 7.70572C185.3 7.87282 185.527 7.96669 185.763 7.96669H183.981C183.864 7.96669 183.748 7.98974 183.64 8.03451C183.532 8.07929 183.434 8.14492 183.351 8.22766C183.268 8.31039 183.203 8.40861 183.158 8.51672C183.113 8.62482 183.09 8.74068 183.09 8.85768C183.09 8.97469 183.113 9.09055 183.158 9.19865C183.203 9.30675 183.268 9.40498 183.351 9.48771C183.434 9.57045 183.532 9.63608 183.64 9.68086C183.748 9.72563 183.864 9.74868 183.981 9.74868H194.291C194.408 9.74868 194.524 9.72563 194.632 9.68086C194.74 9.63608 194.838 9.57045 194.921 9.48771C195.004 9.40498 195.07 9.30675 195.114 9.19865C195.159 9.09055 195.182 8.97469 195.182 8.85768C195.182 8.74068 195.159 8.62482 195.114 8.51672C195.07 8.40861 195.004 8.31039 194.921 8.22766C194.838 8.14492 194.74 8.07929 194.632 8.03451C194.524 7.98974 194.408 7.96669 194.291 7.96669H196.073C196.309 7.96669 196.536 7.87282 196.703 7.70572C196.87 7.53863 196.964 7.312 196.964 7.07569C196.964 6.83939 196.87 6.61276 196.703 6.44567C196.536 6.27857 196.309 6.1847 196.073 6.1847H196.073Z" fill="#DEE3F3"/>
<path opacity="0.5" d="M93.3222 3.24587H91.6497C91.8037 3.24631 91.9563 3.21636 92.0987 3.15772C92.2412 3.09909 92.3706 3.01292 92.4797 2.90417C92.5888 2.79541 92.6753 2.6662 92.7343 2.52394C92.7934 2.38169 92.8238 2.22917 92.8238 2.07515C92.8238 1.92112 92.7934 1.76861 92.7343 1.62635C92.6753 1.48409 92.5888 1.35488 92.4797 1.24612C92.3706 1.13737 92.2412 1.0512 92.0987 0.992569C91.9563 0.933933 91.8037 0.90398 91.6497 0.904424H78.1027C77.9487 0.90398 77.7961 0.933933 77.6537 0.992569C77.5112 1.0512 77.3818 1.13737 77.2727 1.24612C77.1636 1.35488 77.0771 1.48409 77.0181 1.62635C76.959 1.76861 76.9286 1.92112 76.9286 2.07515C76.9286 2.22917 76.959 2.38169 77.0181 2.52394C77.0771 2.6662 77.1636 2.79541 77.2727 2.90417C77.3818 3.01292 77.5112 3.09909 77.6537 3.15772C77.7961 3.21636 77.9487 3.24631 78.1027 3.24587H79.7752C79.6212 3.24556 79.4687 3.2756 79.3264 3.3343C79.1841 3.39299 79.0548 3.47918 78.9458 3.58792C78.8368 3.69666 78.7504 3.82583 78.6914 3.96802C78.6324 4.11022 78.6021 4.26265 78.6021 4.41659C78.6021 4.57053 78.6324 4.72297 78.6914 4.86516C78.7504 5.00735 78.8368 5.13652 78.9458 5.24526C79.0548 5.354 79.1841 5.44019 79.3264 5.49888C79.4687 5.55758 79.6212 5.58763 79.7752 5.58731H77.4337C77.1238 5.58821 76.8269 5.71194 76.6081 5.9314C76.3893 6.15086 76.2664 6.44812 76.2664 6.75804C76.2664 7.06795 76.3893 7.36522 76.6081 7.58467C76.8269 7.80413 77.1238 7.92787 77.4337 7.92876H90.9807C91.2906 7.92787 91.5875 7.80413 91.8064 7.58467C92.0252 7.36522 92.1481 7.06795 92.1481 6.75804C92.1481 6.44812 92.0252 6.15086 91.8064 5.9314C91.5875 5.71194 91.2906 5.58821 90.9807 5.58731H93.3222C93.6322 5.58668 93.9294 5.46306 94.1484 5.24357C94.3675 5.02409 94.4905 4.72667 94.4905 4.41659C94.4905 4.10651 94.3675 3.80909 94.1484 3.58961C93.9294 3.37012 93.6322 3.2465 93.3222 3.24587Z" fill="#DEE3F3"/>
<path d="M145.096 64.3494H95.008C93.2669 64.3494 91.8555 65.7608 91.8555 67.5018V87.3503C91.8555 89.0914 93.2669 90.5028 95.008 90.5028H145.096C146.837 90.5028 148.249 89.0914 148.249 87.3503V67.5018C148.249 65.7608 146.837 64.3494 145.096 64.3494Z" fill="#FFB8B8"/>
<path opacity="0.1" d="M143.754 86.4889H96.3506V86.9793H143.754V86.4889Z" fill="black"/>
<path opacity="0.3" d="M143.754 68.4359H96.3506V86.4164H143.754V68.4359Z" fill="black"/>
<path opacity="0.1" d="M107.384 84.3398C110.995 84.3398 113.922 81.4125 113.922 77.8014C113.922 74.1904 110.995 71.2631 107.384 71.2631C103.773 71.2631 100.846 74.1904 100.846 77.8014C100.846 81.4125 103.773 84.3398 107.384 84.3398Z" fill="black"/>
<path opacity="0.1" d="M132.72 84.3398C136.331 84.3398 139.259 81.4125 139.259 77.8014C139.259 74.1904 136.331 71.2631 132.72 71.2631C129.109 71.2631 126.182 74.1904 126.182 77.8014C126.182 81.4125 129.109 84.3398 132.72 84.3398Z" fill="black"/>
<path d="M124.955 90.5021H115.148V96.2246H124.955V90.5021Z" fill="#FFB8B8"/>
<path d="M140.485 94.5894H99.6198V127.281H140.485V94.5894Z" fill="#FFB8B8"/>
<path d="M141.302 133.82H98.8025V137.906H141.302V133.82Z" fill="#FFB8B8"/>
<path d="M105.75 147.713V152.617V159.973V164.059V166.511H113.105V164.059V159.973V152.617V147.713V141.992H105.75V147.713Z" fill="#FFB8B8"/>
<path d="M127.816 141.992V147.713V152.617V159.973V164.059V166.511H135.172V164.059V159.973V152.617V147.713V141.992H127.816Z" fill="#FFB8B8"/>
<path d="M94.0537 101.945V109.504C92.0348 109.857 90.1536 110.764 88.6201 112.124C87.1981 113.441 86.0923 115.062 85.3855 116.867C84.4399 119.158 83.9802 121.702 83.7926 124.107C83.5612 127.351 83.713 130.612 84.2448 133.82H76.0719C75.7248 129.302 75.8355 125.426 76.2858 122.098C76.7905 118.345 77.7249 115.291 78.9088 112.807C81.2766 107.84 84.6444 105.146 87.6032 103.682C91.1174 101.945 94.0537 101.945 94.0537 101.945Z" fill="#FFB8B8"/>
<path opacity="0.3" d="M113.105 141.992H105.75V147.714H113.105V141.992Z" fill="black"/>
<path opacity="0.3" d="M113.105 152.617H105.75V159.973H113.105V152.617Z" fill="black"/>
<path opacity="0.3" d="M113.105 164.059H105.75V166.511H113.105V164.059Z" fill="black"/>
<path opacity="0.3" d="M135.172 141.992H127.816V147.714H135.172V141.992Z" fill="black"/>
<path opacity="0.3" d="M135.172 152.617H127.816V159.973H135.172V152.617Z" fill="black"/>
<path opacity="0.3" d="M135.172 164.059H127.816V166.511H135.172V164.059Z" fill="black"/>
<path opacity="0.3" d="M94.0537 101.945V109.504C92.0348 109.857 90.1536 110.764 88.6202 112.124L87.6032 103.682C91.1174 101.945 94.0537 101.945 94.0537 101.945Z" fill="black"/>
<path opacity="0.3" d="M85.3855 116.867C84.4399 119.158 83.9802 121.702 83.7926 124.107L76.2858 122.098C76.7905 118.345 77.7249 115.291 78.9088 112.807L85.3855 116.867Z" fill="black"/>
<path d="M146.051 101.945V109.504C148.07 109.857 149.951 110.764 151.484 112.124C152.906 113.441 154.012 115.062 154.719 116.867C155.664 119.158 156.124 121.702 156.312 124.107C156.543 127.351 156.391 130.612 155.86 133.82H164.032C164.379 129.302 164.269 125.426 163.818 122.098C163.314 118.345 162.379 115.291 161.196 112.807C158.828 107.84 155.46 105.146 152.501 103.682C148.987 101.945 146.051 101.945 146.051 101.945Z" fill="#FFB8B8"/>
<path opacity="0.3" d="M146.051 101.945V109.504C148.07 109.857 149.951 110.764 151.484 112.124L152.501 103.682C148.987 101.945 146.051 101.945 146.051 101.945Z" fill="black"/>
<path opacity="0.3" d="M154.719 116.867C155.664 119.158 156.124 121.702 156.312 124.107L163.819 122.098C163.314 118.345 162.379 115.291 161.196 112.807L154.719 116.867Z" fill="black"/>
<path opacity="0.1" d="M124.955 90.5021H115.148V91.1794H124.955V90.5021Z" fill="black"/>
<path opacity="0.1" d="M141.211 100.414V114.101C140.722 113.574 140.45 112.881 140.451 112.161V102.352C140.45 101.634 140.722 100.941 141.211 100.414Z" fill="black"/>
<path opacity="0.1" d="M99.7649 101.317V111.563C99.7161 112.211 99.4473 112.822 99.0032 113.296V99.5831C99.4473 100.057 99.7161 100.669 99.7649 101.317Z" fill="black"/>
<path opacity="0.1" d="M138.441 127.282H101.664V127.766H138.441V127.282Z" fill="black"/>
<path opacity="0.1" d="M118.825 137.907H100.846V138.282H118.825V137.907Z" fill="black"/>
<path opacity="0.1" d="M138.441 137.907H120.462V138.282H138.441V137.907Z" fill="black"/>
<path d="M105.666 40.1461H102.851V64.3494H105.666V40.1461Z" fill="#FFB8B8"/>
<path d="M137.937 40.1461H135.122V64.3494H137.937V40.1461Z" fill="#FFB8B8"/>
<path opacity="0.1" d="M104.165 43.5232C105.926 43.5232 107.354 42.0952 107.354 40.3336C107.354 38.5721 105.926 37.144 104.165 37.144C102.403 37.144 100.975 38.5721 100.975 40.3336C100.975 42.0952 102.403 43.5232 104.165 43.5232Z" fill="black"/>
<path d="M104.165 43.3357C105.926 43.3357 107.354 41.9077 107.354 40.1461C107.354 38.3846 105.926 36.9565 104.165 36.9565C102.403 36.9565 100.975 38.3846 100.975 40.1461C100.975 41.9077 102.403 43.3357 104.165 43.3357Z" fill="#FFB8B8"/>
<path opacity="0.1" d="M136.623 43.5232C138.385 43.5232 139.813 42.0952 139.813 40.3336C139.813 38.5721 138.385 37.144 136.623 37.144C134.862 37.144 133.434 38.5721 133.434 40.3336C133.434 42.0952 134.862 43.5232 136.623 43.5232Z" fill="black"/>
<path d="M136.623 43.3357C138.385 43.3357 139.813 41.9077 139.813 40.1461C139.813 38.3846 138.385 36.9565 136.623 36.9565C134.862 36.9565 133.434 38.3846 133.434 40.1461C133.434 41.9077 134.862 43.3357 136.623 43.3357Z" fill="#FFB8B8"/>
<path d="M36.8298 114.292C36.8298 114.292 46.1635 132.614 38.5582 142.639C30.953 152.664 39.2496 179.974 39.2496 179.974" stroke="#FC6681" stroke-width="2" stroke-miterlimit="10"/>
<path d="M39.5953 108.588C39.5953 112.12 37.0026 114.984 37.0026 114.984C37.0026 114.984 34.4099 112.12 34.4099 108.588C34.4099 105.056 37.0026 102.193 37.0026 102.193C37.0026 102.193 39.5953 105.056 39.5953 108.588Z" fill="#FC6681"/>
<path d="M41.6695 114.292C41.6695 114.292 32.3358 132.614 39.941 142.639C47.5462 152.664 39.2496 179.974 39.2496 179.974" stroke="#FFD037" stroke-width="2" stroke-miterlimit="10"/>
<path d="M38.9039 108.588C38.9039 112.12 41.4966 114.984 41.4966 114.984C41.4966 114.984 44.0893 112.12 44.0893 108.588C44.0893 105.056 41.4966 102.193 41.4966 102.193C41.4966 102.193 38.9039 105.056 38.9039 108.588Z" fill="#FFD037"/>
<path d="M45.4721 114.292C45.4721 114.292 54.8057 132.614 47.2005 142.639C39.5953 152.664 47.8919 179.974 47.8919 179.974" stroke="#FC6681" stroke-width="2" stroke-miterlimit="10"/>
<path d="M48.2376 108.588C48.2376 112.12 45.6449 114.984 45.6449 114.984C45.6449 114.984 43.0522 112.12 43.0522 108.588C43.0522 105.056 45.6449 102.193 45.6449 102.193C45.6449 102.193 48.2376 105.056 48.2376 108.588Z" fill="#FC6681"/>
<path d="M46.7841 123.268C44.3354 125.814 40.4818 126.079 40.4818 126.079C40.4818 126.079 40.5985 122.219 43.0473 119.673C45.4961 117.128 49.3496 116.862 49.3496 116.862C49.3496 116.862 49.2329 120.723 46.7841 123.268Z" fill="#FC6681"/>
<path d="M47.0272 135.907C44.5784 138.453 40.7249 138.719 40.7249 138.719C40.7249 138.719 40.8416 134.858 43.2904 132.312C45.7391 129.767 49.5927 129.501 49.5927 129.501C49.5927 129.501 49.476 133.362 47.0272 135.907Z" fill="#FC6681"/>
<path d="M33.748 142.862C36.0636 145.529 35.9829 149.391 35.9829 149.391C35.9829 149.391 32.148 148.929 29.8324 146.262C27.5169 143.595 27.5975 139.733 27.5975 139.733C27.5975 139.733 31.4324 140.195 33.748 142.862Z" fill="#FC6681"/>
<path d="M35.8962 115.907C38.8404 117.858 39.7948 121.601 39.7948 121.601C39.7948 121.601 35.9758 122.18 33.0316 120.229C30.0875 118.278 29.1331 114.535 29.1331 114.535C29.1331 114.535 32.9521 113.955 35.8962 115.907Z" fill="#FC6681"/>
<path d="M50.3118 114.292C50.3118 114.292 40.9781 132.614 48.5833 142.639C56.1885 152.664 47.8919 179.974 47.8919 179.974" stroke="#FFD037" stroke-width="2" stroke-miterlimit="10"/>
<path d="M47.5462 108.588C47.5462 112.12 50.1389 114.984 50.1389 114.984C50.1389 114.984 52.7316 112.12 52.7316 108.588C52.7316 105.056 50.1389 102.193 50.1389 102.193C50.1389 102.193 47.5462 105.056 47.5462 108.588Z" fill="#FFD037"/>
<path d="M48.2922 123.54C45.8131 126.056 45.6501 129.915 45.6501 129.915C45.6501 129.915 49.5066 129.695 51.9857 127.179C54.4648 124.664 54.6277 120.804 54.6277 120.804C54.6277 120.804 50.7713 121.024 48.2922 123.54Z" fill="#FFD037"/>
<path d="M53.1535 141.041C50.6744 143.556 50.5114 147.416 50.5114 147.416C50.5114 147.416 54.3679 147.196 56.847 144.68C59.3261 142.164 59.489 138.305 59.489 138.305C59.489 138.305 55.6326 138.525 53.1535 141.041Z" fill="#FFD037"/>
<path d="M46.0014 137.194C46.0014 137.194 51.62 128.338 59.5055 128.148" stroke="#FFD037" stroke-width="2" stroke-miterlimit="10"/>
<path d="M41.6262 131.847C41.6262 131.847 36.0077 122.991 28.1221 122.801" stroke="#FC6681" stroke-width="2" stroke-miterlimit="10"/>
<path d="M40.8971 144.486C40.8971 144.486 46.5156 135.63 54.4012 135.44" stroke="#FFD037" stroke-width="2" stroke-miterlimit="10"/>
<path d="M59.2485 129.538C60.0539 129.538 60.7068 128.885 60.7068 128.079C60.7068 127.274 60.0539 126.621 59.2485 126.621C58.443 126.621 57.7901 127.274 57.7901 128.079C57.7901 128.885 58.443 129.538 59.2485 129.538Z" fill="#FFD037"/>
<path d="M28.2577 124.312C29.0631 124.312 29.716 123.659 29.716 122.853C29.716 122.048 29.0631 121.395 28.2577 121.395C27.4522 121.395 26.7993 122.048 26.7993 122.853C26.7993 123.659 27.4522 124.312 28.2577 124.312Z" fill="#FC6681"/>
<path d="M45.0292 147.403C45.0292 147.403 39.4106 138.547 31.525 138.357" stroke="#FC6681" stroke-width="2" stroke-miterlimit="10"/>
<path d="M31.6606 139.868C32.466 139.868 33.119 139.215 33.119 138.41C33.119 137.604 32.466 136.951 31.6606 136.951C30.8551 136.951 30.2022 137.604 30.2022 138.41C30.2022 139.215 30.8551 139.868 31.6606 139.868Z" fill="#FC6681"/>
<path d="M54.5087 136.951C55.3141 136.951 55.9671 136.298 55.9671 135.493C55.9671 134.687 55.3141 134.034 54.5087 134.034C53.7032 134.034 53.0503 134.687 53.0503 135.493C53.0503 136.298 53.7032 136.951 54.5087 136.951Z" fill="#FFD037"/>
<path d="M76.0857 169.336C76.0857 169.336 62.5462 166.628 58.9356 163.017C55.3251 159.407 39.0777 153.088 37.2725 157.601C35.4672 162.115 12.9014 177.459 28.2461 180.167C43.5909 182.875 64.3514 183.778 68.8646 181.973C73.3778 180.167 76.0857 169.336 76.0857 169.336Z" fill="#A8A8A8"/>
<path opacity="0.2" d="M28.2461 178.49C43.5909 181.198 64.3514 182.101 68.8646 180.296C72.3016 178.921 74.6899 172.315 75.6343 169.241C75.9201 169.302 76.0856 169.336 76.0856 169.336C76.0856 169.336 73.3777 180.167 68.8646 181.972C64.3514 183.778 43.5909 182.875 28.2461 180.167C23.8167 179.385 22.55 177.55 23.0272 175.227C23.4059 176.742 24.9493 177.909 28.2461 178.49Z" fill="black"/>
<path d="M222.319 117.527C222.319 117.527 225.563 121.769 220.822 128.174C216.081 134.579 212.171 139.986 213.751 143.979C213.751 143.979 220.905 132.084 226.728 131.918C232.551 131.751 228.724 124.681 222.319 117.527Z" fill="#FC6681"/>
<path opacity="0.1" d="M222.319 117.527C222.602 117.937 222.825 118.385 222.982 118.857C228.663 125.532 231.69 131.762 226.229 131.918C221.142 132.063 215.04 141.159 213.578 143.456C213.626 143.634 213.684 143.808 213.751 143.979C213.751 143.979 220.905 132.084 226.728 131.918C232.551 131.751 228.724 124.681 222.319 117.527Z" fill="black"/>
<path d="M228.35 122.934C228.35 124.427 228.182 125.637 227.976 125.637C227.769 125.637 227.601 124.427 227.601 122.934C227.601 121.441 227.811 122.144 228.017 122.144C228.224 122.144 228.35 121.441 228.35 122.934Z" fill="#FFD037"/>
<path d="M230.42 124.717C229.109 125.431 227.966 125.863 227.867 125.682C227.768 125.5 228.75 124.774 230.061 124.059C231.372 123.345 230.855 123.865 230.954 124.046C231.053 124.228 231.73 124.002 230.42 124.717Z" fill="#FFD037"/>
<path d="M205.184 117.527C205.184 117.527 201.939 121.769 206.681 128.174C211.422 134.579 215.332 139.986 213.751 143.979C213.751 143.979 206.598 132.084 200.775 131.918C194.952 131.751 198.778 124.681 205.184 117.527Z" fill="#FC6681"/>
<path opacity="0.1" d="M205.184 117.527C204.901 117.937 204.677 118.385 204.521 118.857C198.839 125.532 195.813 131.762 201.274 131.918C206.361 132.063 212.463 141.159 213.924 143.456C213.877 143.634 213.819 143.808 213.751 143.979C213.751 143.979 206.598 132.084 200.775 131.918C194.952 131.751 198.778 124.681 205.184 117.527Z" fill="black"/>
<path d="M199.153 122.934C199.153 124.427 199.32 125.637 199.527 125.637C199.734 125.637 199.901 124.427 199.901 122.934C199.901 121.441 199.692 122.144 199.485 122.144C199.279 122.144 199.153 121.441 199.153 122.934Z" fill="#FFD037"/>
<path d="M197.083 124.717C198.394 125.431 199.537 125.863 199.636 125.682C199.735 125.5 198.752 124.774 197.441 124.059C196.131 123.345 196.648 123.865 196.549 124.046C196.45 124.228 195.772 124.002 197.083 124.717Z" fill="#FFD037"/>
<path d="M200.186 143.424C200.186 143.424 209.256 143.145 211.99 141.198C214.723 139.252 225.942 136.927 226.62 140.049C227.298 143.171 240.251 155.576 230.011 155.658C219.77 155.741 206.217 154.063 203.489 152.401C200.76 150.739 200.186 143.424 200.186 143.424Z" fill="#A8A8A8"/>
<path opacity="0.2" d="M230.193 154.571C219.953 154.654 206.4 152.976 203.671 151.314C201.594 150.049 200.766 145.507 200.489 143.412C200.297 143.42 200.186 143.424 200.186 143.424C200.186 143.424 200.76 150.739 203.489 152.401C206.217 154.063 219.77 155.741 230.011 155.658C232.967 155.634 233.988 154.582 233.932 153.025C233.521 153.966 232.394 154.554 230.193 154.571Z" fill="black"/>
</g>
<defs>
<clipPath id="clip0">
<rect width="250" height="182.912" fill="white"/>
</clipPath>
</defs>
</svg>
