<svg width="400" height="273" viewBox="0 0 400 273" fill="none" xmlns="http://www.w3.org/2000/svg">
<g clip-path="url(#clip0)">
<path d="M369.88 0H34V180.676H369.88V0Z" fill="#F2F2F2"/>
<path d="M63.6809 25.4724H60.719V30.2115H63.6809V25.4724Z" fill="#3D3B54"/>
<path d="M73.7514 24.2878H70.7895V29.0269H73.7514V24.2878Z" fill="#3D3B54"/>
<path d="M79.0828 24.2878H76.1209V29.0269H79.0828V24.2878Z" fill="#3D3B54"/>
<path d="M79.0828 38.5049H76.1209V43.2439H79.0828V38.5049Z" fill="#3D3B54"/>
<path d="M85.0067 31.3962H82.0447V36.1353H85.0067V31.3962Z" fill="#3D3B54"/>
<path d="M85.0067 39.0972H82.0447V43.8362H85.0067V39.0972Z" fill="#3D3B54"/>
<path d="M79.0828 53.9065H76.1209V58.6455H79.0828V53.9065Z" fill="#3D3B54"/>
<path d="M85.0067 61.6074H82.0447V66.3465H85.0067V61.6074Z" fill="#3D3B54"/>
<path d="M79.0828 90.6343H76.1209V95.3733H79.0828V90.6343Z" fill="#3D3B54"/>
<path d="M73.7514 61.6074H70.7895V66.3465H73.7514V61.6074Z" fill="#3D3B54"/>
<path d="M63.6809 33.1733H60.719V37.9124H63.6809V33.1733Z" fill="#3D3B54"/>
<path d="M63.6809 107.221H60.719V111.96H63.6809V107.221Z" fill="#3D3B54"/>
<path d="M63.6809 122.623H60.719V127.362H63.6809V122.623Z" fill="#3D3B54"/>
<path d="M63.6809 130.324H60.719V135.063H63.6809V130.324Z" fill="#3D3B54"/>
<path d="M63.6809 41.4668H59.5343V42.0592H63.6809V41.4668Z" fill="#3D3B54"/>
<path d="M79.6752 48.5752H75.5286V49.1676H79.6752V48.5752Z" fill="#3D3B54"/>
<path d="M63.6809 79.3792H59.5343V79.9715H63.6809V79.3792Z" fill="#3D3B54"/>
<path d="M63.6809 85.8953H59.5343V86.4876H63.6809V85.8953Z" fill="#3D3B54"/>
<path d="M79.6752 123.808H75.5286V124.4H79.6752V123.808Z" fill="#3D3B54"/>
<path d="M74.9362 138.025H70.7895V138.617H74.9362V138.025Z" fill="#3D3B54"/>
<path d="M60.719 46.7981V47.9827H61.9036V50.3523H60.719V51.5369H63.6809V46.7981H60.719Z" fill="#3D3B54"/>
<path d="M70.7897 38.5049V39.6895H71.9743V42.0591H70.7897V43.2437H73.7516V38.5049H70.7897Z" fill="#3D3B54"/>
<path d="M82.0449 46.2053V47.3903H83.2295V49.7599H82.0449V50.9445H85.0068V46.2053H82.0449Z" fill="#3D3B54"/>
<path d="M82.0449 69.3088V70.4934H83.2295V72.863H82.0449V74.0476H85.0068V69.3088H82.0449Z" fill="#3D3B54"/>
<path d="M82.0449 77.0095V78.1945H83.2295V80.5641H82.0449V81.7487H85.0068V77.0095H82.0449Z" fill="#3D3B54"/>
<path d="M82.0449 53.3145V54.4991H83.2295V56.8686H82.0449V58.0536H85.0068V53.3145H82.0449Z" fill="#3D3B54"/>
<path d="M76.1208 31.396V32.581H77.3057V34.9502H76.1208V36.1352H79.083V31.396H76.1208Z" fill="#3D3B54"/>
<path d="M79.0828 69.3086H76.1209V74.0476H79.0828V69.3086Z" fill="#3D3B54"/>
<path d="M79.0828 83.5256H76.1209V88.2647H79.0828V83.5256Z" fill="#3D3B54"/>
<path d="M76.1208 76.417V77.6016H77.3057V79.9712H76.1208V81.1562H79.083V76.417H76.1208Z" fill="#3D3B54"/>
<path d="M70.7897 46.2053V47.3903H71.9743V49.7599H70.7897V50.9445H73.7516V46.2053H70.7897Z" fill="#3D3B54"/>
<path d="M70.7897 53.9065V55.0915H71.9743V57.4607H70.7897V58.6457H73.7516V53.9065H70.7897Z" fill="#3D3B54"/>
<path d="M73.7514 77.0095H70.7895V81.7486H73.7514V77.0095Z" fill="#3D3B54"/>
<path d="M70.7897 69.3088V70.4934H71.9743V72.863H70.7897V74.0476H73.7516V69.3088H70.7897Z" fill="#3D3B54"/>
<path d="M73.7514 92.4114H70.7895V97.1505H73.7514V92.4114Z" fill="#3D3B54"/>
<path d="M70.7897 84.7104V85.895H71.9743V88.2646H70.7897V89.4496H73.7516V84.7104H70.7897Z" fill="#3D3B54"/>
<path d="M73.7514 107.813H70.7895V112.552H73.7514V107.813Z" fill="#3D3B54"/>
<path d="M79.0828 106.628H76.1209V111.367H79.0828V106.628Z" fill="#3D3B54"/>
<path d="M70.7897 100.112V101.297H71.9743V103.667H70.7897V104.851H73.7516V100.112H70.7897Z" fill="#3D3B54"/>
<path d="M82.0449 100.112V101.297H83.2295V103.667H82.0449V104.851H85.0068V100.112H82.0449Z" fill="#3D3B54"/>
<path d="M115.218 31.3962H112.256V36.1353H115.218V31.3962Z" fill="#3D3B54"/>
<path d="M115.218 39.0972H112.256V43.8362H115.218V39.0972Z" fill="#3D3B54"/>
<path d="M115.218 61.6074H112.256V66.3465H115.218V61.6074Z" fill="#3D3B54"/>
<path d="M112.256 46.2053V47.3903H113.441V49.7599H112.256V50.9445H115.218V46.2053H112.256Z" fill="#3D3B54"/>
<path d="M112.256 69.3088V70.4934H113.441V72.863H112.256V74.0476H115.218V69.3088H112.256Z" fill="#3D3B54"/>
<path d="M112.256 77.0095V78.1945H113.441V80.5641H112.256V81.7487H115.218V77.0095H112.256Z" fill="#3D3B54"/>
<path d="M112.256 53.3145V54.4991H113.441V56.8686H112.256V58.0536H115.218V53.3145H112.256Z" fill="#3D3B54"/>
<path d="M112.256 100.112V101.297H113.441V103.667H112.256V104.851H115.218V100.112H112.256Z" fill="#3D3B54"/>
<path d="M73.7514 123.215H70.7895V127.954H73.7514V123.215Z" fill="#3D3B54"/>
<path d="M79.0828 114.329H76.1209V119.068H79.0828V114.329Z" fill="#3D3B54"/>
<path d="M73.7514 143.356H70.7895V148.095H73.7514V143.356Z" fill="#3D3B54"/>
<path d="M79.0828 129.139H76.1209V133.878H79.0828V129.139Z" fill="#3D3B54"/>
<path d="M70.7897 115.514V116.699H71.9743V119.068H70.7897V120.253H73.7516V115.514H70.7897Z" fill="#3D3B54"/>
<path d="M70.7897 151.649V152.834H71.9743V155.204H70.7897V156.388H73.7516V151.649H70.7897Z" fill="#3D3B54"/>
<path d="M106.332 24.2878H103.37V29.0269H106.332V24.2878Z" fill="#3D3B54"/>
<path d="M106.332 61.6074H103.37V66.3465H106.332V61.6074Z" fill="#3D3B54"/>
<path d="M107.517 138.025H103.37V138.617H107.517V138.025Z" fill="#3D3B54"/>
<path d="M103.37 38.5049V39.6895H104.555V42.0591H103.37V43.2437H106.332V38.5049H103.37Z" fill="#3D3B54"/>
<path d="M103.37 46.2053V47.3903H104.555V49.7599H103.37V50.9445H106.332V46.2053H103.37Z" fill="#3D3B54"/>
<path d="M103.37 53.9065V55.0915H104.555V57.4607H103.37V58.6457H106.332V53.9065H103.37Z" fill="#3D3B54"/>
<path d="M106.332 77.0095H103.37V81.7486H106.332V77.0095Z" fill="#3D3B54"/>
<path d="M103.37 69.3088V70.4934H104.555V72.863H103.37V74.0476H106.332V69.3088H103.37Z" fill="#3D3B54"/>
<path d="M106.332 92.4114H103.37V97.1505H106.332V92.4114Z" fill="#3D3B54"/>
<path d="M103.37 84.7104V85.895H104.555V88.2646H103.37V89.4496H106.332V84.7104H103.37Z" fill="#3D3B54"/>
<path d="M106.332 107.813H103.37V112.552H106.332V107.813Z" fill="#3D3B54"/>
<path d="M103.37 100.112V101.297H104.555V103.667H103.37V104.851H106.332V100.112H103.37Z" fill="#3D3B54"/>
<path d="M106.332 123.215H103.37V127.954H106.332V123.215Z" fill="#3D3B54"/>
<path d="M106.332 143.356H103.37V148.095H106.332V143.356Z" fill="#3D3B54"/>
<path d="M103.37 115.514V116.699H104.555V119.068H103.37V120.253H106.332V115.514H103.37Z" fill="#3D3B54"/>
<path d="M103.37 151.649V152.834H104.555V155.204H103.37V156.388H106.332V151.649H103.37Z" fill="#3D3B54"/>
<path d="M120.549 24.2878H117.588V29.0269H120.549V24.2878Z" fill="#3D3B54"/>
<path d="M120.549 61.6074H117.588V66.3465H120.549V61.6074Z" fill="#3D3B54"/>
<path d="M121.734 138.025H117.588V138.617H121.734V138.025Z" fill="#3D3B54"/>
<path d="M117.588 38.5049V39.6895H118.773V42.0591H117.588V43.2437H120.549V38.5049H117.588Z" fill="#3D3B54"/>
<path d="M117.588 46.2053V47.3903H118.773V49.7599H117.588V50.9445H120.549V46.2053H117.588Z" fill="#3D3B54"/>
<path d="M117.588 53.9065V55.0915H118.773V57.4607H117.588V58.6457H120.549V53.9065H117.588Z" fill="#3D3B54"/>
<path d="M120.549 77.0095H117.588V81.7486H120.549V77.0095Z" fill="#3D3B54"/>
<path d="M117.588 69.3088V70.4934H118.773V72.863H117.588V74.0476H120.549V69.3088H117.588Z" fill="#3D3B54"/>
<path d="M120.549 92.4114H117.588V97.1505H120.549V92.4114Z" fill="#3D3B54"/>
<path d="M117.588 84.7104V85.895H118.773V88.2646H117.588V89.4496H120.549V84.7104H117.588Z" fill="#3D3B54"/>
<path d="M120.549 107.813H117.588V112.552H120.549V107.813Z" fill="#3D3B54"/>
<path d="M117.588 100.112V101.297H118.773V103.667H117.588V104.851H120.549V100.112H117.588Z" fill="#3D3B54"/>
<path d="M120.549 123.215H117.588V127.954H120.549V123.215Z" fill="#3D3B54"/>
<path d="M120.549 143.356H117.588V148.095H120.549V143.356Z" fill="#3D3B54"/>
<path d="M117.588 115.514V116.699H118.773V119.068H117.588V120.253H120.549V115.514H117.588Z" fill="#3D3B54"/>
<path d="M117.588 151.649V152.834H118.773V155.204H117.588V156.388H120.549V151.649H117.588Z" fill="#3D3B54"/>
<path d="M76.1208 143.356V144.541H77.3057V146.91H76.1208V148.095H79.083V143.356H76.1208Z" fill="#3D3B54"/>
<path d="M76.1208 151.057V152.242H77.3057V154.611H76.1208V155.796H79.083V151.057H76.1208Z" fill="#3D3B54"/>
<path d="M60.719 61.6077V62.7923H61.9036V65.1618H60.719V66.3468H63.6809V61.6077H60.719Z" fill="#3D3B54"/>
<path d="M60.719 91.8193V93.0039H61.9036V95.3735H60.719V96.5581H63.6809V91.8193H60.719Z" fill="#3D3B54"/>
<path d="M60.719 99.5198V100.705H61.9036V103.074H60.719V104.259H63.6809V99.5198H60.719Z" fill="#3D3B54"/>
<path d="M60.719 114.922V116.106H61.9036V118.476H60.719V119.661H63.6809V114.922H60.719Z" fill="#3D3B54"/>
<path d="M60.719 136.84V138.025H61.9036V140.394H60.719V141.579H63.6809V136.84H60.719Z" fill="#3D3B54"/>
<path d="M60.719 143.356V144.541H61.9036V146.91H60.719V148.095H63.6809V143.356H60.719Z" fill="#3D3B54"/>
<path d="M94.4848 25.4724H91.5229V30.2115H94.4848V25.4724Z" fill="#3D3B54"/>
<path d="M94.4848 33.1733H91.5229V37.9124H94.4848V33.1733Z" fill="#3D3B54"/>
<path d="M94.4848 41.4668H90.3381V42.0592H94.4848V41.4668Z" fill="#3D3B54"/>
<path d="M94.4848 79.3792H90.3381V79.9715H94.4848V79.3792Z" fill="#3D3B54"/>
<path d="M94.4848 85.8953H90.3381V86.4876H94.4848V85.8953Z" fill="#3D3B54"/>
<path d="M91.5228 46.7981V47.9827H92.7074V50.3523H91.5228V51.5369H94.4847V46.7981H91.5228Z" fill="#3D3B54"/>
<path d="M91.5228 61.6077V62.7923H92.7074V65.1618H91.5228V66.3468H94.4847V61.6077H91.5228Z" fill="#3D3B54"/>
<path d="M91.5228 91.8193V93.0039H92.7074V95.3735H91.5228V96.5581H94.4847V91.8193H91.5228Z" fill="#3D3B54"/>
<path d="M128.25 77.0095H125.289V81.7486H128.25V77.0095Z" fill="#3D3B54"/>
<path d="M128.25 84.7104H125.289V89.4495H128.25V84.7104Z" fill="#3D3B54"/>
<path d="M128.25 93.0039H124.104V93.5963H128.25V93.0039Z" fill="#3D3B54"/>
<path d="M128.25 130.916H124.104V131.509H128.25V130.916Z" fill="#3D3B54"/>
<path d="M128.25 137.432H124.104V138.025H128.25V137.432Z" fill="#3D3B54"/>
<path d="M125.289 98.3352V99.5198H126.473V101.889H125.289V103.074H128.25V98.3352H125.289Z" fill="#3D3B54"/>
<path d="M125.289 113.145V114.33H126.473V116.699H125.289V117.884H128.25V113.145H125.289Z" fill="#3D3B54"/>
<path d="M125.289 143.356V144.541H126.473V146.91H125.289V148.095H128.25V143.356H125.289Z" fill="#3D3B54"/>
<path d="M137.729 25.4724H134.767V30.2115H137.729V25.4724Z" fill="#3D3B54"/>
<path d="M147.799 24.2878H144.837V29.0269H147.799V24.2878Z" fill="#3D3B54"/>
<path d="M153.13 24.2878H150.169V29.0269H153.13V24.2878Z" fill="#3D3B54"/>
<path d="M153.13 38.5049H150.169V43.2439H153.13V38.5049Z" fill="#3D3B54"/>
<path d="M159.054 31.3962H156.092V36.1353H159.054V31.3962Z" fill="#3D3B54"/>
<path d="M159.054 39.0972H156.092V43.8362H159.054V39.0972Z" fill="#3D3B54"/>
<path d="M153.13 53.9065H150.169V58.6455H153.13V53.9065Z" fill="#3D3B54"/>
<path d="M159.054 61.6074H156.092V66.3465H159.054V61.6074Z" fill="#3D3B54"/>
<path d="M153.13 90.6343H150.169V95.3733H153.13V90.6343Z" fill="#3D3B54"/>
<path d="M147.799 61.6074H144.837V66.3465H147.799V61.6074Z" fill="#3D3B54"/>
<path d="M137.729 33.1733H134.767V37.9124H137.729V33.1733Z" fill="#3D3B54"/>
<path d="M137.729 107.221H134.767V111.96H137.729V107.221Z" fill="#3D3B54"/>
<path d="M137.729 122.623H134.767V127.362H137.729V122.623Z" fill="#3D3B54"/>
<path d="M137.729 130.324H134.767V135.063H137.729V130.324Z" fill="#3D3B54"/>
<path d="M137.729 41.4668H133.582V42.0592H137.729V41.4668Z" fill="#3D3B54"/>
<path d="M153.723 48.5752H149.576V49.1676H153.723V48.5752Z" fill="#3D3B54"/>
<path d="M137.729 79.3792H133.582V79.9715H137.729V79.3792Z" fill="#3D3B54"/>
<path d="M137.729 85.8953H133.582V86.4876H137.729V85.8953Z" fill="#3D3B54"/>
<path d="M153.723 123.808H149.576V124.4H153.723V123.808Z" fill="#3D3B54"/>
<path d="M148.984 138.025H144.837V138.617H148.984V138.025Z" fill="#3D3B54"/>
<path d="M134.767 46.7981V47.9827H135.952V50.3523H134.767V51.5369H137.728V46.7981H134.767Z" fill="#3D3B54"/>
<path d="M144.837 38.5049V39.6895H146.022V42.0591H144.837V43.2437H147.799V38.5049H144.837Z" fill="#3D3B54"/>
<path d="M156.092 46.2053V47.3903H157.277V49.7599H156.092V50.9445H159.054V46.2053H156.092Z" fill="#3D3B54"/>
<path d="M156.092 69.3088V70.4934H157.277V72.863H156.092V74.0476H159.054V69.3088H156.092Z" fill="#3D3B54"/>
<path d="M156.092 77.0095V78.1945H157.277V80.5641H156.092V81.7487H159.054V77.0095H156.092Z" fill="#3D3B54"/>
<path d="M156.092 53.3145V54.4991H157.277V56.8686H156.092V58.0536H159.054V53.3145H156.092Z" fill="#3D3B54"/>
<path d="M150.169 31.396V32.581H151.353V34.9502H150.169V36.1352H153.131V31.396H150.169Z" fill="#3D3B54"/>
<path d="M153.13 69.3086H150.169V74.0476H153.13V69.3086Z" fill="#3D3B54"/>
<path d="M153.13 83.5256H150.169V88.2647H153.13V83.5256Z" fill="#3D3B54"/>
<path d="M150.169 76.417V77.6016H151.353V79.9712H150.169V81.1562H153.131V76.417H150.169Z" fill="#3D3B54"/>
<path d="M144.837 46.2053V47.3903H146.022V49.7599H144.837V50.9445H147.799V46.2053H144.837Z" fill="#3D3B54"/>
<path d="M144.837 53.9065V55.0915H146.022V57.4607H144.837V58.6457H147.799V53.9065H144.837Z" fill="#3D3B54"/>
<path d="M147.799 77.0095H144.837V81.7486H147.799V77.0095Z" fill="#3D3B54"/>
<path d="M144.837 69.3088V70.4934H146.022V72.863H144.837V74.0476H147.799V69.3088H144.837Z" fill="#3D3B54"/>
<path d="M147.799 92.4114H144.837V97.1505H147.799V92.4114Z" fill="#3D3B54"/>
<path d="M144.837 84.7104V85.895H146.022V88.2646H144.837V89.4496H147.799V84.7104H144.837Z" fill="#3D3B54"/>
<path d="M147.799 107.813H144.837V112.552H147.799V107.813Z" fill="#3D3B54"/>
<path d="M153.13 106.628H150.169V111.367H153.13V106.628Z" fill="#3D3B54"/>
<path d="M144.837 100.112V101.297H146.022V103.667H144.837V104.851H147.799V100.112H144.837Z" fill="#3D3B54"/>
<path d="M156.092 100.112V101.297H157.277V103.667H156.092V104.851H159.054V100.112H156.092Z" fill="#3D3B54"/>
<path d="M189.266 31.3962H186.304V36.1353H189.266V31.3962Z" fill="#3D3B54"/>
<path d="M189.266 39.0972H186.304V43.8362H189.266V39.0972Z" fill="#3D3B54"/>
<path d="M189.266 61.6074H186.304V66.3465H189.266V61.6074Z" fill="#3D3B54"/>
<path d="M186.304 46.2053V47.3903H187.489V49.7599H186.304V50.9445H189.266V46.2053H186.304Z" fill="#3D3B54"/>
<path d="M186.304 69.3088V70.4934H187.489V72.863H186.304V74.0476H189.266V69.3088H186.304Z" fill="#3D3B54"/>
<path d="M186.304 77.0095V78.1945H187.489V80.5641H186.304V81.7487H189.266V77.0095H186.304Z" fill="#3D3B54"/>
<path d="M186.304 53.3145V54.4991H187.489V56.8686H186.304V58.0536H189.266V53.3145H186.304Z" fill="#3D3B54"/>
<path d="M186.304 100.112V101.297H187.489V103.667H186.304V104.851H189.266V100.112H186.304Z" fill="#3D3B54"/>
<path d="M147.799 123.215H144.837V127.954H147.799V123.215Z" fill="#3D3B54"/>
<path d="M153.13 114.329H150.169V119.068H153.13V114.329Z" fill="#3D3B54"/>
<path d="M147.799 143.356H144.837V148.095H147.799V143.356Z" fill="#3D3B54"/>
<path d="M153.13 129.139H150.169V133.878H153.13V129.139Z" fill="#3D3B54"/>
<path d="M144.837 115.514V116.699H146.022V119.068H144.837V120.253H147.799V115.514H144.837Z" fill="#3D3B54"/>
<path d="M144.837 151.649V152.834H146.022V155.204H144.837V156.388H147.799V151.649H144.837Z" fill="#3D3B54"/>
<path d="M180.38 24.2878H177.418V29.0269H180.38V24.2878Z" fill="#3D3B54"/>
<path d="M180.38 61.6074H177.418V66.3465H180.38V61.6074Z" fill="#3D3B54"/>
<path d="M181.565 138.025H177.418V138.617H181.565V138.025Z" fill="#3D3B54"/>
<path d="M177.418 38.5049V39.6895H178.603V42.0591H177.418V43.2437H180.38V38.5049H177.418Z" fill="#3D3B54"/>
<path d="M177.418 46.2053V47.3903H178.603V49.7599H177.418V50.9445H180.38V46.2053H177.418Z" fill="#3D3B54"/>
<path d="M177.418 53.9065V55.0915H178.603V57.4607H177.418V58.6457H180.38V53.9065H177.418Z" fill="#3D3B54"/>
<path d="M180.38 77.0095H177.418V81.7486H180.38V77.0095Z" fill="#3D3B54"/>
<path d="M177.418 69.3088V70.4934H178.603V72.863H177.418V74.0476H180.38V69.3088H177.418Z" fill="#3D3B54"/>
<path d="M180.38 92.4114H177.418V97.1505H180.38V92.4114Z" fill="#3D3B54"/>
<path d="M177.418 84.7104V85.895H178.603V88.2646H177.418V89.4496H180.38V84.7104H177.418Z" fill="#3D3B54"/>
<path d="M180.38 107.813H177.418V112.552H180.38V107.813Z" fill="#3D3B54"/>
<path d="M177.418 100.112V101.297H178.603V103.667H177.418V104.851H180.38V100.112H177.418Z" fill="#3D3B54"/>
<path d="M180.38 123.215H177.418V127.954H180.38V123.215Z" fill="#3D3B54"/>
<path d="M180.38 143.356H177.418V148.095H180.38V143.356Z" fill="#3D3B54"/>
<path d="M177.418 115.514V116.699H178.603V119.068H177.418V120.253H180.38V115.514H177.418Z" fill="#3D3B54"/>
<path d="M177.418 151.649V152.834H178.603V155.204H177.418V156.388H180.38V151.649H177.418Z" fill="#3D3B54"/>
<path d="M194.597 24.2878H191.635V29.0269H194.597V24.2878Z" fill="#3D3B54"/>
<path d="M194.597 61.6074H191.635V66.3465H194.597V61.6074Z" fill="#3D3B54"/>
<path d="M195.782 138.025H191.635V138.617H195.782V138.025Z" fill="#3D3B54"/>
<path d="M191.635 38.5049V39.6895H192.82V42.0591H191.635V43.2437H194.597V38.5049H191.635Z" fill="#3D3B54"/>
<path d="M191.635 46.2053V47.3903H192.82V49.7599H191.635V50.9445H194.597V46.2053H191.635Z" fill="#3D3B54"/>
<path d="M191.635 53.9065V55.0915H192.82V57.4607H191.635V58.6457H194.597V53.9065H191.635Z" fill="#3D3B54"/>
<path d="M194.597 77.0095H191.635V81.7486H194.597V77.0095Z" fill="#3D3B54"/>
<path d="M191.635 69.3088V70.4934H192.82V72.863H191.635V74.0476H194.597V69.3088H191.635Z" fill="#3D3B54"/>
<path d="M194.597 92.4114H191.635V97.1505H194.597V92.4114Z" fill="#3D3B54"/>
<path d="M191.635 84.7104V85.895H192.82V88.2646H191.635V89.4496H194.597V84.7104H191.635Z" fill="#3D3B54"/>
<path d="M194.597 107.813H191.635V112.552H194.597V107.813Z" fill="#3D3B54"/>
<path d="M191.635 100.112V101.297H192.82V103.667H191.635V104.851H194.597V100.112H191.635Z" fill="#3D3B54"/>
<path d="M194.597 123.215H191.635V127.954H194.597V123.215Z" fill="#3D3B54"/>
<path d="M194.597 143.356H191.635V148.095H194.597V143.356Z" fill="#3D3B54"/>
<path d="M191.635 115.514V116.699H192.82V119.068H191.635V120.253H194.597V115.514H191.635Z" fill="#3D3B54"/>
<path d="M191.635 151.649V152.834H192.82V155.204H191.635V156.388H194.597V151.649H191.635Z" fill="#3D3B54"/>
<path d="M150.169 143.356V144.541H151.353V146.91H150.169V148.095H153.131V143.356H150.169Z" fill="#3D3B54"/>
<path d="M150.169 151.057V152.242H151.353V154.611H150.169V155.796H153.131V151.057H150.169Z" fill="#3D3B54"/>
<path d="M134.767 61.6077V62.7923H135.952V65.1618H134.767V66.3468H137.728V61.6077H134.767Z" fill="#3D3B54"/>
<path d="M134.767 91.8193V93.0039H135.952V95.3735H134.767V96.5581H137.728V91.8193H134.767Z" fill="#3D3B54"/>
<path d="M134.767 99.5198V100.705H135.952V103.074H134.767V104.259H137.728V99.5198H134.767Z" fill="#3D3B54"/>
<path d="M134.767 114.922V116.106H135.952V118.476H134.767V119.661H137.728V114.922H134.767Z" fill="#3D3B54"/>
<path d="M134.767 136.84V138.025H135.952V140.394H134.767V141.579H137.728V136.84H134.767Z" fill="#3D3B54"/>
<path d="M134.767 143.356V144.541H135.952V146.91H134.767V148.095H137.728V143.356H134.767Z" fill="#3D3B54"/>
<path d="M168.532 25.4724H165.57V30.2115H168.532V25.4724Z" fill="#3D3B54"/>
<path d="M168.532 33.1733H165.57V37.9124H168.532V33.1733Z" fill="#3D3B54"/>
<path d="M168.532 41.4668H164.386V42.0592H168.532V41.4668Z" fill="#3D3B54"/>
<path d="M168.532 79.3792H164.386V79.9715H168.532V79.3792Z" fill="#3D3B54"/>
<path d="M168.532 85.8953H164.386V86.4876H168.532V85.8953Z" fill="#3D3B54"/>
<path d="M165.57 46.7981V47.9827H166.755V50.3523H165.57V51.5369H168.532V46.7981H165.57Z" fill="#3D3B54"/>
<path d="M165.57 61.6077V62.7923H166.755V65.1618H165.57V66.3468H168.532V61.6077H165.57Z" fill="#3D3B54"/>
<path d="M165.57 91.8193V93.0039H166.755V95.3735H165.57V96.5581H168.532V91.8193H165.57Z" fill="#3D3B54"/>
<path d="M202.298 77.0095H199.336V81.7486H202.298V77.0095Z" fill="#3D3B54"/>
<path d="M202.298 84.7104H199.336V89.4495H202.298V84.7104Z" fill="#3D3B54"/>
<path d="M202.298 93.0039H198.151V93.5963H202.298V93.0039Z" fill="#3D3B54"/>
<path d="M202.298 130.916H198.151V131.509H202.298V130.916Z" fill="#3D3B54"/>
<path d="M202.298 137.432H198.151V138.025H202.298V137.432Z" fill="#3D3B54"/>
<path d="M199.336 98.3352V99.5198H200.521V101.889H199.336V103.074H202.298V98.3352H199.336Z" fill="#3D3B54"/>
<path d="M199.336 113.145V114.33H200.521V116.699H199.336V117.884H202.298V113.145H199.336Z" fill="#3D3B54"/>
<path d="M199.336 143.356V144.541H200.521V146.91H199.336V148.095H202.298V143.356H199.336Z" fill="#3D3B54"/>
<path d="M211.776 25.4724H208.814V30.2115H211.776V25.4724Z" fill="#3D3B54"/>
<path d="M221.847 24.2878H218.885V29.0269H221.847V24.2878Z" fill="#3D3B54"/>
<path d="M227.178 24.2878H224.216V29.0269H227.178V24.2878Z" fill="#3D3B54"/>
<path d="M227.178 38.5049H224.216V43.2439H227.178V38.5049Z" fill="#3D3B54"/>
<path d="M233.102 31.3962H230.14V36.1353H233.102V31.3962Z" fill="#3D3B54"/>
<path d="M233.102 39.0972H230.14V43.8362H233.102V39.0972Z" fill="#3D3B54"/>
<path d="M227.178 53.9065H224.216V58.6455H227.178V53.9065Z" fill="#3D3B54"/>
<path d="M233.102 61.6074H230.14V66.3465H233.102V61.6074Z" fill="#3D3B54"/>
<path d="M227.178 90.6343H224.216V95.3733H227.178V90.6343Z" fill="#3D3B54"/>
<path d="M221.847 61.6074H218.885V66.3465H221.847V61.6074Z" fill="#3D3B54"/>
<path d="M211.776 33.1733H208.814V37.9124H211.776V33.1733Z" fill="#3D3B54"/>
<path d="M211.776 107.221H208.814V111.96H211.776V107.221Z" fill="#3D3B54"/>
<path d="M211.776 122.623H208.814V127.362H211.776V122.623Z" fill="#3D3B54"/>
<path d="M211.776 130.324H208.814V135.063H211.776V130.324Z" fill="#3D3B54"/>
<path d="M211.776 41.4668H207.629V42.0592H211.776V41.4668Z" fill="#3D3B54"/>
<path d="M227.77 48.5752H223.624V49.1676H227.77V48.5752Z" fill="#3D3B54"/>
<path d="M211.776 79.3792H207.629V79.9715H211.776V79.3792Z" fill="#3D3B54"/>
<path d="M211.776 85.8953H207.629V86.4876H211.776V85.8953Z" fill="#3D3B54"/>
<path d="M227.77 123.808H223.624V124.4H227.77V123.808Z" fill="#3D3B54"/>
<path d="M223.031 138.025H218.885V138.617H223.031V138.025Z" fill="#3D3B54"/>
<path d="M208.814 46.7981V47.9827H209.999V50.3523H208.814V51.5369H211.776V46.7981H208.814Z" fill="#3D3B54"/>
<path d="M218.885 38.5049V39.6895H220.069V42.0591H218.885V43.2437H221.847V38.5049H218.885Z" fill="#3D3B54"/>
<path d="M230.14 46.2053V47.3903H231.325V49.7599H230.14V50.9445H233.102V46.2053H230.14Z" fill="#3D3B54"/>
<path d="M230.14 69.3088V70.4934H231.325V72.863H230.14V74.0476H233.102V69.3088H230.14Z" fill="#3D3B54"/>
<path d="M230.14 77.0095V78.1945H231.325V80.5641H230.14V81.7487H233.102V77.0095H230.14Z" fill="#3D3B54"/>
<path d="M230.14 53.3145V54.4991H231.325V56.8686H230.14V58.0536H233.102V53.3145H230.14Z" fill="#3D3B54"/>
<path d="M224.216 31.396V32.581H225.401V34.9502H224.216V36.1352H227.178V31.396H224.216Z" fill="#3D3B54"/>
<path d="M227.178 69.3086H224.216V74.0476H227.178V69.3086Z" fill="#3D3B54"/>
<path d="M227.178 83.5256H224.216V88.2647H227.178V83.5256Z" fill="#3D3B54"/>
<path d="M224.216 76.417V77.6016H225.401V79.9712H224.216V81.1562H227.178V76.417H224.216Z" fill="#3D3B54"/>
<path d="M218.885 46.2053V47.3903H220.069V49.7599H218.885V50.9445H221.847V46.2053H218.885Z" fill="#3D3B54"/>
<path d="M218.885 53.9065V55.0915H220.069V57.4607H218.885V58.6457H221.847V53.9065H218.885Z" fill="#3D3B54"/>
<path d="M221.847 77.0095H218.885V81.7486H221.847V77.0095Z" fill="#3D3B54"/>
<path d="M218.885 69.3088V70.4934H220.069V72.863H218.885V74.0476H221.847V69.3088H218.885Z" fill="#3D3B54"/>
<path d="M221.847 92.4114H218.885V97.1505H221.847V92.4114Z" fill="#3D3B54"/>
<path d="M218.885 84.7104V85.895H220.069V88.2646H218.885V89.4496H221.847V84.7104H218.885Z" fill="#3D3B54"/>
<path d="M221.847 107.813H218.885V112.552H221.847V107.813Z" fill="#3D3B54"/>
<path d="M227.178 106.628H224.216V111.367H227.178V106.628Z" fill="#3D3B54"/>
<path d="M218.885 100.112V101.297H220.069V103.667H218.885V104.851H221.847V100.112H218.885Z" fill="#3D3B54"/>
<path d="M230.14 100.112V101.297H231.325V103.667H230.14V104.851H233.102V100.112H230.14Z" fill="#3D3B54"/>
<path d="M263.313 31.3962H260.351V36.1353H263.313V31.3962Z" fill="#3D3B54"/>
<path d="M263.313 39.0972H260.351V43.8362H263.313V39.0972Z" fill="#3D3B54"/>
<path d="M263.313 61.6074H260.351V66.3465H263.313V61.6074Z" fill="#3D3B54"/>
<path d="M260.352 46.2053V47.3903H261.536V49.7599H260.352V50.9445H263.313V46.2053H260.352Z" fill="#3D3B54"/>
<path d="M260.352 69.3088V70.4934H261.536V72.863H260.352V74.0476H263.313V69.3088H260.352Z" fill="#3D3B54"/>
<path d="M260.352 77.0095V78.1945H261.536V80.5641H260.352V81.7487H263.313V77.0095H260.352Z" fill="#3D3B54"/>
<path d="M260.352 53.3145V54.4991H261.536V56.8686H260.352V58.0536H263.313V53.3145H260.352Z" fill="#3D3B54"/>
<path d="M260.352 100.112V101.297H261.536V103.667H260.352V104.851H263.313V100.112H260.352Z" fill="#3D3B54"/>
<path d="M221.847 123.215H218.885V127.954H221.847V123.215Z" fill="#3D3B54"/>
<path d="M227.178 114.329H224.216V119.068H227.178V114.329Z" fill="#3D3B54"/>
<path d="M221.847 143.356H218.885V148.095H221.847V143.356Z" fill="#3D3B54"/>
<path d="M227.178 129.139H224.216V133.878H227.178V129.139Z" fill="#3D3B54"/>
<path d="M218.885 115.514V116.699H220.069V119.068H218.885V120.253H221.847V115.514H218.885Z" fill="#3D3B54"/>
<path d="M218.885 151.649V152.834H220.069V155.204H218.885V156.388H221.847V151.649H218.885Z" fill="#3D3B54"/>
<path d="M254.428 24.2878H251.466V29.0269H254.428V24.2878Z" fill="#3D3B54"/>
<path d="M254.428 61.6074H251.466V66.3465H254.428V61.6074Z" fill="#3D3B54"/>
<path d="M255.612 138.025H251.466V138.617H255.612V138.025Z" fill="#3D3B54"/>
<path d="M251.466 38.5049V39.6895H252.65V42.0591H251.466V43.2437H254.428V38.5049H251.466Z" fill="#3D3B54"/>
<path d="M251.466 46.2053V47.3903H252.65V49.7599H251.466V50.9445H254.428V46.2053H251.466Z" fill="#3D3B54"/>
<path d="M251.466 53.9065V55.0915H252.65V57.4607H251.466V58.6457H254.428V53.9065H251.466Z" fill="#3D3B54"/>
<path d="M254.428 77.0095H251.466V81.7486H254.428V77.0095Z" fill="#3D3B54"/>
<path d="M251.466 69.3088V70.4934H252.65V72.863H251.466V74.0476H254.428V69.3088H251.466Z" fill="#3D3B54"/>
<path d="M254.428 92.4114H251.466V97.1505H254.428V92.4114Z" fill="#3D3B54"/>
<path d="M251.466 84.7104V85.895H252.65V88.2646H251.466V89.4496H254.428V84.7104H251.466Z" fill="#3D3B54"/>
<path d="M254.428 107.813H251.466V112.552H254.428V107.813Z" fill="#3D3B54"/>
<path d="M251.466 100.112V101.297H252.65V103.667H251.466V104.851H254.428V100.112H251.466Z" fill="#3D3B54"/>
<path d="M254.428 123.215H251.466V127.954H254.428V123.215Z" fill="#3D3B54"/>
<path d="M254.428 143.356H251.466V148.095H254.428V143.356Z" fill="#3D3B54"/>
<path d="M251.466 115.514V116.699H252.65V119.068H251.466V120.253H254.428V115.514H251.466Z" fill="#3D3B54"/>
<path d="M251.466 151.649V152.834H252.65V155.204H251.466V156.388H254.428V151.649H251.466Z" fill="#3D3B54"/>
<path d="M268.645 24.2878H265.683V29.0269H268.645V24.2878Z" fill="#3D3B54"/>
<path d="M268.645 61.6074H265.683V66.3465H268.645V61.6074Z" fill="#3D3B54"/>
<path d="M269.829 138.025H265.683V138.617H269.829V138.025Z" fill="#3D3B54"/>
<path d="M265.683 38.5049V39.6895H266.868V42.0591H265.683V43.2437H268.645V38.5049H265.683Z" fill="#3D3B54"/>
<path d="M265.683 46.2053V47.3903H266.868V49.7599H265.683V50.9445H268.645V46.2053H265.683Z" fill="#3D3B54"/>
<path d="M265.683 53.9065V55.0915H266.868V57.4607H265.683V58.6457H268.645V53.9065H265.683Z" fill="#3D3B54"/>
<path d="M268.645 77.0095H265.683V81.7486H268.645V77.0095Z" fill="#3D3B54"/>
<path d="M265.683 69.3088V70.4934H266.868V72.863H265.683V74.0476H268.645V69.3088H265.683Z" fill="#3D3B54"/>
<path d="M268.645 92.4114H265.683V97.1505H268.645V92.4114Z" fill="#3D3B54"/>
<path d="M265.683 84.7104V85.895H266.868V88.2646H265.683V89.4496H268.645V84.7104H265.683Z" fill="#3D3B54"/>
<path d="M268.645 107.813H265.683V112.552H268.645V107.813Z" fill="#3D3B54"/>
<path d="M265.683 100.112V101.297H266.868V103.667H265.683V104.851H268.645V100.112H265.683Z" fill="#3D3B54"/>
<path d="M268.645 123.215H265.683V127.954H268.645V123.215Z" fill="#3D3B54"/>
<path d="M268.645 143.356H265.683V148.095H268.645V143.356Z" fill="#3D3B54"/>
<path d="M265.683 115.514V116.699H266.868V119.068H265.683V120.253H268.645V115.514H265.683Z" fill="#3D3B54"/>
<path d="M265.683 151.649V152.834H266.868V155.204H265.683V156.388H268.645V151.649H265.683Z" fill="#3D3B54"/>
<path d="M224.216 143.356V144.541H225.401V146.91H224.216V148.095H227.178V143.356H224.216Z" fill="#3D3B54"/>
<path d="M224.216 151.057V152.242H225.401V154.611H224.216V155.796H227.178V151.057H224.216Z" fill="#3D3B54"/>
<path d="M208.814 61.6077V62.7923H209.999V65.1618H208.814V66.3468H211.776V61.6077H208.814Z" fill="#3D3B54"/>
<path d="M208.814 91.8193V93.0039H209.999V95.3735H208.814V96.5581H211.776V91.8193H208.814Z" fill="#3D3B54"/>
<path d="M208.814 99.5198V100.705H209.999V103.074H208.814V104.259H211.776V99.5198H208.814Z" fill="#3D3B54"/>
<path d="M208.814 114.922V116.106H209.999V118.476H208.814V119.661H211.776V114.922H208.814Z" fill="#3D3B54"/>
<path d="M208.814 136.84V138.025H209.999V140.394H208.814V141.579H211.776V136.84H208.814Z" fill="#3D3B54"/>
<path d="M208.814 143.356V144.541H209.999V146.91H208.814V148.095H211.776V143.356H208.814Z" fill="#3D3B54"/>
<path d="M242.58 25.4724H239.618V30.2115H242.58V25.4724Z" fill="#3D3B54"/>
<path d="M242.58 33.1733H239.618V37.9124H242.58V33.1733Z" fill="#3D3B54"/>
<path d="M242.58 41.4668H238.433V42.0592H242.58V41.4668Z" fill="#3D3B54"/>
<path d="M242.58 79.3792H238.433V79.9715H242.58V79.3792Z" fill="#3D3B54"/>
<path d="M242.58 85.8953H238.433V86.4876H242.58V85.8953Z" fill="#3D3B54"/>
<path d="M239.618 46.7981V47.9827H240.803V50.3523H239.618V51.5369H242.58V46.7981H239.618Z" fill="#3D3B54"/>
<path d="M239.618 61.6077V62.7923H240.803V65.1618H239.618V66.3468H242.58V61.6077H239.618Z" fill="#3D3B54"/>
<path d="M239.618 91.8193V93.0039H240.803V95.3735H239.618V96.5581H242.58V91.8193H239.618Z" fill="#3D3B54"/>
<path d="M276.346 77.0095H273.384V81.7486H276.346V77.0095Z" fill="#3D3B54"/>
<path d="M276.346 84.7104H273.384V89.4495H276.346V84.7104Z" fill="#3D3B54"/>
<path d="M276.346 93.0039H272.199V93.5963H276.346V93.0039Z" fill="#3D3B54"/>
<path d="M276.346 130.916H272.199V131.509H276.346V130.916Z" fill="#3D3B54"/>
<path d="M276.346 137.432H272.199V138.025H276.346V137.432Z" fill="#3D3B54"/>
<path d="M273.384 98.3352V99.5198H274.569V101.889H273.384V103.074H276.345V98.3352H273.384Z" fill="#3D3B54"/>
<path d="M273.384 113.145V114.33H274.569V116.699H273.384V117.884H276.345V113.145H273.384Z" fill="#3D3B54"/>
<path d="M273.384 143.356V144.541H274.569V146.91H273.384V148.095H276.345V143.356H273.384Z" fill="#3D3B54"/>
<path d="M400 271.212H82.3135V272.193H400V271.212Z" fill="#2F2E41"/>
<path d="M147.979 155.211V175.172L150.666 187.455C150.666 187.455 150.282 195.133 150.666 197.436C151.05 199.739 150.282 203.578 147.979 203.578C145.676 203.578 144.524 209.336 144.524 209.336C144.524 209.336 143.757 211.639 141.837 212.023C139.918 212.406 139.918 212.023 139.918 212.023L138.383 215.861L106.522 236.974L112.664 252.328C112.664 252.328 122.26 248.873 123.028 247.722C123.796 246.57 130.321 249.257 130.321 246.57C130.321 243.883 131.473 236.974 133.776 236.59C136.079 236.206 155.272 227.377 155.272 227.377C155.272 227.377 165.253 216.245 166.021 212.023C166.788 207.8 170.243 195.9 170.243 195.9L179.84 212.023V244.267L178.304 261.541L195.194 259.238C195.194 259.238 193.659 248.49 195.194 246.954C196.73 245.419 199.033 226.993 197.497 224.69C195.962 222.387 198.265 212.023 197.497 210.487C196.73 208.952 197.113 197.82 195.194 194.749C193.275 191.678 181.759 160.201 181.759 160.201L147.979 155.211Z" fill="#2F2E41"/>
<path d="M180.607 260.773C180.607 260.773 174.849 270.37 178.688 271.521C182.527 272.673 189.82 271.521 190.588 271.521C191.356 271.521 205.175 271.905 205.175 271.905C205.175 271.905 214.387 269.986 214.387 267.299C214.387 264.612 208.629 264.612 206.71 264.228C204.791 263.844 192.891 259.238 192.891 259.238L180.607 260.773Z" fill="#2F2E41"/>
<path d="M108.285 237.407C108.285 237.407 97.1902 235.937 97.6592 239.918C98.1283 243.898 102.084 250.132 102.389 250.837C102.596 251.314 105.02 257.354 106.564 261.203C107.679 264.025 109.355 266.591 111.491 268.747C113 270.255 114.644 271.465 115.723 270.997C118.189 269.929 115.9 264.646 115.49 262.732C115.079 260.818 114.576 248.068 114.576 248.068L108.285 237.407Z" fill="#2F2E41"/>
<path d="M185.406 91.6815L197.689 63.2757C197.689 63.2757 196.538 60.5886 193.851 60.9725C193.851 60.9725 190.204 51.5679 183.294 51.5679C183.294 51.5679 172.93 45.8099 169.859 51.5679C169.859 51.5679 163.334 57.3258 163.717 62.6999C164.101 68.074 164.485 71.9126 164.485 71.9126C164.485 71.9126 158.343 72.6803 159.495 75.7512C160.647 78.8221 161.03 78.8221 159.495 79.9737L157.96 81.1253C157.96 81.1253 126.099 109.915 143.757 152.14L145.292 158.666V164.807C145.292 164.807 184.062 165.191 184.062 164.807C184.062 164.423 183.294 162.12 184.83 160.585C186.365 159.049 186.365 156.746 186.365 156.746C186.365 156.746 184.83 149.069 185.598 146.766C186.365 144.463 186.749 134.482 185.214 132.179C183.678 129.876 184.446 111.45 184.446 111.45L187.901 104.925L186.749 101.086L185.598 97.2475L185.406 91.6815Z" fill="#FFB8B8"/>
<path opacity="0.1" d="M182.143 168.646C182.143 168.646 177.537 155.979 177.92 153.675C178.304 151.372 177.153 146.766 177.153 146.766L175.617 115.673C175.617 115.673 182.143 88.0348 167.556 83.4285C167.556 83.4285 163.865 85.039 160.841 90.2217C157.85 91.5537 154.221 94.9249 153.353 103.389C151.818 118.36 158.727 156.746 162.182 163.272C165.637 169.798 167.94 174.404 167.94 174.404L171.551 172.799C171.7 173.095 171.779 173.252 171.779 173.252L182.143 168.646Z" fill="black"/>
<path d="M184.254 88.2268C184.89 88.2268 185.406 87.7112 185.406 87.0752C185.406 86.4392 184.89 85.9236 184.254 85.9236C183.618 85.9236 183.103 86.4392 183.103 87.0752C183.103 87.7112 183.618 88.2268 184.254 88.2268Z" fill="#F2F2F2"/>
<path d="M184.638 87.0752H183.87V105.117H184.638V87.0752Z" fill="#3F3D56"/>
<path d="M170.435 169.99L173.506 176.516C173.506 176.516 180.415 174.212 180.415 173.061C180.415 171.909 177.345 166.919 177.345 166.919L170.435 169.99Z" fill="#FFB8B8"/>
<path d="M166.021 83.4285C166.021 83.4285 157.192 87.2671 155.656 102.238C154.121 117.208 161.03 155.595 164.485 162.12C167.94 168.646 170.243 173.252 170.243 173.252L180.607 168.646C180.607 168.646 176.001 155.979 176.385 153.675C176.769 151.372 175.617 146.766 175.617 146.766L174.082 115.673C174.082 115.673 180.607 88.0348 166.021 83.4285Z" fill="#FFB8B8"/>
</g>
<defs>
<clipPath id="clip0">
<rect width="400" height="272.193" fill="white"/>
</clipPath>
</defs>
</svg>
