<svg width="400" height="304" viewBox="0 0 400 304" fill="none" xmlns="http://www.w3.org/2000/svg">
<g clip-path="url(#clip0)">
<path d="M343.745 121.098C326.164 51.9663 265.417 2.06251 194.112 0.0609188C156.416 -0.997265 116.748 11.505 87.8676 55.255C36.2402 133.463 91.0403 187.507 129.245 213.188C147.703 225.619 164.335 240.568 178.658 257.599C204.464 288.223 254.11 326.277 313.235 266.652C356.09 223.436 355.456 167.147 343.745 121.098Z" fill="#F2F2F2"/>
<path opacity="0.1" d="M264.559 186.542L300.735 150.476L264.559 114.41L275.588 103.417L322.794 150.476L275.588 197.535L264.559 186.542Z" fill="black"/>
<path opacity="0.1" d="M161.25 153.049H175.956V138.343H161.25V153.049ZM235.074 138.343H220.368V153.049H235.074V138.343ZM190.809 153.049H205.515V138.343H190.809V153.049Z" fill="black"/>
<path opacity="0.1" d="M141.324 186.174L105.11 150.108L141.287 114.042L130.257 103.049L83.0882 150.108L130.294 197.167L141.324 186.174Z" fill="black"/>
<path d="M400 276.579C400 282.67 310.457 303.784 200 303.784C89.5431 303.784 0 282.67 0 276.579C0 270.487 89.5431 281.726 200 281.726C310.457 281.726 400 270.487 400 276.579Z" fill="#3F3D56"/>
<path opacity="0.1" d="M400 276.579C400 282.67 310.457 303.784 200 303.784C89.5431 303.784 0 282.67 0 276.579C0 270.487 89.5431 281.726 200 281.726C310.457 281.726 400 270.487 400 276.579Z" fill="black"/>
<path d="M200 287.608C310.457 287.608 400 282.67 400 276.578C400 270.487 310.457 265.549 200 265.549C89.5431 265.549 0 270.487 0 276.578C0 282.67 89.5431 287.608 200 287.608Z" fill="#3F3D56"/>
<path d="M232.609 223.512C232.609 247.048 247.374 266.092 265.62 266.092L232.609 223.512Z" fill="#3F3D56"/>
<path d="M265.62 266.092C265.62 242.292 282.097 223.034 302.459 223.034L265.62 266.092Z" fill="#FFB8B8"/>
<path d="M244.569 225.646C244.569 248.002 253.985 266.092 265.62 266.092L244.569 225.646Z" fill="#FFB8B8"/>
<path d="M265.62 266.092C265.62 235.681 284.665 211.073 308.2 211.073L265.62 266.092Z" fill="#3F3D56"/>
<path d="M258.675 266.392C258.675 266.392 263.357 266.248 264.768 265.243C266.179 264.239 271.969 263.039 272.319 264.65C272.669 266.262 279.355 272.664 274.069 272.707C268.784 272.749 261.788 271.883 260.38 271.026C258.972 270.168 258.675 266.392 258.675 266.392Z" fill="#A8A8A8"/>
<path opacity="0.2" d="M274.164 272.146C268.878 272.188 261.883 271.322 260.474 270.465C259.402 269.811 258.975 267.467 258.832 266.386C258.733 266.39 258.675 266.392 258.675 266.392C258.675 266.392 258.972 270.168 260.38 271.026C261.788 271.883 268.784 272.749 274.069 272.707C275.595 272.694 276.122 272.152 276.093 271.348C275.881 271.833 275.299 272.137 274.164 272.146Z" fill="black"/>
<path d="M318.211 140.755C318.211 140.755 306.891 132.161 306.032 135.311C305.173 138.461 314.338 145.621 314.338 145.621L318.211 140.755Z" fill="#FFB9B9"/>
<path opacity="0.1" d="M318.211 140.755C318.211 140.755 306.891 132.161 306.032 135.311C305.173 138.461 314.338 145.621 314.338 145.621L318.211 140.755Z" fill="black"/>
<path d="M355.578 113.545C355.578 113.545 342.118 137.602 341.831 141.039C341.545 144.475 341.545 144.762 340.399 144.475C339.254 144.189 323.502 142.471 322.07 143.043C320.638 143.616 317.774 139.607 317.774 139.607C317.774 139.607 312.333 145.048 313.478 146.194C314.624 147.339 318.061 147.912 318.633 149.344C319.206 150.776 320.065 152.208 322.643 151.922C325.22 151.635 342.69 156.504 344.982 155.645C347.273 154.786 347.846 153.354 348.991 153.354C350.137 153.354 352.428 152.208 352.428 151.922C352.428 151.635 360.447 136.456 360.447 136.456C360.447 136.456 369.898 115.836 355.578 113.545Z" fill="#D0CDE1"/>
<path opacity="0.1" d="M355.578 113.545C355.578 113.545 342.118 137.602 341.831 141.039C341.545 144.475 341.545 144.762 340.399 144.475C339.254 144.189 323.502 142.471 322.07 143.043C320.638 143.616 317.774 139.607 317.774 139.607C317.774 139.607 312.333 145.048 313.478 146.194C314.624 147.339 318.061 147.912 318.633 149.344C319.206 150.776 320.065 152.208 322.643 151.922C325.22 151.635 342.69 156.504 344.982 155.645C347.273 154.786 347.846 153.354 348.991 153.354C350.137 153.354 352.428 152.208 352.428 151.922C352.428 151.635 360.447 136.456 360.447 136.456C360.447 136.456 369.898 115.836 355.578 113.545Z" fill="black"/>
<path d="M336.049 97.6853C335.927 99.2062 335.952 100.735 336.123 102.251C336.558 105.542 338.072 108.972 336.641 112.043C336.122 113.158 335.242 114.129 334.763 115.258C333.749 117.646 334.668 120.295 334.53 122.837C334.352 126.121 332.264 129.285 329.087 131.084C334.515 131.253 339.676 128.569 343.092 124.912C346.507 121.255 348.409 116.719 349.835 112.181C350.567 110.05 351.037 107.837 351.234 105.592C351.347 104.303 351.196 103.003 350.789 101.774C350.288 100.573 349.627 99.445 348.825 98.4198C347.97 97.2175 347.091 95.9915 345.83 95.0969C344.276 93.995 341.279 92.8887 339.217 93.049C336.689 93.2457 336.156 95.9302 336.049 97.6853Z" fill="#2F2E41"/>
<path d="M344.409 106.671C344.409 106.671 347.559 117.841 344.982 120.991C342.404 124.141 360.447 119.559 360.447 119.559C360.447 119.559 351.569 110.681 355.865 104.953L344.409 106.671Z" fill="#FFB9B9"/>
<path opacity="0.1" d="M344.409 106.671C344.409 106.671 347.559 117.841 344.982 120.991C342.404 124.141 360.447 119.559 360.447 119.559C360.447 119.559 351.569 110.681 355.865 104.953L344.409 106.671Z" fill="black"/>
<path d="M264.559 179.557L300.735 143.49L264.559 107.424L275.588 96.4316L322.794 143.49L275.588 190.549L264.559 179.557Z" fill="#FFB8B8"/>
<path d="M334.099 255.596V263.901L338.394 269.056L342.118 267.338L340.972 255.31L334.099 255.596Z" fill="#FFB9B9"/>
<path d="M335.817 263.329C335.817 263.329 334.671 259.319 332.667 262.183C330.662 265.047 328.657 271.348 327.512 271.634C326.366 271.92 318.347 280.799 326.366 280.799C334.385 280.799 336.963 277.075 336.963 277.075C336.963 277.075 344.982 273.925 344.982 273.352C344.982 272.78 343.836 262.183 343.263 262.183C342.69 262.183 342.404 264.188 340.972 264.188C339.54 264.188 335.817 263.329 335.817 263.329Z" fill="#2F2E41"/>
<path d="M353.287 257.028L353.001 264.761L359.874 267.624V256.455L353.287 257.028Z" fill="#FFB9B9"/>
<path d="M360.733 264.761C360.733 264.761 357.01 260.751 355.005 261.61C354.014 262.009 353.056 262.488 352.141 263.042C352.141 263.042 350.996 266.765 350.423 269.916C349.85 273.066 349.564 274.498 348.991 275.643C348.418 276.789 347.846 281.085 353.573 281.658C359.301 282.231 361.02 279.08 361.02 279.08L362.452 271.634C362.452 271.634 361.879 264.761 360.733 264.761Z" fill="#2F2E41"/>
<path d="M337.822 174.547C337.822 174.547 329.516 193.162 330.662 210.059C330.662 210.059 327.798 216.646 329.516 226.957C331.235 237.267 333.526 257.887 333.526 257.887C333.526 257.887 341.259 258.746 341.831 257.314C341.831 257.314 342.404 242.995 342.977 242.422C343.55 241.849 342.69 228.675 341.831 226.097C340.972 223.52 349.85 198.031 349.85 198.031L347.559 166.241L337.822 174.547Z" fill="#2F2E41"/>
<path opacity="0.1" d="M337.822 174.547C337.822 174.547 329.516 193.162 330.662 210.059C330.662 210.059 327.798 216.646 329.516 226.957C331.235 237.267 333.526 257.887 333.526 257.887C333.526 257.887 341.259 258.746 341.831 257.314C341.831 257.314 342.404 242.995 342.977 242.422C343.55 241.849 342.69 228.675 341.831 226.097C340.972 223.52 349.85 198.031 349.85 198.031L347.559 166.241L337.822 174.547Z" fill="black"/>
<path d="M335.531 173.401L340.972 185.143C340.972 185.143 343.55 211.778 344.982 215.215C344.982 215.215 345.554 224.952 348.132 228.102C350.709 231.253 352.714 259.033 352.714 259.033C352.714 259.033 359.874 261.037 360.447 259.033C361.02 257.028 362.738 243.281 362.738 243.281C362.738 243.281 363.311 231.539 360.16 223.806C357.01 216.074 363.884 188.294 363.884 188.294C363.884 188.294 371.043 174.833 360.733 163.95L335.531 173.401Z" fill="#2F2E41"/>
<path d="M350.709 110.108C357.194 110.108 362.452 104.851 362.452 98.3661C362.452 91.8811 357.194 86.624 350.709 86.624C344.224 86.624 338.967 91.8811 338.967 98.3661C338.967 104.851 344.224 110.108 350.709 110.108Z" fill="#FFB9B9"/>
<path d="M361.592 116.123C361.592 116.123 349.278 116.123 347.559 117.555C347.134 117.959 346.57 118.184 345.984 118.184C345.398 118.184 344.834 117.959 344.409 117.555C344.409 117.555 340.113 117.841 338.967 121.278C337.822 124.714 334.385 129.297 334.385 129.297C334.385 129.297 329.23 133.02 332.094 142.757C334.958 152.495 332.667 168.246 332.667 168.246C332.667 168.246 330.376 171.683 332.667 173.115C334.958 174.547 335.817 175.12 335.531 176.265C335.244 177.411 361.592 166.814 361.592 164.809C361.592 162.805 361.02 161.086 361.592 160.227C362.165 159.368 362.738 157.936 362.165 156.504C361.592 155.072 362.738 154.786 362.452 153.354C362.165 151.922 363.884 141.325 365.029 136.743C366.175 132.161 365.888 116.409 361.592 116.123Z" fill="#D0CDE1"/>
<path d="M318.211 144.191C318.211 144.191 306.891 135.597 306.032 138.747C305.173 141.898 314.338 149.058 314.338 149.058L318.211 144.191Z" fill="#FFB9B9"/>
<path d="M355.578 117.554C355.578 117.554 342.118 141.611 341.831 145.048C341.545 148.485 341.545 148.771 340.399 148.485C339.254 148.199 323.502 146.48 322.07 147.053C320.638 147.626 317.774 143.616 317.774 143.616C317.774 143.616 312.333 149.058 313.478 150.203C314.624 151.349 318.061 151.922 318.633 153.354C319.206 154.786 320.065 156.218 322.643 155.931C325.22 155.645 342.69 160.513 344.982 159.654C347.273 158.795 347.846 157.363 348.991 157.363C350.137 157.363 352.428 156.218 352.428 155.931C352.428 155.645 360.447 140.466 360.447 140.466C360.447 140.466 369.898 119.846 355.578 117.554Z" fill="#D0CDE1"/>
<path d="M344.895 105.868C344.732 104.705 344.137 103.65 343.831 102.516C343.592 101.609 343.539 100.662 343.675 99.7337C343.811 98.8052 344.134 97.9139 344.623 97.1133C346.307 94.393 349.614 93.1882 351.92 90.9704C351.968 92.1001 352.752 93.0655 353.618 93.792C354.485 94.5185 355.478 95.1078 356.212 95.9682C356.917 96.876 357.431 97.9169 357.723 99.0283C358.175 100.316 358.377 101.678 358.319 103.042C358.286 103.723 358.115 104.391 357.816 105.004C357.517 105.617 357.097 106.163 356.58 106.609C355.721 107.288 354.521 107.675 354.106 108.689C353.943 109.195 353.896 109.731 353.968 110.258C354.165 113.409 354.349 116.616 353.607 119.685C352.865 122.753 351.047 125.718 348.198 127.078C350.539 127.244 352.93 127.406 355.201 126.815C357.473 126.224 359.645 124.736 360.428 122.524C360.814 121.432 360.851 120.218 361.4 119.199C362.789 116.619 366.626 116.501 368.51 114.257C369.264 113.359 369.629 112.201 369.9 111.06C371.491 104.345 370.373 97.2149 367.95 90.7532C367.115 88.5259 366.076 86.2834 364.285 84.7181C362.761 83.386 360.815 82.6521 358.89 82.0253C356.082 81.1106 353.188 80.3611 350.236 80.2645C348.954 80.1892 347.668 80.3393 346.437 80.708C345.222 81.147 344.091 81.791 343.094 82.6122C338.47 86.2107 335.321 91.9621 335.739 97.807C335.992 101.344 337.49 104.691 339.415 107.668C340.088 108.71 341.679 110.93 343.158 110.275C344.499 109.682 345.071 107.124 344.895 105.868Z" fill="#2F2E41"/>
<path d="M161.25 146.064H175.956V131.358H161.25V146.064ZM235.074 131.358H220.368V146.064H235.074V131.358ZM190.809 146.064H205.515V131.358H190.809V146.064Z" fill="#FFB8B8"/>
<path d="M75.811 87.5334C82.6449 87.5334 88.1848 83.2123 88.1848 77.8818C88.1848 72.5514 82.6449 68.2302 75.811 68.2302C68.9771 68.2302 63.4371 72.5514 63.4371 77.8818C63.4371 83.2123 68.9771 87.5334 75.811 87.5334Z" fill="#2F2E41"/>
<path d="M77.9145 144.33C77.9145 144.33 89.051 145.072 91.0308 143.587C93.0106 142.102 101.425 145.567 102.167 147.547C102.91 149.527 90.2884 149.774 88.3086 149.774C86.3288 149.774 76.9246 152.744 76.9246 152.744L77.9145 144.33Z" fill="#A0616A"/>
<path d="M54.9824 259.61C54.9824 259.61 49.7924 272.698 52.5002 274.277C55.2081 275.857 83.6406 274.729 83.6406 274.729C83.6406 274.729 88.3793 271.795 82.9636 269.764C82.9636 269.764 78.4505 269.539 75.517 267.733C72.5835 265.928 69.1987 262.543 69.1987 262.543C69.1987 262.543 68.973 257.579 67.1678 258.707C66.6277 259.063 66.168 259.528 65.8182 260.072C65.4685 260.616 65.2364 261.227 65.1369 261.866L54.9824 259.61Z" fill="#2F2E41"/>
<path opacity="0.1" d="M54.9824 259.61C54.9824 259.61 49.7924 272.698 52.5002 274.277C55.2081 275.857 83.6406 274.729 83.6406 274.729C83.6406 274.729 88.3793 271.795 82.9636 269.764C82.9636 269.764 78.4505 269.539 75.517 267.733C72.5835 265.928 69.1987 262.543 69.1987 262.543C69.1987 262.543 68.973 257.579 67.1678 258.707C66.6277 259.063 66.168 259.528 65.8182 260.072C65.4685 260.616 65.2364 261.227 65.1369 261.866L54.9824 259.61Z" fill="black"/>
<path d="M141.324 179.189L105.11 143.123L141.287 107.057L130.257 96.064L83.0882 143.123L130.294 190.182L141.324 179.189Z" fill="#FFB8B8"/>
<path d="M46.9799 263.614C46.9799 263.614 41.2879 277.967 44.2576 279.7C47.2274 281.432 78.4095 280.195 78.4095 280.195C78.4095 280.195 83.6065 276.977 77.6671 274.75C77.6671 274.75 72.7175 274.503 69.5003 272.523C66.2831 270.543 62.571 266.831 62.571 266.831C62.571 266.831 62.3235 261.386 60.3437 262.624C59.7513 263.014 59.2472 263.524 58.8636 264.12C58.48 264.717 58.2255 265.387 58.1164 266.088L46.9799 263.614Z" fill="#2F2E41"/>
<path d="M76.1822 172.542L72.7175 203.724C72.7175 203.724 71.4801 218.573 67.768 221.79C67.768 221.79 67.768 226.492 66.5306 227.977L64.7982 247.527C64.7982 247.527 67.273 254.704 67.0255 255.942C66.778 257.179 68.0154 261.139 67.768 261.634C67.5205 262.129 55.8891 261.634 55.8891 261.634L58.3638 221.79L66.0356 166.355L76.1822 172.542Z" fill="#2F2E41"/>
<path opacity="0.1" d="M76.1822 172.542L72.7175 203.724C72.7175 203.724 71.4801 218.573 67.768 221.79C67.768 221.79 67.768 226.492 66.5306 227.977L64.7982 247.527C64.7982 247.527 67.273 254.704 67.0255 255.942C66.778 257.179 68.0154 261.139 67.768 261.634C67.5205 262.129 55.8891 261.634 55.8891 261.634L58.3638 221.79L66.0356 166.355L76.1822 172.542Z" fill="black"/>
<path d="M69.9953 171.552C69.9953 171.552 67.273 197.042 66.0356 202.487C65.2576 206.072 64.7612 209.713 64.5508 213.376C64.5508 213.376 64.3033 221.295 62.076 223.522C61.4243 224.168 60.9123 224.94 60.5717 225.791C60.2311 226.643 60.0693 227.555 60.0962 228.472C60.0962 228.472 57.8689 253.467 59.1063 256.437C60.3437 259.406 61.581 261.881 60.3437 263.861C59.1063 265.841 45.495 265.841 45.495 264.356C45.495 262.871 45.495 261.634 44.7526 260.891C44.0102 260.149 44.7526 255.447 44.7526 255.447C44.7526 255.447 41.7829 233.421 44.5051 226.987C47.2274 220.553 48.4648 202.982 48.4648 202.982C48.4648 202.982 46.4849 182.936 44.0102 179.719C41.5354 176.502 44.5051 165.118 44.5051 165.118L69.9953 171.552Z" fill="#2F2E41"/>
<path d="M63.0278 92.3941C63.3155 93.0495 64.0041 93.4144 64.6311 93.7598C68.2645 95.7615 71.3059 98.6637 74.3024 101.532C73.5547 98.9986 73.714 96.2834 74.7529 93.8544C75.1107 93.0259 75.5796 92.1353 75.3239 91.2699C75.1358 90.6335 74.5939 90.1744 74.0689 89.7684C72.8462 88.8228 71.5683 87.9509 70.2418 87.1574C69.3152 86.603 67.4101 85.1272 66.3468 85.2878C66.2909 86.7245 66.2618 88.009 65.6326 89.3518C65.4834 89.6703 63.1378 92.6446 63.0278 92.3941Z" fill="#A0616A"/>
<path d="M75.6872 95.5766C81.291 95.5766 85.8338 91.0338 85.8338 85.43C85.8338 79.8262 81.291 75.2834 75.6872 75.2834C70.0834 75.2834 65.5407 79.8262 65.5407 85.43C65.5407 91.0338 70.0834 95.5766 75.6872 95.5766Z" fill="#A0616A"/>
<path d="M76.1822 109.435C76.1822 109.435 77.9145 100.774 72.965 97.8038C68.0154 94.8341 62.3235 91.3694 62.3235 91.3694C62.3235 91.3694 60.5911 91.1219 59.8487 94.8341C59.8487 94.8341 45.7425 97.5563 44.2576 110.92C42.7728 124.284 45.2475 143.835 45.2475 143.835C45.2475 143.835 43.0202 160.911 40.298 170.067C40.298 170.067 38.0707 172.047 47.9698 169.077C57.8689 166.108 75.1923 177.491 75.1923 177.491C75.1923 177.491 76.9246 175.759 76.9246 174.522C76.9246 173.284 78.9044 166.108 78.9044 166.108C78.9044 166.108 80.6368 135.668 81.3792 132.203C82.1216 128.738 78.4095 109.93 76.1822 109.435Z" fill="#575A89"/>
<path d="M73.296 86.4752C73.9055 86.1374 74.5891 85.9553 75.2859 85.9452C75.9836 85.9348 76.6648 85.7318 77.2544 85.3587C78.2129 84.6229 78.2832 83.2008 78.9844 82.2167C79.9995 80.792 82.0246 80.6205 83.7726 80.6918C84.8417 80.7354 85.993 80.7992 86.8933 80.221C87.8176 79.6274 88.2365 78.5089 88.5481 77.4556C88.9166 76.2099 89.155 74.6867 88.2418 73.7629C87.6076 73.1214 86.6067 72.9945 85.9022 72.4311C85.1718 71.8469 84.8712 70.8962 84.4742 70.0494C84.0224 69.0176 83.3077 68.1225 82.4016 67.4534C81.0727 66.53 79.3753 66.323 77.7572 66.3403C76.1391 66.3576 74.5142 66.5704 72.9082 66.3718C71.5924 66.2091 70.2805 65.7714 68.9689 65.9654C67.2977 66.2126 65.915 67.4735 65.0915 68.9486C64.2681 70.4237 63.9147 72.1075 63.5721 73.7618L62.6402 78.2612C62.3512 79.6567 62.061 81.0893 62.2841 82.4968C62.7466 85.4147 65.3271 87.734 65.5049 90.6829C65.6743 89.8686 66.0433 89.1091 66.5786 88.4725C67.114 87.8359 67.799 87.3422 68.5721 87.0356C68.766 86.9408 68.9862 86.9141 69.1971 86.9598C69.4534 87.0417 69.6033 87.2979 69.7651 87.513C70.189 88.0765 71.5207 88.9316 72.2756 88.5318C72.951 88.1741 72.4468 87.0511 73.296 86.4752Z" fill="#2F2E41"/>
<path d="M47.7223 132.698C47.7223 132.698 45.99 143.587 53.1668 142.597C53.1668 142.597 56.879 142.102 57.3739 142.597C57.8689 143.092 76.1822 139.875 78.657 137.153C78.657 137.153 81.6267 136.163 83.1115 137.648C84.5964 139.132 99.445 140.617 94.9905 136.163C90.5359 131.708 83.6065 130.718 83.6065 130.718L74.2024 131.213C74.2024 131.213 69.2528 132.698 66.2831 131.213C63.3134 129.728 54.8991 130.223 54.8991 130.223L47.7223 132.698Z" fill="#A0616A"/>
<path d="M57.8689 98.2988C57.8689 98.2988 46.7324 99.5362 46.7324 115.622V136.163C46.7324 136.163 52.9194 133.441 54.1567 133.688C55.3941 133.936 60.3437 130.471 60.3437 130.471C60.3437 130.471 66.0356 117.107 65.5407 113.395C65.0457 109.683 65.2932 98.7938 57.8689 98.2988Z" fill="#575A89"/>
<path d="M75.6872 84.0688C80.9493 84.0688 85.2151 81.8528 85.2151 79.1192C85.2151 76.3857 80.9493 74.1697 75.6872 74.1697C70.4251 74.1697 66.1594 76.3857 66.1594 79.1192C66.1594 81.8528 70.4251 84.0688 75.6872 84.0688Z" fill="#2F2E41"/>
<path d="M66.7781 88.2758C68.6232 88.2758 70.119 84.564 70.119 79.9853C70.119 75.4066 68.6232 71.6948 66.7781 71.6948C64.9329 71.6948 63.4371 75.4066 63.4371 79.9853C63.4371 84.564 64.9329 88.2758 66.7781 88.2758Z" fill="#2F2E41"/>
</g>
<defs>
<clipPath id="clip0">
<rect width="400" height="303.784" fill="white"/>
</clipPath>
</defs>
</svg>
